<svg width="60" height="60" viewBox="0 0 60 60" fill="none" xmlns="http://www.w3.org/2000/svg">
<g id="all-covered-svgrepo-com 1">
<path id="Vector" d="M41.7305 43.7521C41.7305 42.5274 40.7344 41.5372 39.5156 41.5372C38.8887 41.5372 38.3203 41.8009 37.916 42.2169L40.4648 45.7501C41.209 45.3927 41.7305 44.631 41.7305 43.7521ZM37.2949 43.7521C37.2949 44.8536 38.1035 45.7677 39.1523 45.9376L37.3242 43.4005C37.3066 43.5177 37.2949 43.6349 37.2949 43.7521Z" fill="#E6E6E6"/>
<path id="Vector_2" d="M40.4648 45.75L37.916 42.2168C37.6113 42.5332 37.4004 42.9434 37.3242 43.4004L39.1523 45.9375C39.2695 45.9551 39.3867 45.9668 39.5098 45.9668C39.8555 45.9668 40.1777 45.8906 40.4648 45.75Z" fill="#E6E6E6"/>
<path id="Vector_3" d="M31.459 42.3633C31.3243 42.0704 30.9727 41.9415 30.6797 42.0762C30.3868 42.211 30.2579 42.5626 30.3926 42.8555C30.4805 43.0489 30.5801 43.2364 30.6797 43.418C30.7852 43.6114 30.9844 43.7169 31.1895 43.7169C31.2891 43.7169 31.3829 43.6934 31.4766 43.6407C31.7579 43.4825 31.8575 43.1251 31.6993 42.8438C31.6172 42.6915 31.5294 42.5274 31.459 42.3633ZM30.8614 40.295C30.8438 40.1192 30.8321 39.9551 30.8321 39.8028V39.7852C30.8321 39.463 30.5743 39.1993 30.252 39.1934H30.2462C29.9239 39.1934 29.6602 39.4512 29.6602 39.7735V39.8028C29.6602 40.002 29.6719 40.213 29.6954 40.4298C29.7305 40.7286 29.9825 40.9512 30.2755 40.9512C30.2989 40.9512 30.3223 40.9512 30.3399 40.9454C30.668 40.9102 30.8965 40.6173 30.8614 40.295ZM33.4629 44.7891C33.3165 44.6954 33.1758 44.5899 33.0411 44.4786C32.7891 44.2735 32.42 44.3087 32.2149 44.5606C32.0098 44.8126 32.045 45.1817 32.2969 45.3868C32.4669 45.5274 32.6426 45.6563 32.8184 45.7735C32.918 45.838 33.0294 45.8673 33.1407 45.8673C33.334 45.8673 33.5215 45.7735 33.6329 45.6036C33.8087 45.3282 33.7325 44.9649 33.4629 44.7891ZM35.9239 45.5333C35.7481 45.5274 35.5665 45.5157 35.3965 45.4923C35.0743 45.4512 34.7813 45.6798 34.7403 45.9962C34.6993 46.3184 34.9278 46.6114 35.2442 46.6524C35.4551 46.6817 35.6661 46.6934 35.8829 46.6993H35.9004C36.2169 46.6993 36.4747 46.4473 36.4864 46.1309C36.4981 45.8087 36.2461 45.5391 35.9239 45.5333ZM31.7989 36.6798C31.5235 36.5098 31.1602 36.6036 30.9962 36.879C30.8907 37.0548 30.7911 37.2188 30.6915 37.3712C30.5215 37.6465 30.6036 38.0098 30.879 38.1798C30.9727 38.2383 31.084 38.2676 31.1895 38.2676C31.3829 38.2676 31.5762 38.168 31.6876 37.9923C31.793 37.8223 31.8985 37.6524 31.9981 37.4825C32.168 37.2071 32.0743 36.8497 31.7989 36.6798ZM33.5801 31.7344C33.5098 31.9102 33.4395 32.0919 33.3692 32.2676C33.2462 32.5665 33.3868 32.9122 33.6856 33.0352C33.7618 33.0645 33.8379 33.0821 33.9083 33.0821C34.1368 33.0821 34.3536 32.9473 34.4473 32.7188C34.5235 32.5313 34.5997 32.3438 34.67 32.1622C34.7872 31.8633 34.6348 31.5235 34.336 31.4063C34.2481 31.3712 34.1602 31.3594 34.0723 31.3712L33.8262 31.4532C33.7208 31.5059 33.627 31.6055 33.5801 31.7344Z" fill="#F942FD"/>
<path id="Vector_4" d="M30.0293 8.00391L7.21289 24.5859L15.9258 51.4101H44.127L52.8399 24.5859L30.0293 8.00391ZM30.6153 11.332L49.5118 25.0605L46.9805 25.8926L30.6153 14.0039V11.332ZM30.6153 15.4512L45.6036 26.3437L35.461 29.6718C35.4961 29.5371 35.5254 29.3965 35.5547 29.2617C35.6192 28.9453 35.42 28.6347 35.1035 28.5703C34.7871 28.5058 34.4766 28.7051 34.4121 29.0215C34.377 29.1972 34.3301 29.3847 34.2832 29.5722C34.2422 29.7363 34.2774 29.9062 34.3594 30.0351L31.4414 30.9961C31.2364 30.709 30.9492 30.4922 30.6153 30.3691V15.4512ZM10.1895 26.1621L14.4551 27.5332C14.5313 27.1406 14.6543 26.7715 14.8301 26.4199L10.5586 25.0488L29.4434 11.3262V21.0058C29.4082 21 29.3789 20.9941 29.3438 20.9941C29.1328 20.9824 28.9219 20.9824 28.711 20.9883C28.3887 21 28.1309 21.2695 28.1426 21.5918C28.1543 21.914 28.418 22.1719 28.7461 22.1601C28.9278 22.1543 29.1094 22.1543 29.2852 22.166H29.3145C29.3614 22.166 29.4024 22.1601 29.4434 22.1484V30.3633C29.1504 30.4687 28.8985 30.6445 28.7051 30.8789L22.9219 29.0215C22.8574 29.414 22.7403 29.789 22.5762 30.1406L28.2949 31.9804V31.9922C28.2949 32.414 28.4473 32.8008 28.6992 33.0996L17.4141 48.3925L10.1895 26.1621ZM18.375 49.0664L29.7188 33.7031C29.8184 33.7207 29.9239 33.7324 30.0293 33.7324C30.1289 33.7324 30.2285 33.7207 30.3281 33.709L36.4864 42.2402C36.2578 42.6972 36.1289 43.2128 36.1289 43.7578C36.1289 45.6269 37.6465 47.1445 39.5157 47.1445C39.6797 47.1445 39.8438 47.1328 40.002 47.1093L41.4141 49.0722H18.375V49.0664ZM37.295 43.7519C37.295 43.6347 37.3067 43.5175 37.3243 43.4003C37.3946 42.9433 37.6114 42.5332 37.916 42.2168C38.3203 41.7949 38.8887 41.5371 39.5157 41.5371C40.7403 41.5371 41.7305 42.5332 41.7305 43.7519C41.7305 44.6308 41.2149 45.3925 40.4649 45.75C40.1778 45.8906 39.8555 45.9668 39.5098 45.9668C39.3868 45.9668 39.2696 45.955 39.1524 45.9375C38.1036 45.7675 37.295 44.8535 37.295 43.7519ZM42.5625 48.6562L41.1622 46.7109C42.1993 46.1308 42.9024 45.0234 42.9024 43.7519C42.9024 41.8828 41.3848 40.3652 39.5157 40.3652C38.6309 40.3652 37.8282 40.705 37.2246 41.2617L33.0938 35.5371C33.1231 35.5019 33.1524 35.4609 33.1758 35.4199C33.2696 35.2441 33.3633 35.0625 33.4512 34.8925C33.5977 34.6054 33.4805 34.2539 33.1934 34.1074C32.9063 33.9609 32.5547 34.0781 32.4082 34.3652C32.3848 34.4062 32.3614 34.4531 32.3438 34.4941L31.3477 33.1172C31.5821 32.8418 31.7285 32.4961 31.7578 32.1211L33.8262 31.4414C33.9024 31.3945 33.9844 31.3652 34.0723 31.3593L49.8633 26.1738L42.5625 48.6562Z" fill="#F942FD"/>
<path id="Vector_5" d="M21.1288 24.7266L21.082 24.7735C21.4101 24.9961 21.7031 25.2598 21.955 25.5586L21.9726 25.5411C22.1953 25.3067 22.1894 24.9376 21.955 24.7149C21.7265 24.4864 21.3574 24.4922 21.1288 24.7266ZM34.5995 26.2969C34.6171 26.4668 34.6288 26.6485 34.6347 26.8301C34.6405 27.1465 34.9042 27.3985 35.2206 27.3985H35.2382C35.5605 27.3926 35.8183 27.1231 35.8066 26.795C35.8007 26.5782 35.789 26.3672 35.7655 26.1622C35.7304 25.8399 35.4374 25.6114 35.121 25.6465C34.7929 25.6817 34.5644 25.9747 34.5995 26.2969ZM23.3202 24.1817C23.4374 24.1817 23.5605 24.1465 23.666 24.0704C23.8183 23.959 23.9706 23.8536 24.1288 23.7481C24.3984 23.5723 24.4745 23.209 24.2929 22.9336C24.1171 22.6641 23.748 22.5879 23.4785 22.7696C23.3085 22.8809 23.1386 22.9981 22.9745 23.1211C22.7109 23.3145 22.6523 23.6778 22.8456 23.9415C22.9628 24.0997 23.1445 24.1817 23.3202 24.1817ZM31.9101 22.7989C31.9862 22.834 32.0683 22.8516 32.1445 22.8516C32.3671 22.8516 32.5839 22.7227 32.6835 22.5001C32.8124 22.2012 32.6835 21.8555 32.3847 21.7266C32.1913 21.6446 31.998 21.5626 31.8046 21.4922C31.4999 21.3809 31.1659 21.5391 31.0546 21.8438C30.9433 22.1485 31.1015 22.4825 31.4062 22.5938C31.5702 22.6583 31.7402 22.7286 31.9101 22.7989ZM33.9374 24.3633C34.0487 24.5333 34.2362 24.627 34.4237 24.627C34.5351 24.627 34.6464 24.5977 34.746 24.5274C35.0155 24.3458 35.0859 23.9825 34.9101 23.7129C34.787 23.5313 34.6523 23.3497 34.4999 23.1856C34.2831 22.9454 33.914 22.9219 33.6737 23.1387C33.4335 23.3555 33.4101 23.7247 33.6269 23.9649C33.7382 24.0879 33.8437 24.2227 33.9374 24.3633ZM25.8749 22.7637C25.9452 22.7637 26.0156 22.752 26.0859 22.7227C26.2558 22.6583 26.4316 22.5938 26.6015 22.5352C26.912 22.4356 27.0761 22.1075 26.9824 21.7969C26.8827 21.4864 26.5546 21.3165 26.2441 21.4161C26.0507 21.4805 25.8515 21.5508 25.6581 21.627C25.3593 21.7442 25.207 22.084 25.3242 22.3887C25.4238 22.6231 25.6406 22.7637 25.8749 22.7637ZM33.8261 31.4415L34.0722 31.3594C33.9843 31.3711 33.9023 31.3946 33.8261 31.4415Z" fill="#F942FD"/>
<path id="Vector_6" d="M21.8086 28.336C21.8086 26.6133 20.4023 25.2071 18.6797 25.2071C17.5195 25.2071 16.5058 25.8458 15.9609 26.7891L21.791 28.6641C21.8027 28.5528 21.8086 28.4473 21.8086 28.336ZM15.5508 28.336C15.5508 30.0587 16.957 31.4649 18.6797 31.4649C19.8808 31.4649 20.9297 30.7794 21.4512 29.7833L15.58 27.8966C15.5625 28.0372 15.5508 28.1837 15.5508 28.336Z" fill="white"/>
<path id="Vector_7" d="M21.4511 29.7833C21.6328 29.4434 21.75 29.0626 21.791 28.6641L15.9609 26.7891C15.7675 27.1231 15.6386 27.4981 15.58 27.8965L21.4511 29.7833Z" fill="white"/>
<path id="Vector_8" d="M21.9551 25.5587C21.7031 25.2598 21.4102 24.9962 21.0821 24.7735C20.3965 24.3047 19.5645 24.0352 18.6738 24.0352C16.9922 24.0352 15.5274 25.0079 14.8242 26.42C14.6485 26.7657 14.5254 27.1407 14.4492 27.5333C14.4024 27.7911 14.3731 28.0606 14.3731 28.336C14.3731 30.7091 16.3008 32.6368 18.6738 32.6368C20.3965 32.6368 21.8906 31.6173 22.5762 30.1466C22.7403 29.795 22.8574 29.42 22.9219 29.0274C22.9571 28.8048 22.9805 28.5704 22.9805 28.336C22.9805 27.2755 22.5938 26.3087 21.9551 25.5587ZM21.791 28.6583C21.75 29.0567 21.6328 29.4376 21.4512 29.7774C20.9297 30.7735 19.8809 31.4591 18.6797 31.4591C16.957 31.4591 15.5508 30.0528 15.5508 28.3301C15.5508 28.1778 15.5625 28.0313 15.5801 27.8907C15.6387 27.4923 15.7676 27.1173 15.961 26.7833C16.5 25.8399 17.5137 25.2012 18.6797 25.2012C20.4024 25.2012 21.8086 26.6075 21.8086 28.3301C21.8086 28.4473 21.8028 28.5528 21.791 28.6583Z" fill="#06F3FF"/>
</g>
</svg>
