<svg xmlns="http://www.w3.org/2000/svg" width="900" height="900" id="collaborate"><linearGradient id="a" x1="379.943" x2="522.062" y1="669.776" y2="811.894" gradientUnits="userSpaceOnUse"><stop offset="0" stop-color="#efeeef"></stop><stop offset="1" stop-color="#fff"></stop></linearGradient><circle cx="451.002" cy="740.834" r="100.493" fill="url(#a)"></circle><path fill="#E2DCE3" d="M451.002 842.078c-1.298 0-2.609-.024-3.895-.074l.057-1.498c2.646.1 5.36.096 8.032-.014l.063 1.498c-1.414.059-2.846.088-4.257.088zm-12.021-.706c-2.692-.319-5.4-.751-8.049-1.283l.296-1.471c2.609.524 5.277.95 7.93 1.264l-.177 1.49zm24.399-.044-.182-1.488a99.605 99.605 0 0 0 7.925-1.292l.301 1.469a100.7 100.7 0 0 1-8.044 1.311zm-40.367-3.169a101.378 101.378 0 0 1-7.737-2.564l.529-1.404a99.841 99.841 0 0 0 7.622 2.527l-.414 1.441zm56.323-.1-.418-1.439a98.96 98.96 0 0 0 7.612-2.555l.535 1.402c-2.53.964-5.129 1.837-7.729 2.592zm-71.569-5.651a101.407 101.407 0 0 1-7.226-3.781l.749-1.301a99.874 99.874 0 0 0 7.119 3.727l-.642 1.355zm86.786-.15-.646-1.354a99.677 99.677 0 0 0 7.099-3.746l.754 1.297a101.484 101.484 0 0 1-7.207 3.803zm-100.909-7.984a101.978 101.978 0 0 1-6.524-4.891l.947-1.164a99.626 99.626 0 0 0 6.428 4.818l-.851 1.237zm114.992-.19-.855-1.232a100.653 100.653 0 0 0 6.409-4.838l.951 1.16a103.297 103.297 0 0 1-6.505 4.91zm-127.627-10.097a102.42 102.42 0 0 1-5.659-5.867l1.12-.998a100.768 100.768 0 0 0 5.576 5.781l-1.037 1.084zm140.224-.229-1.041-1.08a101.363 101.363 0 0 0 5.558-5.8l1.123.994a102.653 102.653 0 0 1-5.64 5.886zm-151.054-11.94a102.564 102.564 0 0 1-4.648-6.694l1.266-.805c1.433 2.25 2.974 4.47 4.58 6.595l-1.198.904zm161.845-.265-1.199-.9a99.87 99.87 0 0 0 4.561-6.613l1.268.801a101.846 101.846 0 0 1-4.63 6.712zM361.436 788.08a100.936 100.936 0 0 1-3.513-7.351l1.379-.592a99.157 99.157 0 0 0 3.46 7.241l-1.326.702zm179.293-.305-1.328-.695a100.585 100.585 0 0 0 3.439-7.262l1.381.587a101.523 101.523 0 0 1-3.492 7.37zm-185.713-14.654c-.863-2.567-1.631-5.2-2.282-7.825l1.456-.361a99.563 99.563 0 0 0 2.248 7.708l-1.422.478zm192.088-.349-1.424-.473a99.641 99.641 0 0 0 2.22-7.717l1.457.355c-.642 2.631-1.4 5.267-2.253 7.835zm-196.011-15.459c-.437-2.667-.77-5.389-.992-8.089l1.495-.123c.218 2.66.547 5.342.977 7.97l-1.48.242zm199.877-.364-1.48-.236c.421-2.637.74-5.319.947-7.974l1.496.117a102.2 102.2 0 0 1-.963 8.093zm-199.711-15.872h-1.5v-.238c0-2.72.108-5.459.323-8.147l1.495.119a101.49 101.49 0 0 0-.318 8.023v.243zm199.486-.362a101.08 101.08 0 0 0-.328-8.024l1.495-.121c.218 2.69.33 5.431.333 8.144l-1.5.001zm-198.211-15.877-1.48-.238c.431-2.673.976-5.36 1.621-7.988l1.457.357a100.208 100.208 0 0 0-1.598 7.869zm196.916-.118a100.007 100.007 0 0 0-1.607-7.867l1.457-.359a101.664 101.664 0 0 1 1.631 7.986l-1.481.24zm-193.089-15.465-1.423-.475a101.47 101.47 0 0 1 2.893-7.628l1.38.588a100.364 100.364 0 0 0-2.85 7.515zm189.244-.113a100.615 100.615 0 0 0-2.854-7.499l1.379-.59a101.12 101.12 0 0 1 2.897 7.612l-1.422.477zM362.66 694.483l-1.328-.697a100.937 100.937 0 0 1 4.084-7.06l1.267.803a99.793 99.793 0 0 0-4.023 6.954zm176.64-.087a101.044 101.044 0 0 0-4.026-6.944l1.266-.805a102.006 102.006 0 0 1 4.087 7.05l-1.327.699zm-168.049-13.475-1.198-.902a102.264 102.264 0 0 1 5.16-6.313l1.122.994a101.03 101.03 0 0 0-5.084 6.221zm159.449-.069a100.05 100.05 0 0 0-5.087-6.214l1.121-.996a101.752 101.752 0 0 1 5.163 6.308l-1.197.902zm-148.801-11.944-1.039-1.082a102.578 102.578 0 0 1 6.099-5.408l.949 1.162a101.203 101.203 0 0 0-6.009 5.328zm138.146-.057a100.071 100.071 0 0 0-6.015-5.324l.949-1.162a101.7 101.7 0 0 1 6.104 5.404l-1.038 1.082zM394.323 658.75l-.854-1.234a101.92 101.92 0 0 1 6.883-4.363l.751 1.299a98.758 98.758 0 0 0-6.78 4.298zm113.284-.05a99.645 99.645 0 0 0-6.788-4.296l.75-1.299a101.65 101.65 0 0 1 6.892 4.36l-.854 1.235zm-99.4-7.986-.645-1.355a101.254 101.254 0 0 1 7.491-3.198l.533 1.402a99.091 99.091 0 0 0-7.379 3.151zm85.498-.044a98.745 98.745 0 0 0-7.394-3.148l.531-1.402a100.52 100.52 0 0 1 7.505 3.195l-.642 1.355zm-70.503-5.652-.417-1.441a101.039 101.039 0 0 1 7.915-1.948l.299 1.471a98.258 98.258 0 0 0-7.797 1.918zm55.49-.033a99.697 99.697 0 0 0-7.799-1.91l.297-1.471c2.649.536 5.313 1.188 7.918 1.939l-.416 1.442zm-39.767-3.17-.18-1.488c2.68-.323 5.413-.543 8.123-.651l.061 1.498c-2.671.107-5.364.324-8.004.641zm24.041-.012a102.12 102.12 0 0 0-8.005-.634l.059-1.498c2.71.105 5.443.322 8.124.642l-.178 1.49z"></path><linearGradient id="b" x1="596.497" x2="773.483" y1="179.529" y2="179.529" gradientUnits="userSpaceOnUse"><stop offset="0" stop-color="#efeeef"></stop><stop offset="1" stop-color="#fff"></stop></linearGradient><circle cx="684.99" cy="179.528" r="88.493" fill="url(#b)"></circle><path fill="#E2DCE3" d="M684.99 268.772c-1.283 0-2.577-.027-3.847-.081l.064-1.499c2.591.111 5.256.107 7.873-.013l.068 1.498a90 90 0 0 1-4.158.095zm-11.82-.775a89.007 89.007 0 0 1-7.881-1.406l.33-1.463a87.462 87.462 0 0 0 7.748 1.382l-.197 1.487zm23.95-.042-.201-1.486a87.884 87.884 0 0 0 7.743-1.41l.334 1.462a89.297 89.297 0 0 1-7.876 1.434zm-39.554-3.476a88.958 88.958 0 0 1-7.504-2.801l.588-1.38a87.458 87.458 0 0 0 7.377 2.753l-.461 1.428zm55.146-.096-.465-1.426a87.92 87.92 0 0 0 7.361-2.777l.592 1.378a89.29 89.29 0 0 1-7.488 2.825zm-69.868-6.171a89.437 89.437 0 0 1-6.878-4.1l.824-1.253a88.507 88.507 0 0 0 6.763 4.032l-.709 1.321zm84.56-.143-.715-1.319a87.804 87.804 0 0 0 6.747-4.053l.83 1.25a89.645 89.645 0 0 1-6.862 4.122zm-97.923-8.656a89.842 89.842 0 0 1-6.038-5.259l1.035-1.086a88.47 88.47 0 0 0 5.937 5.171l-.934 1.174zm111.251-.186-.938-1.171a89.086 89.086 0 0 0 5.919-5.19l1.039 1.083a89.707 89.707 0 0 1-6.02 5.278zm-122.833-10.848a90.042 90.042 0 0 1-5.008-6.246l1.211-.885a88.635 88.635 0 0 0 4.924 6.142l-1.127.989zm134.379-.224-1.131-.986a87.772 87.772 0 0 0 4.904-6.159l1.215.881a90.257 90.257 0 0 1-4.988 6.264zm-143.816-12.691a89.536 89.536 0 0 1-3.813-7.038l1.35-.654a88.04 88.04 0 0 0 3.749 6.919l-1.286.773zm153.212-.258-1.287-.77a87.819 87.819 0 0 0 3.728-6.935l1.352.65a89.524 89.524 0 0 1-3.793 7.055zm-160.191-14.131a88.717 88.717 0 0 1-2.489-7.609l1.445-.401a87.332 87.332 0 0 0 2.446 7.48l-1.402.53zm167.123-.29-1.404-.525a87.455 87.455 0 0 0 2.42-7.489l1.447.396a88.716 88.716 0 0 1-2.463 7.618zm-171.405-15.122a89.93 89.93 0 0 1-1.082-7.932l1.494-.136a88.07 88.07 0 0 0 1.064 7.798l-1.476.27zm175.633-.306-1.477-.264a88.439 88.439 0 0 0 1.037-7.802l1.494.131a89.901 89.901 0 0 1-1.054 7.935zm-175.587-15.623h-1.5v-.206c0-2.669.119-5.359.354-7.996l1.494.133a89.343 89.343 0 0 0-.348 7.863v.206zm175.486-.305a89.383 89.383 0 0 0-.356-7.864l1.494-.135c.237 2.637.359 5.327.362 7.997l-1.5.002zm-174.091-15.564-1.477-.267a89.243 89.243 0 0 1 1.774-7.807l1.445.398a87.494 87.494 0 0 0-1.742 7.676zm172.679-.099a87.672 87.672 0 0 0-1.752-7.673l1.445-.399a88.798 88.798 0 0 1 1.783 7.805l-1.476.267zm-168.507-15.062-1.404-.527a89.988 89.988 0 0 1 3.149-7.363l1.352.651a87.817 87.817 0 0 0-3.097 7.239zm164.317-.094a87.56 87.56 0 0 0-3.103-7.231l1.35-.653a89.058 89.058 0 0 1 3.157 7.355l-1.404.529zm-157.485-14.076-1.287-.771a90.065 90.065 0 0 1 4.416-6.68l1.213.883a88.205 88.205 0 0 0-4.342 6.568zm150.64-.079a87.944 87.944 0 0 0-4.348-6.561l1.213-.884a90.224 90.224 0 0 1 4.422 6.673l-1.287.772zm-141.387-12.642-1.129-.987c1.748-2 3.609-3.947 5.532-5.788l1.037 1.084a89.606 89.606 0 0 0-5.44 5.691zm132.122-.067a88.492 88.492 0 0 0-5.445-5.685l1.035-1.085a89.922 89.922 0 0 1 5.539 5.782l-1.129.988zm-120.756-10.807-.936-1.172a89.506 89.506 0 0 1 6.472-4.712l.828 1.251a88.167 88.167 0 0 0-6.364 4.633zm109.38-.056a88.276 88.276 0 0 0-6.369-4.628l.826-1.252a89.734 89.734 0 0 1 6.479 4.707l-.936 1.173zm-96.264-8.622-.713-1.32a89.786 89.786 0 0 1 7.208-3.48l.592 1.379a87.294 87.294 0 0 0-7.087 3.421zm83.136-.045a87.521 87.521 0 0 0-7.094-3.416l.59-1.38a89.33 89.33 0 0 1 7.215 3.474l-.711 1.322zm-68.686-6.146-.463-1.427a89.224 89.224 0 0 1 7.717-2.129l.334 1.463a87.873 87.873 0 0 0-7.588 2.093zm54.22-.032a87.702 87.702 0 0 0-7.59-2.084l.332-1.463a89.034 89.034 0 0 1 7.721 2.12l-.463 1.427zm-38.888-3.462-.201-1.486a90.199 90.199 0 0 1 7.973-.713l.066 1.498a88.661 88.661 0 0 0-7.838.701zm23.551-.014a88.325 88.325 0 0 0-7.839-.691l.064-1.499c2.662.116 5.344.353 7.974.704l-.199 1.486z"></path><linearGradient id="c" x1="263.248" x2="464.764" y1="152.602" y2="354.117" gradientUnits="userSpaceOnUse"><stop offset="0" stop-color="#fff"></stop><stop offset="1" stop-color="#efeeef"></stop></linearGradient><circle cx="364.006" cy="253.357" r="142.493" fill="url(#c)"></circle><path fill="#E2DCE3" d="M364.01 396.602c-2.583 0-5.189-.069-7.752-.206l.08-1.498c2.536.135 5.116.204 7.668.204h.279v1.5h-.275zm8.306-.237-.086-1.498c2.641-.151 5.305-.378 7.919-.674l.169 1.49c-2.641.299-5.333.529-8.002.682zm-24.064-.619c-2.657-.291-5.333-.66-7.957-1.097l.247-1.479c2.595.433 5.244.798 7.873 1.085l-.163 1.491zm40.019-1.191-.252-1.479c2.602-.444 5.225-.968 7.794-1.557l.335 1.462a142.83 142.83 0 0 1-7.877 1.574zm-55.858-1.449a142.818 142.818 0 0 1-7.784-1.984l.411-1.442a140.73 140.73 0 0 0 7.702 1.963l-.329 1.463zm71.511-2.14-.417-1.44c2.535-.734 5.081-1.55 7.569-2.426l.498 1.415a143.548 143.548 0 0 1-7.65 2.451zM316.97 388.7a142.59 142.59 0 0 1-7.524-2.856l.571-1.387a142.03 142.03 0 0 0 7.445 2.826l-.492 1.417zm102.087-3.059-.577-1.385c2.426-1.01 4.86-2.106 7.236-3.256l.654 1.35a142.93 142.93 0 0 1-7.313 3.291zm-116.961-3.072a142.749 142.749 0 0 1-7.15-3.684l.725-1.313a141.428 141.428 0 0 0 7.075 3.645l-.65 1.352zm131.392-3.918-.729-1.312a142.708 142.708 0 0 0 6.83-4.05l.801 1.269a144.395 144.395 0 0 1-6.902 4.093zm-145.472-3.845a144.128 144.128 0 0 1-6.689-4.459l.867-1.225a143.286 143.286 0 0 0 6.619 4.414l-.797 1.27zm159.038-4.723-.87-1.222a142.592 142.592 0 0 0 6.338-4.79l.938 1.171a142.761 142.761 0 0 1-6.406 4.841zM274.9 365.521a144.342 144.342 0 0 1-6.147-5.176l.998-1.12a143.463 143.463 0 0 0 6.083 5.123l-.934 1.173zm184.687-5.47-1.002-1.117a142.3 142.3 0 0 0 5.769-5.469l1.063 1.06a145.98 145.98 0 0 1-5.83 5.526zm-196.681-5.216a144.249 144.249 0 0 1-5.53-5.826l1.116-1.002a143.285 143.285 0 0 0 5.473 5.765l-1.059 1.063zm208.023-6.153-1.119-.999a142.681 142.681 0 0 0 5.126-6.079l1.174.935a146.363 146.363 0 0 1-5.181 6.143zm-218.749-5.796a145.424 145.424 0 0 1-4.845-6.402l1.221-.871a143.775 143.775 0 0 0 4.795 6.335l-1.171.938zm228.76-6.772-1.225-.867a142.218 142.218 0 0 0 4.418-6.616l1.27.798a144.367 144.367 0 0 1-4.463 6.685zm-238.083-6.292a144.054 144.054 0 0 1-4.098-6.899l1.311-.729a142.705 142.705 0 0 0 4.055 6.827l-1.268.801zm246.629-7.321-1.313-.726a142.143 142.143 0 0 0 3.649-7.073l1.352.65a141.393 141.393 0 0 1-3.688 7.149zm-254.43-6.694a143.737 143.737 0 0 1-3.296-7.31l1.384-.578a142.028 142.028 0 0 0 3.262 7.234l-1.35.654zm261.4-7.801-1.387-.573a140.773 140.773 0 0 0 2.831-7.443l1.416.493a141.163 141.163 0 0 1-2.86 7.523zm-267.575-6.992a143.186 143.186 0 0 1-2.457-7.648l1.44-.418a141.063 141.063 0 0 0 2.431 7.567l-1.414.499zm272.861-8.188-1.441-.413c.724-2.53 1.387-5.121 1.969-7.7l1.463.33a141.655 141.655 0 0 1-1.991 7.783zm-277.338-7.235a143.579 143.579 0 0 1-1.579-7.876l1.479-.253c.444 2.597.97 5.219 1.562 7.793l-1.462.336zm280.875-8.43-1.479-.248c.435-2.599.802-5.248 1.091-7.873l1.49.164a141.145 141.145 0 0 1-1.102 7.957zm-283.587-7.397c-.302-2.647-.533-5.34-.687-8.002l1.497-.086c.152 2.634.381 5.299.68 7.918l-1.49.17zm285.346-8.564-1.498-.081c.139-2.563.209-5.175.209-7.762v-.185h1.5v.185c0 2.614-.071 5.253-.211 7.843zm-286.275-7.467v-.376c0-2.667.075-5.368.221-8.028l1.498.083a144.09 144.09 0 0 0-.219 7.945v.37l-1.5.006zm284.757-8.506a143.186 143.186 0 0 0-.669-7.92l1.49-.168c.298 2.64.525 5.332.677 8.003l-1.498.085zm-282.379-7.735-1.491-.166c.295-2.649.669-5.326 1.112-7.955l1.479.249c-.438 2.602-.808 5.25-1.1 7.872zm280.598-8.054a142.257 142.257 0 0 0-1.553-7.795l1.463-.334a144.303 144.303 0 0 1 1.568 7.877l-1.478.252zm-277.956-7.615-1.463-.332c.591-2.6 1.264-5.218 2-7.78l1.441.414a142.587 142.587 0 0 0-1.978 7.698zm274.415-7.876a141.27 141.27 0 0 0-2.421-7.571l1.416-.497c.881 2.51 1.704 5.084 2.446 7.651l-1.441.417zm-270.025-7.396-1.416-.495c.881-2.52 1.847-5.049 2.871-7.519l1.386.574a140.843 140.843 0 0 0-2.841 7.44zm264.766-7.581a142.224 142.224 0 0 0-3.252-7.238l1.35-.653a142.24 142.24 0 0 1 3.287 7.315l-1.385.576zm-258.67-7.123-1.351-.651c1.157-2.4 2.401-4.803 3.697-7.143l1.313.727a142.761 142.761 0 0 0-3.659 7.067zm251.763-7.161a141.901 141.901 0 0 0-4.046-6.833l1.27-.8a144.263 144.263 0 0 1 4.089 6.905l-1.313.728zm-244.054-6.756-1.27-.8a145.484 145.484 0 0 1 4.473-6.68l1.223.869a143.016 143.016 0 0 0-4.426 6.611zm235.585-6.674a143.346 143.346 0 0 0-4.786-6.342l1.172-.937a146.37 146.37 0 0 1 4.837 6.408l-1.223.871zm-226.372-6.287-1.172-.937a145.063 145.063 0 0 1 5.188-6.136l1.118 1a144.194 144.194 0 0 0-5.134 6.073zm216.453-6.121a143.412 143.412 0 0 0-5.466-5.772l1.061-1.062a144.314 144.314 0 0 1 5.522 5.833l-1.117 1.001zm-205.855-5.727-1.061-1.061a144.798 144.798 0 0 1 5.836-5.519l1 1.118a143.838 143.838 0 0 0-5.775 5.462zm194.609-5.505a144.055 144.055 0 0 0-6.075-5.13l.936-1.173a144.261 144.261 0 0 1 6.14 5.185l-1.001 1.118zm-182.764-5.086-.936-1.172a144.8 144.8 0 0 1 6.411-4.833l.869 1.223a143.91 143.91 0 0 0-6.344 4.782zm170.335-4.827a142.46 142.46 0 0 0-6.613-4.422l.799-1.27a143.88 143.88 0 0 1 6.683 4.469l-.869 1.223zm-157.39-4.374-.799-1.27a144.695 144.695 0 0 1 6.907-4.084l.728 1.312a143.4 143.4 0 0 0-6.836 4.042zm143.925-4.094a141.777 141.777 0 0 0-7.071-3.654l.651-1.352a143.066 143.066 0 0 1 7.145 3.693l-.725 1.313zm-130.041-3.598-.652-1.351a142.583 142.583 0 0 1 7.317-3.282l.575 1.386a141.306 141.306 0 0 0-7.24 3.247zm115.704-3.306a142.358 142.358 0 0 0-7.441-2.835l.494-1.416c2.52.879 5.05 1.843 7.521 2.866l-.574 1.385zm-101.056-2.774-.496-1.416a142.677 142.677 0 0 1 7.653-2.441l.415 1.441a142.673 142.673 0 0 0-7.572 2.416zm86.039-2.467a141.657 141.657 0 0 0-7.699-1.974l.331-1.463a142.36 142.36 0 0 1 7.781 1.995l-.413 1.442zm-70.77-1.933-.333-1.463a143.728 143.728 0 0 1 7.878-1.563l.251 1.479c-2.604.441-5.227.962-7.796 1.547zm55.272-1.577a141.069 141.069 0 0 0-7.872-1.096l.165-1.491c2.656.294 5.333.667 7.956 1.107l-.249 1.48zm-39.606-1.076-.167-1.49c2.642-.296 5.335-.522 8.003-.672l.084 1.498c-2.64.148-5.305.371-7.92.664zm23.813-.674a144.592 144.592 0 0 0-7.853-.214l-.092-1.5h.092c2.639 0 5.309.073 7.935.216l-.082 1.498z"></path><path fill="#6A74EF" d="M690.884 223.803c-10.477 0-19-8.523-19-19s8.523-19 19-19 19 8.523 19 19-8.524 19-19 19zm0-36c-9.374 0-17 7.626-17 17s7.626 17 17 17 17-7.626 17-17-7.626-17-17-17z"></path><linearGradient id="d" x1="687.369" x2="741.101" y1="502.984" y2="502.984" gradientUnits="userSpaceOnUse"><stop offset="0" stop-color="#eaaea4"></stop><stop offset=".313" stop-color="#e8a89d"></stop><stop offset=".782" stop-color="#e39688"></stop><stop offset="1" stop-color="#e08c7c"></stop></linearGradient><path fill="url(#d)" d="M740.596 527.719c1.22-1.926.472-12.736-4.953-19.694-4.639-5.95-9.877-13.279-9.306-19.04-3.177.602-6.449.92-9.444.054-5.662-1.637-21.463-11.202-23.231-12.736-1.77-1.532-6.292 23.33-6.292 23.33 4.759.846 27.643 6.994 36.363 15.114 6.203 5.777 10.575 10.796 13.783 14.989 1.227-.179 2.306-.795 3.08-2.017z"></path><linearGradient id="e" x1="726.294" x2="755.717" y1="516.021" y2="516.021" gradientUnits="userSpaceOnUse"><stop offset="0" stop-color="#895e68"></stop><stop offset="1" stop-color="#5b252c"></stop></linearGradient><path fill="url(#e)" d="M748.025 544.347c3.42 1.415 7.076.59 7.666-6.84.589-7.43-9.224-47.898-16.864-50.119-3.059-.89-7.662.684-12.49 1.597-.571 5.761 4.667 13.09 9.306 19.04 5.425 6.958 6.173 17.769 4.953 19.694-.773 1.223-1.853 1.838-3.08 2.017 6.547 8.56 8.213 13.66 10.509 14.611z"></path><path fill="#B07D7C" d="M747.774 544.971a.75.75 0 0 1-.088-1.495c1.426-.169 2.445-.729 3.114-1.71 2.559-3.749.078-13.261-2.793-24.274-4.186-16.055-13.092-27.792-15.35-29.326a.75.75 0 1 1 .844-1.24c2.707 1.84 11.714 13.908 15.957 30.188 3.086 11.837 5.523 21.187 2.581 25.499-.915 1.342-2.32 2.134-4.176 2.354a1.295 1.295 0 0 1-.089.004z"></path><path fill="#F2D265" d="M737.516 529.735c1.228-.179 2.307-.794 3.08-2.017 1.22-1.926.472-12.736-4.953-19.694-4.639-5.95-9.877-13.279-9.306-19.04-3.177.602-6.449.92-9.444.054-1.276-.368-3.069-1.143-5.098-2.133 1.443 10.067-1.137 16.011-4.118 18.917 6.256 2.465 12.399 5.521 16.056 8.924 6.203 5.777 10.575 10.796 13.783 14.989z"></path><radialGradient id="f" cx="638.418" cy="409.817" r="78.463" gradientUnits="userSpaceOnUse"><stop offset="0" stop-color="#5c60d5"></stop><stop offset="1" stop-color="#2421a2"></stop></radialGradient><path fill="url(#f)" d="M601.795 320.048c-5.66 9.906-32.232 100.16-26.572 129.878s39.31 34.906 79.875 43.24c34.081 7 37.03 7.312 37.03 7.312s3.883-7.62 7.075-20.048c2.708-10.543 3.555-16.825 3.066-18.633-.802-2.96-21.936-14.387-39.388-14.859-17.454-.472-40.803-7.076-40.803-10.377 0-3.302 26.888-74.059 24.058-105.191-13.407-16.929-44.341-11.322-44.341-11.322z"></path><linearGradient id="g" x1="692.953" x2="732.464" y1="602.57" y2="602.57" gradientUnits="userSpaceOnUse"><stop offset="0" stop-color="#eaaea4"></stop><stop offset=".313" stop-color="#e8a89d"></stop><stop offset=".782" stop-color="#e39688"></stop><stop offset="1" stop-color="#e08c7c"></stop></linearGradient><path fill="url(#g)" d="M727.192 631.061c2.146-6.115.866-19.386 5.271-25.187-1.123-.781-2.077-1.628-2.718-2.563-3.302-4.836-14.504-35.615-15.566-39.152-1.062-3.538-21.227 10.731-21.227 10.731 2.594 4.246 19.431 32.4 20.873 43.044 1.066 7.86 1.245 16.139 1.093 23.613 4.504-1.178 10.093-4.26 12.274-10.486z"></path><linearGradient id="h" x1="713.846" x2="745.389" y1="638.445" y2="638.445" gradientUnits="userSpaceOnUse"><stop offset="0" stop-color="#895e68"></stop><stop offset="1" stop-color="#5b252c"></stop></linearGradient><path fill="url(#h)" d="M713.944 666.52c.696 3.824 3.692 4.976 5.229 4.324 6.211-2.633 27.987-45.127 26.101-56.763-.457-2.817-8.125-4.951-12.81-8.207-4.405 5.801-3.126 19.071-5.271 25.187-2.182 6.227-7.771 9.309-12.273 10.486-.254 12.375-1.417 22.547-.976 24.973z"></path><path fill="#F2D265" d="M729.746 603.311c-1.321-1.936-3.907-8.026-6.604-14.861-4.601 9.109-11.32 11.779-15.777 12.499 3.264 6.661 5.925 13.032 6.461 16.985 1.066 7.86 1.245 16.139 1.093 23.613 4.503-1.178 10.092-4.26 12.273-10.486 2.146-6.115.866-19.386 5.271-25.187-1.122-.781-2.076-1.628-2.717-2.563z"></path><path fill="#B07D7C" d="M714.688 669.386a.749.749 0 0 1-.16-1.483c5.086-1.12 13.218-15.739 19.132-29.048 5.068-11.402 8.148-26.186 8.048-27.526a.736.736 0 0 1 .6-.861c.399-.076.801.206.879.612.253 1.337-3.045 16.888-8.155 28.385-3.771 8.485-13.287 28.386-20.181 29.903a.754.754 0 0 1-.163.018z"></path><linearGradient id="i" x1="593.439" x2="760.818" y1="356.234" y2="523.612" gradientUnits="userSpaceOnUse"><stop offset="0" stop-color="#6a74ef"></stop><stop offset=".202" stop-color="#616ae5"></stop><stop offset=".548" stop-color="#4a4ecc"></stop><stop offset=".994" stop-color="#2522a3"></stop><stop offset="1" stop-color="#2421a2"></stop></linearGradient><path fill="url(#i)" d="M675.663 315.653c2.077 12.178 15.157 32.557 17.487 50.465 2.751 21.148-7.391 70.914-6.447 79.64s7.075 15.095 8.019 25.001-1.886 20.991 1.415 31.604c3.303 10.614 16.981 24.058 22.171 31.605 5.188 7.548 9.198 18.633 8.727 21.699s-7.522 9.446-14.387 14.623c-6.429 4.847-17.336 10.377-19.458 8.491-2.123-1.888-16.393-23.822-26.063-39.624-9.67-15.803-23.939-38.72-31.604-66.04-9.199-32.784-14.859-108.258-14.388-144.58 17.392-14.564 54.528-12.884 54.528-12.884z"></path><path fill="#6A74EF" d="m717.177 558.368-.038-.001a.75.75 0 0 1-.712-.785c.004-.081.307-8.244-6.651-19.08-1.847-2.877-4.563-5.889-7.706-9.375-6.094-6.759-13.677-15.169-17.955-26.499-2.889-7.648-3.811-16.111-4.552-22.912-.456-4.184-.85-7.797-1.59-10.017-.708-2.125-1.814-4.051-2.986-6.091-2.275-3.959-4.854-8.446-5.375-15.823-.315-4.468.718-11.537 2.026-20.486 1.991-13.621 4.469-30.571 3.851-48.528-.717-20.864-3.81-27.706-7.724-36.367-1.646-3.642-3.512-7.77-5.358-13.379a.75.75 0 1 1 1.424-.469c1.822 5.532 3.591 9.445 5.302 13.229 3.982 8.813 7.128 15.773 7.856 36.933.622 18.092-1.867 35.117-3.866 48.796-1.296 8.86-2.318 15.858-2.015 20.164.497 7.033 2.984 11.362 5.179 15.182 1.211 2.106 2.354 4.097 3.11 6.363.79 2.373 1.191 6.06 1.657 10.329.731 6.716 1.643 15.074 4.463 22.545 4.18 11.065 11.657 19.359 17.666 26.023 3.188 3.536 5.941 6.59 7.854 9.569 7.24 11.275 6.905 19.616 6.888 19.966a.75.75 0 0 1-.748.713z"></path><path fill="#6A74EF" d="M688.996 573.924a.75.75 0 0 1-.125-1.489c5.081-.867 29.587-11.503 35.536-25.429a.749.749 0 1 1 1.379.589c-6.271 14.679-31.236 25.392-36.663 26.317a.607.607 0 0 1-.127.012z"></path><linearGradient id="j" x1="584.215" x2="695.735" y1="265.594" y2="265.594" gradientUnits="userSpaceOnUse"><stop offset="0" stop-color="#f2d265"></stop><stop offset="1" stop-color="#dcbb60"></stop></linearGradient><path fill="url(#j)" d="M686.206 207.582c-5.404-3.526-10.39-6.208-15.607-8.263-4.622 5.562-14.058 11.03-28.309 11.03-.226 0-.449-.001-.677-.004-15.917-.192-23.612-9.474-26.704-14.739-6.729 1.646-13.587 4.357-20.334 8.635-17.6 11.16-7.796 39.153-6.225 54.248 1.573 15.095 10.646 65.922 10.646 65.922s12.941 8.766 35.583 10.967c22.643 2.202 41.45-14.177 41.084-19.725a225.13 225.13 0 0 1-.28-5.668c-.472-11.95 14.151-59.122 17.454-68.556 3.301-9.434 6.445-25.315-6.631-33.847z"></path><path fill="#FFF" d="M641.613 210.345c.228.003.451.004.677.004 14.251 0 23.687-5.469 28.309-11.03a69.545 69.545 0 0 0-4.816-1.693c-4.285 4.264-12.285 8.149-24.111 8.002-12.325-.148-18.813-6.574-21.844-11.046-1.628.283-3.27.622-4.918 1.025 3.091 5.264 10.786 14.546 26.703 14.738z"></path><linearGradient id="k" x1="593.98" x2="686.767" y1="266.168" y2="266.168" gradientUnits="userSpaceOnUse"><stop offset="0" stop-color="#6a74ef"></stop><stop offset="1" stop-color="#2421a2"></stop></linearGradient><path fill="url(#k)" d="M662.882 282.311c-.561-19.088 10.55-57.899 23.885-74.339-.187-.13-.366-.264-.561-.391a105.361 105.361 0 0 0-7.021-4.227c-2.292 2.51-5.13 5.902-8.206 10.244-4.506 6.361-17.767 34.199-38.208 31.918-23.847-2.661-23.055-36.68-22.009-48.762a68.205 68.205 0 0 0-5.103 1.813c-3.489 7.013-6.7 18.858-7.323 29.339-.786 13.208 2.044 52.045-.315 62.423-.616 2.71-2.136 4.266-4.041 5.096 2.572 15.286 5.017 28.986 5.017 28.986s12.941 8.766 35.583 10.967c22.643 2.202 41.45-14.177 41.084-19.725a225.13 225.13 0 0 1-.28-5.668c-.033-.836.01-1.852.115-3.008-8.52-.229-12.181-9.819-12.617-24.666z"></path><linearGradient id="l" x1="593.871" x2="605.33" y1="151.286" y2="151.286" gradientUnits="userSpaceOnUse"><stop offset="0" stop-color="#eaaea4"></stop><stop offset=".313" stop-color="#e8a89d"></stop><stop offset=".782" stop-color="#e39688"></stop><stop offset="1" stop-color="#e08c7c"></stop></linearGradient><path fill="url(#l)" d="M594.685 147.814c-1.458 2.158-1.065 6.034 2.079 7.685 2.769 1.453 6.561 1.687 8.019-.472 1.459-2.158-.176-6.203-2.766-7.953-2.591-1.749-5.873-1.418-7.332.74z"></path><linearGradient id="m" x1="619.827" x2="665.782" y1="175.908" y2="175.908" gradientUnits="userSpaceOnUse"><stop offset="0" stop-color="#eaaea4"></stop><stop offset=".313" stop-color="#e8a89d"></stop><stop offset=".782" stop-color="#e39688"></stop><stop offset="1" stop-color="#e08c7c"></stop></linearGradient><path fill="url(#m)" d="M659.211 195.911c-1.978-17.247-7.577-43.701-10.392-49.727 0 0-22.489 20.358-20.608 31.17.977 5.619.944 11.45.61 16.203a81.558 81.558 0 0 0-8.994 1.024c3.031 4.472 9.519 10.898 21.844 11.046 11.826.147 19.826-3.738 24.111-8.002a77.11 77.11 0 0 0-6.571-1.714z"></path><linearGradient id="n" x1="595.102" x2="656.094" y1="145.928" y2="145.928" gradientUnits="userSpaceOnUse"><stop offset="0" stop-color="#fcc3bb"></stop><stop offset=".459" stop-color="#f6bcb4"></stop><stop offset="1" stop-color="#eaaea4"></stop></linearGradient><path fill="url(#n)" d="M655.4 141.697c-1.402-2.076-4.485-2.441-7.024-.912.31-5.769.604-14.728-2.005-17.677-3.615-4.088-14.857-15.488-35.928-9.355-21.07 6.132-14.309 24.214-14.309 24.214 1.101 6.29 10.849 43.398 31.604 41.865 15.155-1.12 19.283-21.346 20.211-30.3 1.605.635 3.654.422 5.4-.758 2.592-1.75 3.51-4.919 2.051-7.077z"></path><path fill="#6A74EF" d="M609.329 150.429a1.807 1.807 0 0 1-1.603 1.993 1.807 1.807 0 0 1-1.993-1.603l-.406-3.751a1.808 1.808 0 1 1 3.596-.389l.406 3.75zM635.764 144.905a1.808 1.808 0 1 1-3.596.39l-.406-3.75a1.809 1.809 0 1 1 3.596-.389l.406 3.749z"></path><linearGradient id="o" x1="614.22" x2="621.1" y1="151.698" y2="150.485" gradientUnits="userSpaceOnUse"><stop offset="0" stop-color="#e25ab8"></stop><stop offset="1" stop-color="#f6bcb4"></stop></linearGradient><path fill="url(#o)" d="M619.642 142.213c-.864 1.809-5.267 14.702-4.166 16.195 1.1 1.494 6.622.65 6.858.178.236-.471-.866-3.807-1.513-8.59-.635-4.695-1.179-7.783-1.179-7.783z"></path><path fill="#BE4118" d="M602.68 142.963a.75.75 0 0 1-.735-.901c.3-1.463 1.763-2.799 3.641-3.325 2.226-.625 4.417.006 6.017 1.727a.75.75 0 1 1-1.098 1.021c-1.709-1.838-3.725-1.524-4.515-1.304-1.308.367-2.392 1.285-2.576 2.183a.75.75 0 0 1-.734.599zM628.997 138.166a.75.75 0 0 1-.641-1.139c1.19-1.963 3.122-2.996 5.3-2.823 2.004.156 3.896 1.333 4.498 2.798a.75.75 0 1 1-1.387.57c-.339-.824-1.639-1.75-3.228-1.873-.937-.072-2.688.104-3.9 2.105a.747.747 0 0 1-.642.362z"></path><path fill="#FFF" d="M616.653 166.742c1.711.059 3.878-.03 7.076-.767 2.988-.688 6.172-3.518 6.172-3.518s-.032 7.651-4.049 8.53c-5.031 1.101-9.199-4.245-9.199-4.245z"></path><linearGradient id="p" x1="624.344" x2="624.344" y1="157.714" y2="70.727" gradientUnits="userSpaceOnUse"><stop offset="0" stop-color="#ae2e41"></stop><stop offset="1" stop-color="#dc6734"></stop></linearGradient><path fill="url(#p)" d="M661.29 141.387c-.825-8.432-5.562-10.652-6.427-13.09s2.554-4.835 1.139-10.653c-1.693-6.962-11.399-8.255-10.259-12.304.683-2.422 7.482-.013 12.265-2.909 4.284-2.595 2.127-9.21-2.123-9.434-3.734-.197-7.037 1.886-7.312-.393-.312-2.594 3.458-1.848 5.03-6.251 1.314-3.679-2.318-8.294-6.171-7.193-3.218.92-5.11 2.516-6.642 1.494-2.284-1.524-.237-5.622-3.225-8.57-2.613-2.579-7.822-1.375-10.535 2.673-2.984 4.455-2.268 10.692-4.323 11.321-1.927.59-1.69-1.71-4.05-1.946-4.881-.488-7.086 4.383-4.156 8.609 2.366 3.414 8.107 4.275 6.791 7.803-.799 2.142-8.461 3.79-14.859 5.818-8 2.535-13.955 6.78-15.723 13.208-1.904 6.922 1.688 11.585 1.531 14.337-.157 2.752-4.441 2.487-4.912 6.261-.401 3.207 3.624 6.408 7.063 8.168.084-.179.179-.354.291-.522.771-1.141 2.058-1.755 3.477-1.837-.373-1.182-.802-2.616-.986-3.513-1.449-7.05 5.879-14.167 10.36-18.255 4.48-4.087 5.738-7.312 5.738-7.312s1.73 3.381 8.963 9.985c7.232 6.604 9.749 3.38 17.532 5.346 6.31 1.593 7.71 4.84 8.517 8.608 2.555-1.594 5.697-1.24 7.115.86 1.459 2.158.541 5.328-2.05 7.078a6.398 6.398 0 0 1-3.191 1.105c.652 2.104 1.371 4.778 2.114 7.835 6.433-2.541 9.728-9.069 9.018-16.327z"></path><linearGradient id="q" x1="344.75" x2="640.909" y1="344.108" y2="344.108" gradientUnits="userSpaceOnUse"><stop offset="0" stop-color="#b5a8ae"></stop><stop offset="1" stop-color="#e3dde4"></stop></linearGradient><path fill="url(#q)" d="M635 213.426 384.5 192.5s12.5 78-9.75 163a628.177 628.177 0 0 1-30 87.532l197.16 2.638h-.001l.091-.003c11.25-.333 13.5 17.583 18 28.333s9.604 22.873 25.813 21.628c14.157-1.087 22.22-19.55 25.42-28.926 6.833-23.862 14.437-35.38 24.768-105.202C647.603 283.087 635 213.426 635 213.426z"></path><linearGradient id="r" x1="346.793" x2="472.528" y1="282.591" y2="408.326" gradientUnits="userSpaceOnUse"><stop offset="0" stop-color="#f2d265"></stop><stop offset="1" stop-color="#dcbb60"></stop></linearGradient><path fill="url(#r)" d="M461.739 373.723c13.571-46.786 16.406-91.693 16.239-122.431l-90.02-9.867c.39 30.192-1.997 71.242-13.208 114.074a628.177 628.177 0 0 1-30 87.532l91.842 1.229c8.511-20.016 17.388-43.786 25.147-70.537z"></path><circle cx="427.639" cy="308" r="33.75" fill="#EFEEEF"></circle><path fill="#E3DDE4" d="M450.326 366.568a4.75 4.75 0 0 1-5.333 4.084l-53.283-7.068a4.749 4.749 0 1 1 1.249-9.417l53.283 7.068a4.75 4.75 0 0 1 4.084 5.333zM443.982 391.103a4.749 4.749 0 0 1-5.333 4.084l-53.283-7.068a4.75 4.75 0 1 1 1.249-9.417l53.283 7.068a4.748 4.748 0 0 1 4.084 5.333z"></path><path fill="#5C60D5" d="M614.537 266.26 367.98 239.236l.02-31.903 246.558 23.42z"></path><path fill="#EA971D" d="M523.546 245.975a.842.842 0 0 1-.099-.005c-5.077-.5-7.402-3.717-9.454-6.555-1.979-2.738-3.848-5.324-8.027-5.736-4.182-.412-6.516 1.759-8.99 4.058-2.565 2.383-5.473 5.084-10.551 4.583-5.074-.5-7.398-3.716-9.449-6.554-1.978-2.738-3.846-5.323-8.023-5.735-4.194-.413-6.518 1.759-8.992 4.058-2.565 2.382-5.469 5.083-10.548 4.583-5.076-.5-7.4-3.717-9.451-6.555-1.978-2.738-3.847-5.323-8.025-5.735-4.174-.414-6.516 1.759-8.99 4.058-2.565 2.383-5.473 5.083-10.548 4.583s-7.398-3.717-9.449-6.554c-1.978-2.738-3.847-5.323-8.024-5.735-4.186-.416-6.517 1.758-8.991 4.058-2.565 2.382-5.469 5.083-10.548 4.583a1 1 0 0 1-.897-1.093.998.998 0 0 1 1.093-.897c4.179.408 6.516-1.76 8.991-4.058 2.565-2.382 5.475-5.082 10.548-4.582 5.075.5 7.398 3.716 9.449 6.554 1.978 2.737 3.846 5.323 8.024 5.735 4.173.409 6.516-1.759 8.99-4.058 2.565-2.382 5.478-5.079 10.548-4.583 5.075.5 7.399 3.716 9.45 6.554 1.979 2.738 3.847 5.324 8.026 5.736 4.18.41 6.516-1.759 8.99-4.058 2.565-2.383 5.471-5.084 10.55-4.583 5.074.5 7.398 3.716 9.449 6.554 1.978 2.738 3.846 5.323 8.023 5.735 4.195.413 6.519-1.76 8.993-4.058 2.565-2.382 5.468-5.085 10.549-4.582 5.075.5 7.4 3.717 9.451 6.555 1.979 2.738 3.849 5.324 8.028 5.736a.999.999 0 0 1-.096 1.993z"></path><path fill="#2421A2" d="M596.209 248.282a1.33 1.33 0 0 1-.155-.008l-44.108-4.532a1.5 1.5 0 1 1 .307-2.985l44.108 4.532a1.5 1.5 0 0 1-.152 2.993z"></path><circle cx="596.094" cy="246.896" r="8.229" fill="#EA971D"></circle><path fill="#FFF" d="M478.8 322.333a7 7 0 0 1 7-7h189.534a7 7 0 0 1 7 7V462.77a7 7 0 0 1-7 7H485.8a7 7 0 0 1-7-7V322.333z"></path><linearGradient id="s" x1="542.174" x2="670.06" y1="354.159" y2="482.045" gradientUnits="userSpaceOnUse"><stop offset="0" stop-color="#f2d265"></stop><stop offset="1" stop-color="#dcbb60"></stop></linearGradient><path fill="url(#s)" d="M675.334 315.333h-70.772c-4.359 2.025-7.765 5.11-9.339 10.056-3.559 11.185 1.441 22.117 6.186 27.2 4.745 5.083 10.506 14.912-1.017 17.284-11.523 2.373-26.1-3.008-36.264-3.897-15.507-1.356-36.435-1.779-46.179 13.218-7.208 11.094-1.694 21.691 6.396 23.174 6.171 1.13 12.752-1.78 15.253-7.626 2.304-5.39-.464-10.109-4.449-10.93-4.109-.847-7.996 1.947-8.812 4.534-.763 2.414.661 3.69 2.203 3.558 2.456-.213 3.515-2.372 4.489-1.355 1.246 1.301-.614 4.512-4.235 5.169-2.73.495-6.166-.148-6.95-5.084-.733-4.628 1.612-8.854 7.035-11.27 5.03-2.24 11.014-1.185 14.742 4.067 3.729 5.254 2.585 14.362-2.372 18.896-7.399 6.766-16.536 7.615-30.674 10.93-9.565 2.243-21.79 5.19-31.776 10.596v38.917a7 7 0 0 0 7 7h189.534a7 7 0 0 0 7-7V322.333a6.998 6.998 0 0 0-6.999-7z"></path><linearGradient id="t" x1="557.623" x2="622.159" y1="360.551" y2="425.087" gradientUnits="userSpaceOnUse"><stop offset="0" stop-color="#ea971d"></stop><stop offset="1" stop-color="#e9aa4a"></stop></linearGradient><path fill="url(#t)" d="M675.334 315.333h-10.37c-3.342 1.643-6.997 2.784-10.709 2.912-13.022.451-31.408-3.446-40.688 8.755-7.365 9.686-.635 20.419 3.558 25.8 2.833 3.632 7.19 16.819-5.337 20.208-15.506 4.194-29.632-1.296-39.653-3.179-12.415-2.33-21.733 1.568-23.387 6.482-2.796 8.313 8.706 10.351 8.007 21.479-.592 9.447-16.561 17.645-39.272 20.972-25.462 3.728-35.104 13.221-35.459 24.571-.339 10.843 7.499 16.097 17.03 16.989 9.128.852 20.927-1.203 21.578 9.445h34.943c-3.371-15.314 12.223-14.555 21.771-16.693 11.357-2.54 32.197-7.37 38.128-26.052 5.468-17.221-8.771-19.686-7.624-33.766 1.015-12.498 24.653-17.342 47.447-22.199 23.065-4.913 19.319-15.93 17.963-21.352 0 0-3.121-14.61 9.074-19.82v-7.554a7 7 0 0 0-7-6.998z"></path><linearGradient id="u" x1="618.888" x2="678.441" y1="414.109" y2="473.663" gradientUnits="userSpaceOnUse"><stop offset="0" stop-color="#ae2e41"></stop><stop offset="1" stop-color="#dc6734"></stop></linearGradient><path fill="url(#u)" d="M629.709 404.105c-4.194 9.956 9.785 12.371 6.947 31.349-2.523 16.874-31.35 14.576-40.67 20.165-5.557 3.336-6.234 9.619-5.875 14.15h85.223a7 7 0 0 0 7-7v-69.651c-10.484 6.495-47.241-1.796-52.625 10.987z"></path><linearGradient id="v" x1="608.358" x2="647.496" y1="389.233" y2="428.371" gradientUnits="userSpaceOnUse"><stop offset="0" stop-color="#dc6734"></stop><stop offset="1" stop-color="#ea971d"></stop></linearGradient><path fill="url(#v)" d="M673.26 349.708c1.356 5.422 5.103 16.439-17.963 21.352-22.794 4.857-46.433 9.701-47.447 22.199-1.146 14.08 13.092 16.545 7.624 33.766-5.931 18.683-26.771 23.513-38.128 26.052-9.548 2.139-25.142 1.379-21.771 16.693h34.536c-.359-4.531.318-10.814 5.875-14.15 9.32-5.589 38.146-3.291 40.67-20.165 2.838-18.978-11.142-21.394-6.947-31.349 5.384-12.783 42.141-4.492 52.625-10.987v-63.23c-12.195 5.208-9.074 19.819-9.074 19.819z"></path><linearGradient id="w" x1="634.159" x2="654.688" y1="335.757" y2="356.286" gradientUnits="userSpaceOnUse"><stop offset="0" stop-color="#dc6734"></stop><stop offset="1" stop-color="#ea971d"></stop></linearGradient><path fill="url(#w)" d="M659.958 329.796c-4.843.36-8.982 4.914-14.574 5.677-5.592.762-15.59 1.78-20.378 10.336-4.761 8.511-.303 21.298 9.66 22.115 13.429 1.102 16.903-11.1 20.461-14.87 3.241-3.433 8.025-7.009 11.056-11.559 2.999-4.502 1.117-12.245-6.225-11.699z"></path><linearGradient id="x" x1="561.11" x2="581.319" y1="409.923" y2="430.132" gradientUnits="userSpaceOnUse"><stop offset="0" stop-color="#dc6734"></stop><stop offset="1" stop-color="#ea971d"></stop></linearGradient><path fill="url(#x)" d="M548.756 443.617c7.827 1.541 20.335-.118 24.403-5.423 3.898-5.083 1.695-11.185 5.083-14.405 3.39-3.22 17.044-12.567 19.657-17.793 2.373-4.745.509-10.846-4.913-12.708-5.25-1.806-9.829.507-12.202 5.251-2.372 4.746-4.574 11.864-13.727 17.116-7.638 4.384-24.841 9.088-27.283 16.946-1.948 6.27 3.39 9.913 8.982 11.016z"></path><path fill="#5C60D5" d="M561.326 340.58c0 5.234-4.244 9.478-9.479 9.478h-48.48c-5.234 0-9.478-4.244-9.478-9.478v-1.458a9.478 9.478 0 0 1 9.478-9.478h48.48c5.234 0 9.479 4.243 9.479 9.478v1.458z"></path><path fill="#EFEEEF" d="M468.292 558.75v-.002l-1.59-.048-.299.186-8.966 1.177L430.5 572.75l-5.75 60.417h84.583c-23.275 0-14.069-74.739-41.041-74.417zM560 474c-4.5-10.75-6.75-28.667-18-28.333l-.091.003h.001-.001l-1.021-.014-.106.09-28.282 5.421-15.333 44.544h86.28l-.001-.004c-14.349-.064-19.174-11.5-23.446-21.707z"></path><linearGradient id="y" x1="409.639" x2="409.639" y1="633.167" y2="442.319" gradientUnits="userSpaceOnUse"><stop offset="0" stop-color="#b5a8ae"></stop><stop offset="1" stop-color="#e3dde4"></stop></linearGradient><path fill="url(#y)" d="m541.91 445.67-250.429-3.351c-8.601 13.889-13.016 45.765-12.147 68.348.398 10.346-.419 26.438-1.966 42.32l190.924 5.761v.002c26.972-.322 17.766 74.417 41.041 74.417 10.333 0 20.667-3.667 12.167-92.667-8.471-88.69 11.92-94.543 20.41-94.83z"></path><path fill="#E3DDE4" d="M440.231 748.444c.038-.038.064-.073.102-.111 19.999-19.667 15.696-74.716 13.812-103.225-1.992-30.135-10.311-82.275 11.521-86.109.912-.16 1.786-.239 2.626-.249v-.002l-204.779-6.179c-53.677 22.575-53.18 51.098-52.18 82.431.702 21.999-4.667 52-9.667 58.666l238.565 54.778z"></path><path fill="#FFF" d="M293.839 553.484c-16.423 9.298-21.346 26.11-22.311 45.693l121.359 8.99c-.511-33.388 8.921-43.116 19.141-51.117l-118.189-3.566z"></path><path fill="#F2D265" d="M394.37 630.386 271.565 618.56c.712 18.776 2.688 38.574.435 55.94-1.73 13.339-5.385 24.807-8.815 33.292l127.24 29.216c6.843-13.58 12.627-42.893 5.326-95.508-.542-3.896-1-7.597-1.381-11.114z"></path><path fill="#EFEEEF" d="M367.373 650.31a1.44 1.44 0 0 1-.146-.007l-77.885-7.5a1.5 1.5 0 0 1 .287-2.987l77.885 7.5a1.5 1.5 0 0 1-.141 2.994zM368.714 668.613c-.052 0-.105-.003-.158-.008l-78.648-8.231a1.5 1.5 0 1 1 .313-2.984l78.648 8.231a1.5 1.5 0 0 1-.155 2.992zM368.983 685.792a1.53 1.53 0 0 1-.164-.009l-79.315-8.596a1.5 1.5 0 1 1 .323-2.982l79.315 8.596a1.5 1.5 0 0 1-.159 2.991zM367.524 707.048a1.52 1.52 0 0 1-.232-.018l-79.583-12.36a1.5 1.5 0 0 1-1.252-1.713 1.51 1.51 0 0 1 1.712-1.252l79.583 12.36a1.5 1.5 0 0 1-.228 2.983z"></path><path fill="#EA971D" d="M314.508 586.983c1.588-9.662 4.751-18.253 10.609-25.07l-30.244-1.255c-5.637 6.671-8.734 15.014-10.327 24.378l29.962 1.947z"></path><path fill="#FFF" d="M393.151 479.936c-3.19 36.213-4.026 55.939-4.026 55.939l83.709 2.459s.84-19.649 3.971-56.524c1.348-15.878 4.601-28.111 7.866-36.906l-83.667-1.119c-3.222 8.461-6.465 20.397-7.853 36.151z"></path><path fill="#5C60D5" d="M409.333 427.667s-4.147 5.128-8.33 16.118l83.667 1.119c4.319-11.629 8.663-17.237 8.663-17.237h-84z"></path><path fill="#E3DDE4" d="M464.75 463.5h-52.5a1.5 1.5 0 1 1 0-3h52.5a1.5 1.5 0 0 1 0 3zM459.438 492.344h-.015l-52.5-.5a1.5 1.5 0 0 1-1.486-1.515 1.498 1.498 0 0 1 1.514-1.485l52.5.5a1.5 1.5 0 0 1-.013 3zM457.001 521.25h-.029l-52.5-1a1.5 1.5 0 0 1 .057-3l52.5 1c.828.016 1.487.7 1.472 1.528a1.503 1.503 0 0 1-1.5 1.472z"></path><circle cx="412.25" cy="462" r="5.75" fill="#BE4118"></circle><circle cx="406.931" cy="490.36" r="5.75" fill="#EA971D"></circle><circle cx="404.414" cy="518.721" r="5.75" fill="#6A74EF"></circle><linearGradient id="z" x1="664.692" x2="746.505" y1="313.521" y2="313.521" gradientUnits="userSpaceOnUse"><stop offset="0" stop-color="#eaaea4"></stop><stop offset=".313" stop-color="#e8a89d"></stop><stop offset=".782" stop-color="#e39688"></stop><stop offset="1" stop-color="#e08c7c"></stop></linearGradient><path fill="url(#z)" d="M746.492 278.419c-.234-4.683-10.583-21.805-25.851-39.361-12.947 3.509-20.488 17.736-21.917 22.179 10.08 9.608 19.857 19.886 20.213 21.545.471 2.201-1.285 16.614-7.104 31.551-5.816 14.937-16.073 32.64-18.667 33.583-1.19.434-1.77-.189-3.42-.897s-7.391-.393-7.391-.393v13.365s-5.111 4.56-8.255 6.683c-3.145 2.123-9.514 6.486-8.963 7.783.948 2.229 8.569-1.965 8.569-1.965s-3.459 3.184-5.818 4.835c-2.358 1.651-3.459 3.184-3.145 4.128.388 1.157 4.875.078 4.875.078s-1.102 1.494.235 2.044c1.338.55 5.032-.393 8.885-2.359 3.853-1.965 6.525-4.088 6.525-4.088s-.984 2.497-3.303 5.347c-1.162 1.429-4.639 4.107-3.695 5.228 1.839 2.183 13.443-9.081 17.335-13.798 3.892-4.717 6.88-10.377 8.767-15.41 1.887-5.031 12.957-13.189 25.645-33.954 12.656-20.71 16.755-40.639 16.48-46.124z"></path><path fill="#B07D7C" d="M681.882 360.165c.512-.41.979-.928 1.437-1.43a29.24 29.24 0 0 0 1.308-1.574c.816-1.075 1.618-2.219 2.062-3.408l.006-.016a.5.5 0 1 1 .922.387c-.635 1.357-1.54 2.426-2.463 3.477a29.01 29.01 0 0 1-1.453 1.501c-.509.479-1.005.957-1.603 1.366a.186.186 0 0 1-.222-.298l.006-.005zM673.401 372.469a95.516 95.516 0 0 0 2.4-1.756l1.18-.902c.384-.302.786-.615 1.118-.92l.007-.007a.501.501 0 1 1 .68.736c-.012.01-.023.021-.036.03-.433.331-.845.59-1.269.867l-1.269.799a96.943 96.943 0 0 1-2.569 1.542.23.23 0 0 1-.313-.084.237.237 0 0 1 .071-.305zM669.339 381.478c1.106-.494 2.169-1.154 3.219-1.792a58.827 58.827 0 0 0 3.078-2.044 38.317 38.317 0 0 0 2.9-2.259c.91-.799 1.805-1.657 2.42-2.616l.007-.01a.5.5 0 1 1 .842.54l-.016.023c-.786 1.088-1.757 1.904-2.739 2.687a38.867 38.867 0 0 1-3.07 2.147 59.91 59.91 0 0 1-3.208 1.9c-1.096.59-2.174 1.19-3.354 1.646a.117.117 0 0 1-.089-.216l.01-.006z"></path><path fill="#FFF" d="m720.642 239.059-.329-.381a152.981 152.981 0 0 0-3.838-4.22c-11.909 4.479-19.19 15.984-22.128 22.671a401.345 401.345 0 0 1 4.378 4.108c1.428-4.442 8.969-18.67 21.917-22.178z"></path><linearGradient id="A" x1="672.421" x2="716.475" y1="232.388" y2="232.388" gradientUnits="userSpaceOnUse"><stop offset="0" stop-color="#f2d265"></stop><stop offset="1" stop-color="#dcbb60"></stop></linearGradient><path fill="url(#A)" d="M686.301 207.647c.158.107.311.217.466.325-5.342 6.586-10.325 16.765-14.346 27.825 3.656 6.249 10.741 11.377 16.641 16.56a292.22 292.22 0 0 1 5.285 4.771c2.938-6.687 10.219-18.191 22.128-22.671-9.449-10.031-22.614-21.769-30.174-26.81z"></path><linearGradient id="B" x1="685.115" x2="685.686" y1="207.065" y2="207.065" gradientUnits="userSpaceOnUse"><stop offset="0" stop-color="#f2d265"></stop><stop offset="1" stop-color="#dcbb60"></stop></linearGradient><path fill="url(#B)" d="M685.686 207.248c-.187-.12-.387-.257-.565-.367l-.005.001.57.366z"></path><linearGradient id="C" x1="533.83" x2="576.838" y1="208.082" y2="208.082" gradientUnits="userSpaceOnUse"><stop offset="0" stop-color="#eaaea4"></stop><stop offset=".313" stop-color="#e8a89d"></stop><stop offset=".782" stop-color="#e39688"></stop><stop offset="1" stop-color="#e08c7c"></stop></linearGradient><path fill="url(#C)" d="M576.838 208.567C575.625 206.125 569.25 199.25 557 198s-17.139 2.635-18.625 3.75c-2 1.5-6 7.813-4 8.313s5.315-4.598 7.375-3.563c1.06.533-3.938 5.313-3 8.25.591 1.853 3.75-.438 3.75-.438s-1.261 2.62-.073 3.62 5.136-1.995 5.136-1.995-.25 2.813 2.25 2.438 11.607-10.543 13.991-10.896l13.034 1.088z"></path><path fill="#B07D7C" d="M547.452 215.818c.752-.982 1.412-2.183 2.134-3.266a61.67 61.67 0 0 1 2.238-3.267c.79-1.063 1.625-2.099 2.576-3.052.965-.921 2.005-1.888 3.518-2.227a.5.5 0 1 1 .219.977l-.028.005-.026.004c-1.102.178-2.174.998-3.107 1.842-.944.867-1.806 1.846-2.627 2.857a61.623 61.623 0 0 0-2.353 3.137c-.784 1.067-1.428 2.166-2.322 3.228a.16.16 0 0 1-.25-.199l.028-.039zM542.315 214.243c.38-.943.903-1.74 1.41-2.572.516-.82 1.06-1.623 1.63-2.409a28.718 28.718 0 0 1 1.832-2.285c.68-.718 1.327-1.459 2.39-1.946a.5.5 0 1 1 .417.911l-.03.013-.041.015c-.723.272-1.466.946-2.121 1.593a27.847 27.847 0 0 0-1.893 2.125 42.268 42.268 0 0 0-1.729 2.286c-.536.781-1.112 1.583-1.495 2.409l-.008.017a.197.197 0 0 1-.362-.157z"></path><path fill="#E3DDE4" d="M128.183 439.35h95.228v90.122h-95.228z"></path><path fill="#F2D265" d="M152.796 469.078a7.667 7.667 0 0 1 7.667-7.667h30.667a7.667 7.667 0 0 1 7.667 7.667v30.666a7.667 7.667 0 0 1-7.667 7.667h-30.667a7.667 7.667 0 0 1-7.667-7.667v-30.666z"></path><path fill="#FFF" d="M188.575 473.062a2.54 2.54 0 0 0-3.537.635l-9.383 13.487-10.407-8.919a2.008 2.008 0 0 0-2.861 2.795l11.386 13.922a3.366 3.366 0 0 0 5.549-.5l.062-.111 9.964-17.992a2.555 2.555 0 0 0-.773-3.317z"></path><linearGradient id="D" x1="186.768" x2="233.208" y1="358.131" y2="404.571" gradientUnits="userSpaceOnUse"><stop offset="0" stop-color="#eaaea4"></stop><stop offset=".313" stop-color="#e8a89d"></stop><stop offset=".782" stop-color="#e39688"></stop><stop offset="1" stop-color="#e08c7c"></stop></linearGradient><path fill="url(#D)" d="M242.595 312.673c-17.738 8.766-48.821 35.587-56.262 47.994-10.741 17.911-22.606 51.71-19.606 78.71 6.792 0 11.939-.043 11.939-.043s2 1.125 2.125 7.375c.1 4.999.155 7.792 2.333 7.542 2.167-.25 5.042-8.217 4.125-15.813-.875-7.25-5.466-8.998-4.5-16.438 2.5-19.25 18.653-41.142 23-46 2.882-3.221 26.159-23.428 41.75-29.5-4.519-10.36-5.752-26.729-4.904-33.827z"></path><linearGradient id="E" x1="235.409" x2="289.597" y1="323.222" y2="323.222" gradientUnits="userSpaceOnUse"><stop offset="0" stop-color="#2421a2"></stop><stop offset="1" stop-color="#250f50"></stop></linearGradient><path fill="url(#E)" d="M236.132 316.3c-1.882 7.575-.132 21.7 5.758 32.794 8.109-4.427 18.71-6.549 24.693-6.844 19.491-.962 23.013-44.901 23.013-44.901-9.885.119-30.995 5.091-53.464 18.951z"></path><path fill="#6A74EF" d="M241.891 349.844a.75.75 0 0 1-.663-.398c-6.241-11.753-7.658-25.943-5.824-33.326a.75.75 0 1 1 1.456.362c-1.792 7.213-.153 21.252 5.693 32.262a.75.75 0 0 1-.662 1.1z"></path><path fill="#EA971D" d="M247.475 347.196a.75.75 0 0 1-.691-.458c-4.693-11.117-6.481-29.507-4.9-34.3a.75.75 0 1 1 1.425.469c-1.326 4.02.086 21.946 4.857 33.247a.75.75 0 0 1-.691 1.042z"></path><linearGradient id="F" x1="134.838" x2="304" y1="539.417" y2="539.417" gradientUnits="userSpaceOnUse"><stop offset="0" stop-color="#5c60d5"></stop><stop offset=".588" stop-color="#2421a2"></stop><stop offset="1" stop-color="#250f52"></stop></linearGradient><path fill="url(#F)" d="M247.333 414.333c-2.67 4.941-6.712 18.443-10 30-2.732 9.604-4.196 16.419-9.333 28.167-5.586 12.773-13.833 25.001-19 34.834s-9.5 19.999-11.667 27.166-2 11.834-4.667 17.167-6.333 11.833-17.833 20.833-12.833 14.667-13 17-.479 5.5-2.646 8.5-15.854 12.332-20.854 22.666-3.167 29.5-3.167 29.5l18.5 14.334s2.719-1.846 6-3.417c3.573-1.711 9.6-3.446 13-7.25 4.917-5.5 14.833-26.083 21.5-34.667 10.714-13.796 13.167-34.165 31.167-51.499s26-37 37-52S280.5 480.25 287 468s17-47.75 17-47.75l-56.667-5.917z"></path><linearGradient id="G" x1="115" x2="155.136" y1="673.649" y2="673.649" gradientUnits="userSpaceOnUse"><stop offset="0" stop-color="#eaaea4"></stop><stop offset=".313" stop-color="#e8a89d"></stop><stop offset=".782" stop-color="#e39688"></stop><stop offset="1" stop-color="#e08c7c"></stop></linearGradient><path fill="url(#G)" d="m131.515 700.85.003.012c-.111-1.153-.128-2.13-.019-2.861 1.104-7.387 11.552-25.812 23.636-34.437-.042-3.125-4.073-8.501-9.146-12.218-6.13-4.491-11.057-4.908-11.057-4.908-1.92 3.631-16.058 31.188-19.933 33.563 4.001.624 12.531 6.073 16.516 20.849z"></path><linearGradient id="H" x1="99.714" x2="142.383" y1="714.918" y2="714.918" gradientUnits="userSpaceOnUse"><stop offset="0" stop-color="#dc6734"></stop><stop offset="1" stop-color="#ae2e41"></stop></linearGradient><path fill="url(#H)" d="M100.125 690.5c-1.886 5.746 2.75 16.375 13.25 33.75s22.375 26.583 25.5 25.5c4.299-1.49 3.709-6.92 3.042-10.503-.576-3.094-9.41-28.102-10.398-38.386l-.003-.012C127.53 686.074 119 680.625 115 680c-3.875 2.375-13.562 6.5-14.875 10.5z"></path><linearGradient id="I" x1="99.719" x2="140.708" y1="720.073" y2="720.073" gradientUnits="userSpaceOnUse"><stop offset="0" stop-color="#e9aa4a"></stop><stop offset="1" stop-color="#ea971d"></stop></linearGradient><path fill="url(#I)" d="M131.083 732.251c-4.25-5.166-7.5-10.25-12.167-23.167s-9.354-17.459-13.729-18.584c-2.643-.68-4.487.547-5.463 2.496-.175 6.132 4.516 16.137 13.651 31.254 10.5 17.375 22.375 26.583 25.5 25.5a5.056 5.056 0 0 0 1.221-.623c2.82-2.538-4.784-11.736-9.013-16.876z"></path><linearGradient id="J" x1="126.662" x2="155.136" y1="661.175" y2="661.175" gradientUnits="userSpaceOnUse"><stop offset="0" stop-color="#5c60d5"></stop><stop offset="1" stop-color="#2421a2"></stop></linearGradient><path fill="url(#J)" d="M155.136 663.563c-.042-3.125-4.073-8.501-9.146-12.218-6.13-4.491-11.057-4.908-11.057-4.908-.887 1.678-4.384 8.465-8.271 15.515 3.067.504 12.694 4.991 16.274 13.96 3.6-4.746 7.79-9.201 12.2-12.349z"></path><linearGradient id="K" x1="285.662" x2="285.662" y1="585.226" y2="410.099" gradientUnits="userSpaceOnUse"><stop offset="0" stop-color="#5c60d5"></stop><stop offset=".624" stop-color="#2421a2"></stop><stop offset="1" stop-color="#250f52"></stop></linearGradient><path fill="url(#K)" d="M326.667 419.667c2.667 7.5 25.882 99.285 19 116-5.542 13.458-40.929 28.602-49 31.499-7.572 2.718-15.667 3.501-20.5 7.334s-10 9.5-19.5 10.5-19.333-1.334-23.833-6.834-15.477-25.668-1.833-35.833c8.5-6.333 18.922-4.179 24.167-5.167 6.521-1.229 24.539-11.49 35.167-15.499C299.063 518.375 305 518 305 518s-5.166-13.834-12.833-28.167-30.5-51-22.5-77.667c34.583-7.416 57 7.501 57 7.501z"></path><linearGradient id="L" x1="208.754" x2="242.196" y1="573.106" y2="573.106" gradientUnits="userSpaceOnUse"><stop offset="0" stop-color="#eaaea4"></stop><stop offset=".313" stop-color="#e8a89d"></stop><stop offset=".782" stop-color="#e39688"></stop><stop offset="1" stop-color="#e08c7c"></stop></linearGradient><path fill="url(#L)" d="M241.625 565.5c-1.875-8.125-8.995-11.7-10.487-11.543-2.375.25-15.388 9.626-20.638 10.793-.479.106-1.069.156-1.746.172 2.71 2.42 4.485 6.247 2.913 14.079-1.197 5.966-1.927 10.354-2.17 13.258 2.156-4.071 4.519-7.168 6.628-8.134 5.902-2.702 21.875-3 23-3.5s4.375-7 2.5-15.125z"></path><linearGradient id="M" x1="182.783" x2="212.257" y1="602.957" y2="602.957" gradientUnits="userSpaceOnUse"><stop offset="0" stop-color="#ae2e41"></stop><stop offset="1" stop-color="#dc6734"></stop></linearGradient><path fill="url(#M)" d="M208.754 564.922c-4.71.11-13.643-1.425-19.254 3.203-8.285 6.833-6.625 60.5-6.5 64.375s1.729 9.048 6.875 8.625c8.625-.708 11.375-19.625 13.25-30.375 1.065-6.104 3.539-13.14 6.372-18.491.243-2.903.973-7.292 2.17-13.258 1.572-7.832-.202-11.659-2.913-14.079z"></path><linearGradient id="N" x1="182.783" x2="196.621" y1="605.074" y2="605.074" gradientUnits="userSpaceOnUse"><stop offset="0" stop-color="#e9aa4a"></stop><stop offset="1" stop-color="#ea971d"></stop></linearGradient><path fill="url(#N)" d="M192.5 612.5c.662-9.934 5.063-31.375 3.938-38.125-.86-5.158-4.954-5.54-8.13-4.843-6.926 10.786-5.426 59.291-5.308 62.968.104 3.218 1.235 7.318 4.559 8.38 5.347-2.235 4.36-19.652 4.941-28.38z"></path><path fill="#6A74EF" d="m240.8 562.106-1.18-.928c6.87-8.741 29.485-13.054 42.997-15.631l2.943-.562c14.303-2.725 35.918-6.843 42.263-20.061 8.849-18.435-13.044-98.228-23.747-112.876l1.211-.885c10.824 14.813 32.884 95.668 23.889 114.409-6.672 13.901-28.735 18.104-43.334 20.886l-2.943.562c-12.434 2.373-35.576 6.786-42.099 15.086z"></path><path fill="#250F52" d="M303.691 517.445a41.622 41.622 0 0 1 3.254-.423 36.869 36.869 0 0 1 3.294-.151c2.202.007 4.435.197 6.623.854a.75.75 0 0 1-.433 1.438l-.033-.011-.009-.003c-1.937-.69-4.057-.987-6.176-1.095a35.547 35.547 0 0 0-3.199-.009 40.862 40.862 0 0 0-3.204.259.434.434 0 0 1-.126-.858l.009-.001z"></path><linearGradient id="O" x1="217.563" x2="242.196" y1="568.314" y2="568.314" gradientUnits="userSpaceOnUse"><stop offset="0" stop-color="#5c60d5"></stop><stop offset="1" stop-color="#2421a2"></stop></linearGradient><path fill="url(#O)" d="M241.625 565.5c-1.875-8.125-8.995-11.7-10.487-11.543-1.592.168-7.965 4.436-13.576 7.583 3.867 2.903 8.561 9.256 3.585 21.137 7.124-1.393 17.097-1.66 17.977-2.052 1.126-.5 4.376-7 2.501-15.125z"></path><linearGradient id="P" x1="352.937" x2="362.312" y1="238.223" y2="238.223" gradientUnits="userSpaceOnUse"><stop offset="0" stop-color="#e08c7c"></stop><stop offset="1" stop-color="#e25ab8"></stop></linearGradient><path fill="url(#P)" d="M352.937 228.986c2.813 6.452 8.688 10.139 9.313 12.264s-3.625 5.438-6 6.188-3.313-18.452-3.313-18.452z"></path><linearGradient id="Q" x1="311.495" x2="357.588" y1="246.689" y2="246.689" gradientUnits="userSpaceOnUse"><stop offset="0" stop-color="#eaaea4"></stop><stop offset=".313" stop-color="#e8a89d"></stop><stop offset=".782" stop-color="#e39688"></stop><stop offset="1" stop-color="#e08c7c"></stop></linearGradient><path fill="url(#Q)" d="M343.75 213c11.125 10.125 18.928 46.148 9.875 58.875-9.301 13.075-21.925 7.175-21.925 7.175s-22.854-20.558-19.95-36.3c4.75-25.75 32-29.75 32-29.75z"></path><linearGradient id="R" x1="305.776" x2="338.503" y1="273.426" y2="300.888" gradientUnits="userSpaceOnUse"><stop offset="0" stop-color="#eaaea4"></stop><stop offset=".313" stop-color="#e8a89d"></stop><stop offset=".782" stop-color="#e39688"></stop><stop offset="1" stop-color="#e08c7c"></stop></linearGradient><path fill="url(#R)" d="M325.833 264.333c4.333 1.833 12.374 3.169 13.854 16.001s-.02 19.166-.02 19.166-12.333 7.833-23.833 5.833S304 300.167 304 300.167s8-19.167 7.833-30.667 14-5.167 14-5.167z"></path><path fill="#5C60D5" d="M351.243 235.689c.271 1.219.001 2.223-1.002 2.523a1.899 1.899 0 0 1-2.363-1.274l-1.548-5.684a1.898 1.898 0 0 1 3.637-1.088l1.276 5.523z"></path><path fill="#BE4118" d="M354.281 262.356c-1.611 0-2.693-.553-3.3-.995-1.157-.841-1.868-2.174-1.813-3.396a.75.75 0 1 1 1.498.068c-.027.6.332 1.486 1.196 2.114 1.218.885 3.039.942 5.124.159a.75.75 0 1 1 .528 1.404c-1.252.471-2.326.646-3.233.646z"></path><linearGradient id="S" x1="292.968" x2="361.234" y1="222.656" y2="222.656" gradientUnits="userSpaceOnUse"><stop offset="0" stop-color="#5b252c"></stop><stop offset=".186" stop-color="#60262b"></stop><stop offset=".394" stop-color="#6d2a28"></stop><stop offset=".612" stop-color="#833024"></stop><stop offset=".835" stop-color="#a2391e"></stop><stop offset="1" stop-color="#be4118"></stop></linearGradient><path fill="url(#S)" d="M324.083 241.083c1.289-1.759 4.75-2.5 6.75-.083s2.583 4.167 4 3.583 5.75-3.083 4.917-9c-.699-4.962-.82-8.648.25-11.917 1.467-4.483 10.5-6.479 16.5-20.979s5.553-26.661 2.75-27.313c-2.688-.625-3.313 3.813-4.188 3.313s-.438-4.625-4.813-4.313c-6.171.441-10.587 10.342-15.688 12.563-3.875 1.688-11.582.42-17.75 6.25-5.688 5.375-3.688 8.875-6.938 12.375S292.2 216.925 293 233.125c.833 16.875 8.461 21.628 12.083 27.458 3.05 4.91 4.022 9.561 5.647 10.186s17.847.049 19.019-7.686c.563-3.712-.583-8.792-4.083-12.667s-3.284-7.011-1.583-9.333z"></path><linearGradient id="T" x1="453.916" x2="511.504" y1="255.417" y2="313.004" gradientUnits="userSpaceOnUse"><stop offset="0" stop-color="#eaaea4"></stop><stop offset=".313" stop-color="#e8a89d"></stop><stop offset=".782" stop-color="#e39688"></stop><stop offset="1" stop-color="#e08c7c"></stop></linearGradient><path fill="url(#T)" d="M543.821 258.509c-2.179 1.834-9.072 4.823-10.196 3.741-.806-.775 1.375-2.75 3.875-6.125s5.209-9.333 3.125-9.75c-1.608-.321-5.5 3.75-7.5 5.5s-5.291 3.208-8.458 6.292c-2.949 2.872-2.834 4.667-6.167 7.25-3.143 2.436-37.5 17.083-70.5 24.083-9.921 2.104-20.825 3.086-31.649 3.48 3.507 7.629 5.774 20.209 2.259 31.74 13.764-3.215 29.223-7.431 44.057-13.053 36.5-13.833 59.666-32.5 65.166-34.833s10.5-2.917 18.5-6c5.313-2.047 14.433-8.078 17.475-10.134l-19.987-2.191z"></path><linearGradient id="U" x1="228.583" x2="420.371" y1="359.263" y2="359.263" gradientUnits="userSpaceOnUse"><stop offset="0" stop-color="#2421a2"></stop><stop offset="1" stop-color="#250f50"></stop></linearGradient><path fill="url(#U)" d="M416.351 292.98c-25.179.917-49.924-1.367-60.851-.23-12.684 1.319-15.653 5.765-39 5.5-4.854-.055-21.069-1.478-26.732-1.119-4.518.286-8.351 2.619-12.101 9.536-6.326 11.67-17.833 55-32.333 75.667-10.249 14.608-17.62 35.313-16.667 37.667.708 1.75 6.579-.434 12-.667 13.583-.583 24.833 2.792 47.667 5.333 22.821 2.541 40.667 1.667 41.333-2.333s11.667-24.333 27.667-51 13-34.333 17.333-37c2.71-1.667 20.962-4.245 43.944-9.613 3.514-11.532 1.247-24.112-2.26-31.741"></path><path fill="#EA971D" d="M411.479 327.084a.75.75 0 0 1-.657-1.11c5.561-10.176.222-29.442-2.229-32.324a.75.75 0 1 1 1.142-.972c3.13 3.682 8.109 23.571 2.402 34.016a.749.749 0 0 1-.658.39z"></path><linearGradient id="V" x1="228.583" x2="367.336" y1="385.344" y2="385.344" gradientUnits="userSpaceOnUse"><stop offset="0" stop-color="#dc6734"></stop><stop offset="1" stop-color="#ae2e41"></stop></linearGradient><path fill="url(#V)" d="M262.268 347.252c-4.97 13.004-10.672 26.156-16.934 35.082-10.249 14.608-17.62 35.313-16.667 37.667.708 1.75 6.079 3.066 11.5 2.833 13.583-.583 24.833 2.792 47.667 5.333 22.821 2.541 40.667 1.667 41.333-2.333s12.167-27.833 28.167-54.5c4.823-8.038 7.912-14.339 10.003-19.308-20.543-.485-52.309-10.131-69.336-10.859-16.227-.694-29.445 3.341-35.733 6.085z"></path><path fill="#6A74EF" d="M418.611 325.47a.75.75 0 0 1-.718-.969c3.567-11.703 1.032-24.126-2.224-31.208a.751.751 0 0 1 1.363-.627c3.365 7.322 5.985 20.167 2.295 32.272a.748.748 0 0 1-.716.532zM367.337 352.775h-.018c-11.108-.263-25.262-3.143-38.95-5.929-11.614-2.363-22.584-4.596-30.401-4.93-18.241-.786-31.709 4.413-35.4 6.023a.75.75 0 0 1-.599-1.375c3.765-1.643 17.485-6.941 36.064-6.147 7.935.339 18.962 2.583 30.636 4.959 13.624 2.773 27.711 5.64 38.686 5.899a.75.75 0 0 1-.018 1.5z"></path><path fill="#EA971D" d="m369.025 348.51-.061-.002c-9.072-.73-23.43-3.578-37.315-6.333-12.305-2.441-23.927-4.747-30.375-5.26-16.915-1.342-31.102 3.954-35.764 5.695-.487.182-.871.325-1.143.418a.75.75 0 0 1-.485-1.419c.263-.09.633-.229 1.104-.404 4.739-1.771 19.156-7.162 36.408-5.785 6.536.521 18.2 2.834 30.548 5.284 13.843 2.746 28.157 5.585 37.143 6.309a.75.75 0 0 1-.06 1.497z"></path><path fill="#FFF" d="m502.26 696.425 32.042-17.01 17.01 32.042-32.042 17.01z"></path><path fill="#E3DDE4" d="m534.27 679.395-32.041 17.008 10.105-20.565 30.49-16.183z"></path><path fill="#6A74EF" d="m534.27 679.393 8.554-19.738 16.318 30.739-7.862 21.04z"></path><path fill="#B5A8AE" d="M527.814 707.18a.505.505 0 0 1-.447-.275l-15.48-30.842a.501.501 0 0 1 .895-.449l15.253 30.389 30.877-16.052a.497.497 0 0 1 .674.213.5.5 0 0 1-.213.674l-31.327 16.286a.509.509 0 0 1-.232.056z"></path><path fill="#B5A8AE" d="M519.24 728.942a.499.499 0 0 1-.465-.683l8.574-21.763a.499.499 0 1 1 .929.367l-8.574 21.763a.498.498 0 0 1-.464.316z"></path><path fill="#B5A8AE" d="M519.24 728.942a.498.498 0 0 1-.441-.266l-17.011-32.039a.5.5 0 0 1 .207-.676l32.04-17.009a.5.5 0 0 1 .676.207l17.01 32.039a.5.5 0 0 1-.207.676l-32.039 17.009a.488.488 0 0 1-.235.059zm-16.335-32.332 16.542 31.156 31.156-16.54-16.541-31.156-31.157 16.54z"></path><path fill="#F2D265" d="M502.229 696.903a.503.503 0 0 1-.45-.721l10.104-20.565a.505.505 0 0 1 .215-.221l30.49-16.183a.501.501 0 0 1 .693.64l-8.555 19.739a.495.495 0 0 1-.225.242l-32.04 17.009a.462.462 0 0 1-.232.06zm10.482-20.699-9.352 19.033 30.521-16.202 7.917-18.27-29.086 15.439z"></path><path fill="#F2D265" d="M551.28 711.934a.499.499 0 0 1-.441-.266l-17.011-32.041a.504.504 0 0 1-.018-.434l8.555-19.737a.5.5 0 0 1 .9-.035l16.317 30.738a.5.5 0 0 1 .027.409l-7.861 21.04a.499.499 0 0 1-.437.324c-.009.002-.02.002-.031.002zm-16.456-32.563 16.377 30.847 7.394-19.788-15.725-29.622-8.046 18.563z"></path><path fill="#6A74EF" d="M490.327 146.781a.717.717 0 0 0-.006-.173c-.001-.011.001-.021-.002-.031a.715.715 0 0 0-.063-.193c-.005-.011-.015-.02-.021-.03a.687.687 0 0 0-.099-.139l-.003-.005-14.038-14.735a.702.702 0 0 0-.363-.19c-.014-.004-.027-.005-.041-.008-.039-.006-.075-.024-.115-.024l-14.691-.003a.702.702 0 0 0-.752 0l-15.062-.003c-.032 0-.062.015-.093.019-.049.007-.096.013-.142.029-.042.014-.078.036-.116.058a.702.702 0 0 0-.121.083c-.013.011-.03.016-.042.028l-14.388 14.73-.008.011c-.028.029-.049.064-.071.099-.016.023-.035.044-.047.069l-.004.006c-.018.035-.025.074-.036.111-.008.026-.021.05-.025.077a.711.711 0 0 0-.008.19c.002.025.011.05.015.075.009.045.017.09.034.132l.002.011c.008.019.023.033.033.052.019.037.035.074.061.107l29.814 38.814c.005.007.013.01.019.017a.733.733 0 0 0 .189.167c.066.039.14.063.216.078.05.01.099.02.15.02l.008-.002a.719.719 0 0 0 .278-.067l.052-.025a.707.707 0 0 0 .22-.184c.003-.004.009-.005.012-.01l29.117-38.801c.028-.038.047-.08.066-.121.006-.01.014-.018.018-.028l.002-.006a.795.795 0 0 0 .046-.172c-.001-.013.004-.022.005-.033zm-29.837 36.952-16.243-36.317 32.168.006-15.925 36.311zm15.995-38.884-13.925-12.162 12.336.002 1.589 12.16zm-31.399 1.129 15.419-13.181 15.096 13.187-30.515-.006zm-.991-1.043 1.606-12.251 12.721.002-14.327 12.249zm-1.586 1.043-10.12-.001 11.688-11.966-1.568 11.967zm35.575.007-1.566-11.984 11.418 11.985-9.852-.001zm-35.41 1.431 14.678 32.816-25.211-32.819 10.533.003zm20.973 32.697 14.338-32.69 10.19.002-24.528 32.688zM221.071 284.802c-10.477 0-19-8.523-19-19s8.523-19 19-19 19 8.523 19 19-8.523 19-19 19zm0-36c-9.374 0-17 7.626-17 17s7.626 17 17 17 17-7.626 17-17-7.626-17-17-17z"></path><path fill="#EA971D" d="M220.211 742.15c-.377 0-.722-.212-.893-.549l-15.333-30.334a1 1 0 0 1 .292-1.25l46.903-35.282a1 1 0 0 1 1.502 1.232l-31.57 65.616a.998.998 0 0 1-.891.566l-.01.001zm-14.063-31.038 14.042 27.777 28.909-60.086-42.951 32.309zM716.169 108.722a1.002 1.002 0 0 1-.984-.819l-4.543-24.667a.999.999 0 0 1 1.512-1.03l31.208 19.438a1 1 0 0 1-.336 1.83l-26.665 5.228a.955.955 0 0 1-.192.02zm-3.149-23.62 3.949 21.444L740.151 102 713.02 85.102z"></path><path fill="#6A74EF" d="M520.444 563.333c-11.579 0-21-9.421-21-21s9.421-21 21-21 21 9.421 21 21-9.421 21-21 21zm0-40c-10.477 0-19 8.523-19 19s8.523 19 19 19 19-8.523 19-19-8.523-19-19-19z"></path><path fill="#5C60D5" d="m276.13 184.023 15.465-25.976-26.107-9.945-16.623 27.247z"></path><path fill="#FFF" d="m265.488 148.102-16.623 27.247-13.531-20.532 16.356-23.942z"></path><path fill="#E3DDE4" d="m291.595 158.047-14.614-17.661-25.291-9.511 13.798 17.227z"></path><path fill="#B5A8AE" d="M276.13 184.523a.499.499 0 0 1-.395-.193l-14.145-18.147a.5.5 0 0 1-.037-.561l14.996-25.49a.5.5 0 1 1 .863.507l-14.824 25.197 13.936 17.879a.5.5 0 0 1-.394.808z"></path><path fill="#B5A8AE" d="M261.985 166.376a.493.493 0 0 1-.191-.038l-26.651-11.059a.5.5 0 0 1 .382-.924l26.651 11.059a.5.5 0 0 1-.191.962z"></path><path fill="#B5A8AE" d="M248.865 175.849a.497.497 0 0 1-.417-.225l-13.531-20.532a.5.5 0 0 1 .004-.557l16.356-23.941a.5.5 0 0 1 .803-.03l13.798 17.227a.5.5 0 0 1 .037.573l-16.624 27.247a.5.5 0 0 1-.418.24c-.002-.002-.005-.002-.008-.002zm-12.929-21.027 12.913 19.594 16.03-26.274-13.157-16.426-15.786 23.106z"></path><path fill="#F2D265" d="M291.595 158.547a.5.5 0 0 1-.178-.033l-26.106-9.945a.502.502 0 0 1-.212-.155L251.3 131.188a.5.5 0 0 1 .566-.78l25.291 9.51c.082.03.154.082.209.149l14.614 17.662a.5.5 0 0 1-.385.818zm-25.802-10.864L290 156.905l-13.32-16.098-23.462-8.822 12.575 15.698z"></path><path fill="#F2D265" d="M276.13 184.523a.522.522 0 0 1-.151-.023l-27.265-8.675a.503.503 0 0 1-.275-.737l16.624-27.247a.5.5 0 0 1 .605-.207l26.106 9.945a.5.5 0 0 1 .252.723l-15.465 25.976a.503.503 0 0 1-.431.245zm-26.506-9.458 26.28 8.361 14.958-25.124-25.162-9.585-16.076 26.348z"></path></svg>