<svg width="800" height="600" viewBox="0 0 800 600" fill="none" xmlns="http://www.w3.org/2000/svg">
<path d="M124.48 426.53C124.48 426.53 103.23 415.35 95.86 399.06C88.49 382.78 95.69 359.96 93.47 352.3C107.07 366.68 115.43 370.85 121.37 387.44C127.31 404.04 125.58 421.87 124.48 426.53ZM146.87 453.68C146.87 453.68 124.99 471.02 101.96 454.28C85.86 440.72 75.15 422.22 75.15 422.22C75.15 422.22 101.03 425.71 113.98 428.76C126.92 431.81 142.23 446.78 146.87 453.68ZM694.08 426.53C694.08 426.53 715.33 415.35 722.7 399.06C730.07 382.78 722.87 359.96 725.09 352.3C711.49 366.68 703.13 370.85 697.19 387.44C691.25 404.04 692.97 421.87 694.08 426.53ZM671.68 453.68C671.68 453.68 693.56 471.02 716.59 454.28C732.69 440.72 743.4 422.22 743.4 422.22C743.4 422.22 717.52 425.71 704.57 428.76C691.63 431.81 676.32 446.78 671.68 453.68Z" fill="#00759F"/>
<path d="M228.55 517.95C228.55 517.95 206.93 536.61 151.15 522.53C110.49 512.27 76.99 472.12 76.99 472.12C76.99 472.12 156.81 441.9 228.55 517.95Z" fill="#00759F"/>
<path d="M226.74 520.46C226.74 520.46 183.76 515.46 142.31 438.77C112.09 382.88 122.56 304.34 122.56 304.34C122.56 304.34 238.09 362.44 226.74 520.46Z" fill="#741AAC"/>
<path d="M225.09 518.88C225.09 518.88 190.91 492.36 195.12 405.29C198.19 341.83 247.8 280.05 247.8 280.05C247.8 280.05 316.59 389.55 225.09 518.88Z" fill="#741AAC"/>
<path d="M586.88 514.71C586.88 514.71 608.23 533.13 663.31 519.23C703.46 509.1 736.55 469.45 736.55 469.45C736.55 469.45 657.73 439.6 586.88 514.71Z" fill="#00759F"/>
<path d="M590.01 520.46C590.01 520.46 632.99 515.46 674.44 438.77C704.66 382.88 694.18 304.34 694.18 304.34C694.18 304.34 578.66 362.44 590.01 520.46Z" fill="#741AAC"/>
<path d="M591.66 518.88C591.66 518.88 625.84 492.36 621.63 405.29C618.56 341.83 568.95 280.05 568.95 280.05C568.95 280.05 500.16 389.55 591.66 518.88Z" fill="#741AAC"/>
<path d="M701.06 294.15C701.06 134.06 571.28 4.28 411.18 4.28C251.09 4.28 121.3 134.06 121.3 294.15C121.3 385.47 163.55 515.08 229.54 568.21H592.81C658.81 515.08 701.06 385.47 701.06 294.15Z" fill="url(#paint0_linear_28_64)"/>
<path d="M377.98 93.48C377.985 93.6325 377.959 93.7843 377.903 93.9266C377.848 94.0688 377.765 94.1985 377.659 94.308C377.553 94.4175 377.426 94.5045 377.285 94.564C377.145 94.6235 376.994 94.6542 376.841 94.6543C376.688 94.6543 376.537 94.6238 376.397 94.5644C376.256 94.5051 376.129 94.4181 376.023 94.3087C375.917 94.1993 375.833 94.0697 375.778 93.9275C375.723 93.7853 375.697 93.6335 375.701 93.481C375.71 93.1846 375.833 92.9033 376.046 92.6967C376.259 92.49 376.544 92.3744 376.84 92.3743C377.137 92.3741 377.421 92.4895 377.634 92.696C377.847 92.9024 377.971 93.1836 377.98 93.48ZM459.74 164.14C459.74 164.365 459.673 164.586 459.548 164.773C459.423 164.961 459.245 165.107 459.036 165.193C458.828 165.28 458.599 165.302 458.378 165.258C458.156 165.214 457.953 165.106 457.794 164.946C457.634 164.787 457.526 164.584 457.482 164.362C457.438 164.141 457.46 163.912 457.547 163.704C457.633 163.495 457.779 163.317 457.967 163.192C458.154 163.067 458.375 163 458.6 163C459.23 162.99 459.74 163.51 459.74 164.14ZM323.57 181.72C323.575 181.872 323.549 182.024 323.493 182.167C323.438 182.309 323.355 182.438 323.249 182.548C323.143 182.657 323.015 182.745 322.875 182.804C322.735 182.864 322.584 182.894 322.431 182.894C322.278 182.894 322.127 182.864 321.987 182.804C321.846 182.745 321.719 182.658 321.613 182.549C321.507 182.439 321.423 182.31 321.368 182.167C321.313 182.025 321.287 181.873 321.291 181.721C321.3 181.425 321.423 181.143 321.636 180.937C321.849 180.73 322.134 180.614 322.43 180.614C322.727 180.614 323.011 180.73 323.224 180.936C323.437 181.142 323.561 181.424 323.57 181.72ZM237.03 167.9C237.03 168.125 236.963 168.346 236.838 168.533C236.713 168.721 236.535 168.867 236.326 168.953C236.118 169.039 235.889 169.062 235.668 169.018C235.446 168.974 235.243 168.866 235.084 168.706C234.924 168.547 234.816 168.344 234.772 168.122C234.728 167.901 234.75 167.672 234.837 167.464C234.923 167.255 235.069 167.077 235.257 166.952C235.444 166.827 235.665 166.76 235.89 166.76C236.52 166.75 237.03 167.26 237.03 167.9ZM572.32 237.5C572.325 237.652 572.299 237.804 572.243 237.947C572.188 238.089 572.105 238.218 571.999 238.328C571.893 238.437 571.765 238.525 571.625 238.584C571.485 238.644 571.334 238.674 571.181 238.674C571.028 238.674 570.877 238.644 570.737 238.584C570.596 238.525 570.469 238.438 570.363 238.329C570.257 238.219 570.173 238.09 570.118 237.947C570.063 237.805 570.037 237.653 570.041 237.501C570.05 237.205 570.173 236.923 570.386 236.717C570.599 236.51 570.883 236.394 571.18 236.394C571.477 236.394 571.761 236.51 571.974 236.716C572.187 236.922 572.311 237.204 572.32 237.5Z" fill="white"/>
<path d="M576.07 161.32L577.28 163.78L580.01 164.18L578.04 166.1L578.5 168.81L576.07 167.53L573.63 168.81L574.1 166.1L572.13 164.18L574.85 163.78L576.07 161.32Z" fill="#619FFF"/>
<path d="M294.03 61.14L295.55 64.23L298.96 64.72L296.49 67.12L297.08 70.51L294.03 68.91L290.99 70.51L291.57 67.12L289.11 64.72L292.51 64.23L294.03 61.14ZM635 212.07L636.53 215.15L639.93 215.65L637.47 218.05L638.05 221.44L635 219.84L631.96 221.44L632.54 218.05L630.08 215.65L633.48 215.15L635 212.07Z" fill="#90C9FF"/>
<path d="M186.02 206.94C188.246 206.94 190.05 205.136 190.05 202.91C190.05 200.684 188.246 198.88 186.02 198.88C183.794 198.88 181.99 200.684 181.99 202.91C181.99 205.136 183.794 206.94 186.02 206.94Z" fill="#90C9FF"/>
<path d="M491.94 117.3C507.56 133 532.95 133.06 548.65 117.44C564.35 101.82 564.41 76.44 548.8 60.74C533.18 45.04 507.79 44.98 492.09 60.6C476.39 76.21 476.33 101.6 491.94 117.3Z" fill="url(#paint1_linear_28_64)"/>
<path d="M568.17 393.6C567.89 391.23 581.51 343.85 596.66 322.78C611.81 301.71 628.84 262.76 628.84 262.76C628.84 262.76 634.57 297.4 618.82 320.14C603.07 342.89 596.38 354.12 596.38 354.12C596.38 354.12 607.38 331.94 633.69 330.41C660 328.88 653.23 352.97 653.23 352.97C653.23 352.97 624.21 311.48 563.95 405.35" fill="url(#paint2_linear_28_64)"/>
<path d="M532.17 439.55C532.17 439.55 490.81 449.18 462.81 432.03C434.81 414.89 416.45 390.57 416.45 390.57C416.45 390.57 447.73 380.04 467.9 384.21C488.07 388.38 505.72 411.2 505.77 409.36C505.82 407.52 484.25 378.33 482.5 359.13C480.75 339.92 489.87 303.95 489.87 303.95C489.87 303.95 516.43 324.41 523.04 340.42C529.66 356.42 534.8 390.97 534.8 390.97C534.8 390.97 531.28 360.75 543.52 335.69C555.77 310.63 586.88 290.36 586.88 290.36C586.88 290.36 598.45 321.64 588.95 352.15C579.45 382.66 557.44 402.72 557.44 402.72C557.44 402.72 587.89 380.75 606.68 377.73C625.47 374.72 651.54 391.04 651.54 391.04C651.54 391.04 624.88 420.7 604.27 426.02C583.65 431.35 562.93 428.62 562.93 428.62C562.93 428.62 591.52 429.11 608.35 440.49C625.18 451.87 639.5 475.36 639.5 475.36C639.5 475.36 599.66 480.08 574.54 467.32C549.42 454.55 532.17 439.55 532.17 439.55Z" fill="url(#paint3_linear_28_64)"/>
<path d="M571.54 429.23C566.38 428.68 562.93 428.61 562.93 428.61C562.93 428.61 566.27 429.04 571.54 429.23Z" fill="url(#paint4_linear_28_64)"/>
<path d="M495.89 326.06C495.89 326.06 500.96 393.05 532.49 428.93C528.09 418.89 516.26 401.69 509.7 377.87C503.15 354.06 495.89 326.06 495.89 326.06Z" fill="url(#paint5_linear_28_64)"/>
<path d="M531.63 431.74C531.63 431.74 472.34 414.57 449.43 403.9C432.42 396.47 424.49 392.69 424.49 392.69C424.49 392.69 437.34 403.17 474.04 417.32C510.74 431.46 531.63 431.74 531.63 431.74Z" fill="url(#paint6_linear_28_64)"/>
<path d="M539.07 433.03C539.07 433.03 575.43 442.69 606.01 458.35C620.48 465.88 629.58 471.3 629.58 471.3C629.58 471.3 604.76 460.18 587.67 453.4C570.58 446.6 539.07 433.03 539.07 433.03Z" fill="url(#paint7_linear_28_64)"/>
<path d="M257.48 374.25C257.76 371.88 244.14 324.5 228.99 303.43C213.84 282.36 196.81 243.41 196.81 243.41C196.81 243.41 191.08 278.05 206.83 300.79C222.58 323.54 229.27 334.77 229.27 334.77C229.27 334.77 218.27 312.59 191.96 311.06C165.65 309.53 172.42 333.62 172.42 333.62C172.42 333.62 201.44 292.13 261.7 386" fill="url(#paint8_linear_28_64)"/>
<path d="M546.53 271.73C546.53 271.73 529.5 297.23 518.85 334.29C508.19 371.35 512.42 412.94 512.42 412.94" stroke="black" stroke-width="2.31" stroke-miterlimit="10"/>
<path d="M540.4 314.23C540.4 314.23 526.72 318.59 521.8 324.79C521.95 317.97 524.03 293.27 524.03 293.27M531.73 353.79C531.73 353.79 518.57 356.02 513.5 360.93C510.33 353.55 507.4 334.32 507.4 334.32M519.73 387.54C519.73 387.54 514.02 390.92 511.59 394.11C507.31 387.68 495.96 375.66 495.96 375.66" stroke="black" stroke-width="2.31" stroke-miterlimit="10"/>
<path d="M544.46 274.1C544.46 274.1 561.21 273.6 568.51 262.04C575.81 250.48 577.27 240.41 577.27 240.41C577.27 240.41 561.78 242.75 552.67 250.88C543.54 259.02 544.46 274.1 544.46 274.1ZM540.4 314.23C540.4 314.23 549.55 300.03 561.95 294.17C572.93 289.74 587.97 297.96 587.97 297.96C587.97 297.96 586.15 309.16 569.36 315.49C558.18 319.7 546.8 316.9 540.4 314.23ZM508.26 337.68C508.26 337.68 514.11 313.87 503.15 304.47C492.18 295.08 487.9 292.87 487.9 292.87C487.9 292.87 483.55 311.29 488.35 321.24C493.16 331.2 508.26 337.68 508.26 337.68ZM528.43 354.34C528.43 354.34 542.92 340.43 553.77 340.42C564.62 340.41 575.85 345.26 575.85 345.26C575.85 345.26 569.05 359.14 552.22 359.55C535.4 359.97 528.43 354.34 528.43 354.34ZM497.91 377.67C497.91 377.67 494.96 359.23 481.15 355.57C469.39 352.68 464.35 355.38 464.35 355.38C464.35 355.38 464.92 364.4 471.84 371.95C478.76 379.51 497.91 377.67 497.91 377.67ZM518.04 388.54C518.04 388.54 520.91 377.84 529.99 375.06C539.38 372.35 547.42 377.18 547.42 377.18C547.42 377.18 546.24 388.36 535.73 390.93C525.21 393.5 518.04 388.54 518.04 388.54ZM524.57 295.14C524.57 295.14 530.73 277.64 526.87 269.17C523.01 260.7 514.52 256.93 514.52 256.93C514.52 256.93 507.93 266.71 510.31 276.13C512.69 285.55 524.57 295.14 524.57 295.14Z" fill="#00759F"/>
<path d="M255.37 275.56C255.37 275.56 279.27 294.76 300.58 326.9C321.89 359.04 330.36 399.98 330.36 399.98" stroke="black" stroke-width="2.31" stroke-miterlimit="10"/>
<path d="M273.99 314.25C273.99 314.25 288.35 314.29 294.91 318.73C292.71 312.27 283.31 289.34 283.31 289.34M294.15 349.38C294.15 349.38 307.37 347.55 313.68 350.71C314.48 342.72 311.5 323.5 311.5 323.5M315.74 377.95C315.74 377.95 322.21 379.46 325.48 381.77C327.63 374.35 334.84 359.47 334.84 359.47" stroke="black" stroke-width="2.31" stroke-miterlimit="10"/>
<path d="M258.06 277.2C258.06 277.2 241.93 281.76 231.5 272.92C221.07 264.08 216.64 254.92 216.64 254.92C216.64 254.92 232.12 252.5 243.26 257.51C254.4 262.54 258.06 277.2 258.06 277.2ZM273.99 314.25C273.99 314.25 261 303.46 247.41 301.6C235.61 300.68 223.74 313.04 223.74 313.04C223.74 313.04 228.84 323.17 246.76 324.16C258.68 324.81 268.69 318.73 273.99 314.25ZM311.7 326.96C311.7 326.96 298.96 306.01 306.6 293.75C314.24 281.5 317.66 278.1 317.66 278.1C317.66 278.1 327.35 294.36 325.76 305.3C324.15 316.24 311.7 326.96 311.7 326.96ZM297.46 348.91C297.46 348.91 279.46 340 269.11 343.25C258.76 346.5 249.5 354.5 249.5 354.5C249.5 354.5 260.16 365.7 276.33 361.03C292.51 356.37 297.46 348.91 297.46 348.91ZM333.59 361.99C333.59 361.99 330.86 343.52 342.93 335.88C353.27 329.58 358.89 330.65 358.89 330.65C358.89 330.65 361.06 339.42 356.73 348.71C352.4 357.99 333.59 361.99 333.59 361.99ZM317.66 378.4C317.66 378.4 311.7 369.06 302.21 369.14C292.44 369.38 286.22 376.41 286.22 376.41C286.22 376.41 290.7 386.72 301.5 386C312.31 385.29 317.66 378.4 317.66 378.4ZM283.36 291.29C283.36 291.29 272.22 276.45 273.36 267.21C274.5 257.97 281.47 251.83 281.47 251.83C281.47 251.83 290.7 259.18 291.25 268.88C291.8 278.57 283.36 291.29 283.36 291.29Z" fill="#00759F"/>
<path d="M512.17 523.26C512.17 523.26 476.43 546.19 444.3 539.43C412.17 532.67 386.72 515.9 386.72 515.9C386.72 515.9 412.67 495.5 433.07 492.67C453.47 489.84 477.75 505.42 477.18 503.67C476.61 501.92 446.51 481.65 438.42 464.14C430.33 446.63 426.87 409.69 426.87 409.69C426.87 409.69 458.75 420.07 470.35 432.93C481.95 445.79 498.38 476.61 498.38 476.61C498.38 476.61 484.94 449.32 488.07 421.6C491.21 393.88 513.73 364.35 513.73 364.35C513.73 364.35 535.12 389.94 536.39 421.87C537.67 453.8 523.65 480.08 523.65 480.08C523.65 480.08 544.97 449.17 561.67 440.03C578.37 430.89 608.4 437.53 608.4 437.53C608.4 437.53 593.23 474.4 575.59 486.33C557.95 498.26 537.51 502.64 537.51 502.64C537.51 502.64 564.61 493.52 584.28 498.6C603.95 503.68 625.32 521.01 625.32 521.01C625.32 521.01 589.37 538.81 561.42 535.21C533.45 531.62 512.17 523.26 512.17 523.26Z" fill="url(#paint9_linear_28_64)"/>
<path d="M545.81 500.35C540.77 501.56 537.49 502.65 537.49 502.65C537.49 502.65 540.77 501.94 545.81 500.35Z" fill="url(#paint10_linear_28_64)"/>
<path d="M439.95 428.5C439.95 428.5 467.18 489.92 508.92 513.15C501.41 505.17 484.5 492.93 470.34 472.69C456.17 452.45 439.95 428.5 439.95 428.5Z" fill="url(#paint11_linear_28_64)"/>
<path d="M509.05 516.09C509.05 516.09 447.44 519.78 422.28 517.41C403.76 516.11 395.03 515.21 395.03 515.21C395.03 515.21 410.65 520.78 449.97 521.8C489.28 522.83 509.05 516.09 509.05 516.09Z" fill="url(#paint12_linear_28_64)"/>
<path d="M302.26 436.85C302.26 436.85 341.6 420.87 354.6 390.71C367.59 360.56 368.57 330.1 368.57 330.1C368.57 330.1 336.94 339.54 322.86 354.57C308.79 369.6 307.52 398.43 306.42 396.95C305.32 395.47 306.11 359.2 296.47 342.49C286.83 325.79 258.64 301.66 258.64 301.66C258.64 301.66 248.74 333.69 252.56 350.58C256.38 367.47 272.09 398.66 272.09 398.66C272.09 398.66 257.54 371.94 233.09 358.52C208.63 345.11 171.52 346.48 171.52 346.48C171.52 346.48 180.1 378.71 205.45 398.16C230.8 417.61 260.35 421.31 260.35 421.31C260.35 421.31 222.8 420.91 205.71 429.29C188.62 437.66 176.73 466.03 176.73 466.03C176.73 466.03 215.61 474.89 235.53 467.35C255.45 459.82 270.81 445.64 270.81 445.64C270.81 445.64 247.73 462.52 240.55 481.53C233.37 500.53 235.2 527.98 235.2 527.98C235.2 527.98 270.47 508.87 283.64 483.96C296.82 459.05 302.26 436.85 302.26 436.85Z" fill="url(#paint13_linear_28_64)"/>
<path d="M264.14 451.12C268.04 447.7 270.81 445.65 270.81 445.65C270.81 445.65 268.34 447.92 264.14 451.12Z" fill="url(#paint14_linear_28_64)"/>
<path d="M335.99 521.72C335.99 521.72 373.64 541.36 405.04 531.74C436.43 522.12 460.28 503.15 460.28 503.15C460.28 503.15 432.61 485.15 412.04 484.16C391.47 483.17 368.68 500.87 369.1 499.07C369.52 497.28 397.67 474.39 404.16 456.23C410.65 438.07 410.78 400.96 410.78 400.96C410.78 400.96 379.96 414.15 369.56 428C359.16 441.85 345.56 474.02 345.56 474.02C345.56 474.02 356.5 445.64 350.9 418.31C345.29 390.99 320.21 363.6 320.21 363.6C320.21 363.6 301.2 391 302.8 422.92C304.39 454.83 320.7 479.75 320.7 479.75C320.7 479.75 296.69 450.88 279.25 443.27C261.8 435.66 232.48 444.97 232.48 444.97C232.48 444.97 250.9 480.34 269.54 490.64C288.17 500.94 308.93 503.47 308.93 503.47C308.93 503.47 281.12 496.81 261.98 503.64C242.85 510.47 223.12 529.64 223.12 529.64C223.12 529.64 260.52 544.15 288.03 538.05C315.55 531.95 335.99 521.72 335.99 521.72Z" fill="url(#paint15_linear_28_64)"/>
<path opacity="0.3" d="M320.21 363.6C320.21 363.6 345.29 390.99 350.9 418.31C356.5 445.63 345.56 474.02 345.56 474.02C345.56 474.02 359.16 441.85 369.56 428C379.96 414.15 410.78 400.96 410.78 400.96C410.78 400.96 410.64 438.07 404.16 456.23C397.67 474.39 369.52 497.28 369.1 499.07C368.68 500.87 391.48 483.16 412.04 484.16C432.61 485.15 460.28 503.15 460.28 503.15C460.28 503.15 436.43 522.13 405.04 531.74C373.64 541.36 335.99 521.72 335.99 521.72C335.99 521.72 335.64 521.9 334.98 522.21C338.18 452.54 320.21 363.6 320.21 363.6Z" fill="#00759F"/>
<path d="M300.44 501.91C305.57 502.67 308.93 503.46 308.93 503.46C308.93 503.46 305.59 503.05 300.44 501.91Z" fill="url(#paint16_linear_28_64)"/>
<path d="M399.42 420.86C399.42 420.86 377.8 484.47 338.32 511.35C345.09 502.73 360.83 489.02 373.12 467.59C385.42 446.17 399.42 420.86 399.42 420.86Z" fill="url(#paint17_linear_28_64)"/>
<path d="M338.46 514.29C338.46 514.29 400.16 512.45 425 507.83C443.33 504.88 451.95 503.2 451.95 503.2C451.95 503.2 436.89 510.14 397.83 514.69C358.76 519.24 338.46 514.29 338.46 514.29Z" fill="url(#paint18_linear_28_64)"/>
<path d="M332.73 512.9C332.73 512.9 309.44 488.74 287.78 472.93C266.13 457.11 241.44 448.38 241.44 448.38C241.44 448.38 273.86 467.8 286.02 476.53C298.17 485.26 332.73 512.9 332.73 512.9Z" fill="url(#paint19_linear_28_64)"/>
<path d="M330.18 222.53C330.18 222.53 334.38 243.3 312.94 254.65C305.77 257.14 292.39 257.37 284.96 250.28C295.87 255.58 305.58 256.47 312.76 253.67C316.83 250.26 328.55 245.81 330.18 222.53Z" fill="black"/>
<path d="M318.69 224.67C318.69 224.67 323.38 242.44 312.65 254.19C302 251.84 293.18 243.71 290.61 237.93C294.06 241.9 303.48 251.27 312.16 253.37C316.22 246.53 320.25 237.89 318.69 224.67Z" fill="black"/>
<path d="M311.42 234.47C311.42 234.47 316.84 246.8 313.03 253.76C311 252.57 301.22 243.72 298.45 230.17C302.51 237.73 303.94 244.47 312.43 251.79C313.51 247.17 311.78 236.32 311.42 234.47Z" fill="black"/>
<path d="M330.44 227.04C330.44 227.04 333.55 225.21 333.9 220.54C334.24 215.86 331.47 214.19 330.02 216.19C329.39 214.78 328.76 215.48 328.75 216.39C327.88 215.51 326.15 215.46 325.93 217.5C325.71 219.54 327.48 226.62 330.44 227.04Z" fill="url(#paint20_linear_28_64)"/>
<path d="M318.99 228.31C318.99 228.31 322.54 226.08 320.91 220.85C319.9 218.16 318.52 217.95 318.2 218.66C317.81 218.34 316.15 218.09 316.06 219.52C315.23 219.08 313.8 220.26 314.19 221.92C314.58 223.58 315.5 227.5 318.99 228.31Z" fill="url(#paint21_linear_28_64)"/>
<path d="M312.43 238.73C312.43 238.73 315.25 236.85 313.61 232.38C312.56 229.34 311.08 230.36 311.06 231C310.49 230.15 309.53 230.31 309.42 231.06C308.6 230.67 307.56 231.84 307.95 233.49C308.33 235.15 309.55 238.51 312.43 238.73Z" fill="url(#paint22_linear_28_64)"/>
<path d="M300.04 234.4C300.04 234.4 302.76 233.1 302.01 228.91C301.27 224.73 298.97 222.08 298.11 223.76C297.27 223.12 295.86 221.9 294.58 224.32C293.05 224.68 293.3 227.05 293.98 228.79C294.65 230.53 297.13 234.52 300.04 234.4Z" fill="url(#paint23_linear_28_64)"/>
<path d="M289.94 253.22C289.94 253.22 290.75 250.32 287.11 248.13C283.47 245.94 279.96 245.93 280.67 247.68C279.64 247.89 277.79 248.15 278.77 250.71C278.03 252.1 279.98 253.47 281.74 254.11C283.48 254.73 288.12 255.49 289.94 253.22Z" fill="url(#paint24_linear_28_64)"/>
<path d="M292.95 240.74C292.95 240.74 294.26 239.41 292.64 236.55C291.58 234.41 288.29 230.79 287.78 233.56C286.25 233.59 284.5 233.19 285.23 236.29C283.84 237.1 285.08 238.57 286.49 240C287.9 241.44 291.57 241.93 292.95 240.74Z" fill="url(#paint25_linear_28_64)"/>
<path d="M313.63 252.45C313.63 252.45 313.69 252.56 313.8 252.77C315.69 256.4 332.51 289.42 325.76 299.66C326.43 294.45 325.61 287.93 320.99 274.78C316.37 261.63 312.17 253.38 312.17 253.38L313.7 252.56" fill="black"/>
<path d="M478.69 229.69C478.69 229.69 474.49 250.46 495.93 261.81C503.11 264.3 516.48 264.53 523.91 257.44C513 262.74 503.29 263.63 496.11 260.83C492.05 257.43 480.33 252.98 478.69 229.69Z" fill="black"/>
<path d="M490.18 231.84C490.18 231.84 485.49 249.61 496.22 261.36C506.87 259.01 515.69 250.88 518.26 245.1C514.81 249.07 505.39 258.44 496.71 260.54C492.65 253.7 488.63 245.06 490.18 231.84Z" fill="black"/>
<path d="M497.45 241.64C497.45 241.64 492.03 253.97 495.84 260.93C497.87 259.74 507.65 250.89 510.42 237.34C506.36 244.9 504.93 251.64 496.44 258.96C495.37 254.34 497.1 243.49 497.45 241.64Z" fill="black"/>
<path d="M478.43 234.21C478.43 234.21 475.32 232.38 474.97 227.71C474.63 223.03 477.4 221.36 478.85 223.36C479.48 221.95 480.11 222.65 480.12 223.56C480.99 222.68 482.72 222.63 482.94 224.67C483.17 226.71 481.39 233.78 478.43 234.21Z" fill="url(#paint26_linear_28_64)"/>
<path d="M489.89 235.48C489.89 235.48 486.34 233.25 487.97 228.02C488.98 225.33 490.36 225.12 490.68 225.83C491.07 225.51 492.73 225.26 492.82 226.69C493.65 226.25 495.08 227.43 494.69 229.09C494.3 230.75 493.38 234.67 489.89 235.48Z" fill="url(#paint27_linear_28_64)"/>
<path d="M496.45 245.9C496.45 245.9 493.63 244.02 495.27 239.55C496.32 236.51 497.8 237.53 497.82 238.17C498.39 237.32 499.35 237.48 499.46 238.23C500.28 237.84 501.32 239.01 500.93 240.66C500.55 242.31 499.32 245.68 496.45 245.9Z" fill="url(#paint28_linear_28_64)"/>
<path d="M508.84 241.56C508.84 241.56 506.12 240.26 506.87 236.07C507.61 231.89 509.91 229.24 510.77 230.92C511.61 230.28 513.02 229.06 514.3 231.48C515.83 231.84 515.58 234.21 514.91 235.95C514.23 237.7 511.74 241.69 508.84 241.56Z" fill="url(#paint29_linear_28_64)"/>
<path d="M518.94 260.38C518.94 260.38 518.13 257.48 521.77 255.29C525.41 253.1 528.92 253.09 528.21 254.84C529.24 255.05 531.09 255.31 530.11 257.87C530.85 259.26 528.9 260.63 527.14 261.27C525.39 261.9 520.76 262.66 518.94 260.38Z" fill="url(#paint30_linear_28_64)"/>
<path d="M515.93 247.91C515.93 247.91 514.62 246.58 516.24 243.72C517.3 241.58 520.59 237.96 521.1 240.73C522.63 240.76 524.38 240.36 523.65 243.46C525.04 244.27 523.8 245.74 522.39 247.17C520.98 248.61 517.31 249.1 515.93 247.91Z" fill="url(#paint31_linear_28_64)"/>
<path d="M495.25 259.61C495.25 259.61 495.19 259.72 495.08 259.93C493.19 263.56 476.37 296.58 483.12 306.82C482.45 301.61 483.27 295.09 487.89 281.94C492.51 268.79 496.71 260.54 496.71 260.54L495.18 259.72" fill="black"/>
<path d="M416.51 595.69C578.567 595.69 709.94 585.343 709.94 572.58C709.94 559.817 578.567 549.47 416.51 549.47C254.453 549.47 123.08 559.817 123.08 572.58C123.08 585.343 254.453 595.69 416.51 595.69Z" fill="url(#paint32_linear_28_64)"/>
<path d="M303.08 568.53L306.71 556.39C306.71 556.39 307.55 552.62 314.94 552.62H459.32C459.32 552.62 466.16 552.32 468.11 557.36C470.71 564.07 471.46 567.4 471.46 567.4C471.46 567.4 473.83 572.56 465.04 572.56H306.99C306.99 572.56 303.08 572.86 303.08 568.53Z" fill="url(#paint33_linear_28_64)"/>
<path d="M306.98 572.58H465.03C471.18 572.58 471.86 570.05 471.72 568.53H303.08C303.08 572.86 306.98 572.58 306.98 572.58Z" fill="black"/>
<path d="M561.24 517.06C561.24 526.3 553.74 533.8 544.5 533.8H228.68C219.44 533.8 211.94 526.3 211.94 517.06V316.93C211.94 307.69 219.44 300.19 228.68 300.19H544.5C553.75 300.19 561.24 307.68 561.24 316.93V517.06Z" fill="url(#paint34_linear_28_64)"/>
<path d="M229.05 316.56H545.99V496.98H229.05V316.56Z" fill="url(#paint35_linear_28_64)"/>
<path d="M229.05 316.56H545.99V351.13H229.05V316.56Z" fill="url(#paint36_linear_28_64)"/>
<path opacity="0.5" d="M472.63 328.89C472.63 330.55 471.29 331.89 469.63 331.89H276.43C274.77 331.89 273.43 330.55 273.43 328.89C273.43 327.23 274.77 325.89 276.43 325.89H469.63C471.29 325.89 472.63 327.23 472.63 328.89Z" fill="url(#paint37_linear_28_64)"/>
<path opacity="0.5" d="M391.05 341.78C391.05 343.44 390.26 344.78 389.28 344.78H275.21C274.23 344.78 273.44 343.44 273.44 341.78C273.44 340.12 274.23 338.78 275.21 338.78H389.28C390.26 338.78 391.05 340.12 391.05 341.78Z" fill="url(#paint38_linear_28_64)"/>
<path d="M249.53 346.69C256.627 346.69 262.38 340.937 262.38 333.84C262.38 326.743 256.627 320.99 249.53 320.99C242.433 320.99 236.68 326.743 236.68 333.84C236.68 340.937 242.433 346.69 249.53 346.69Z" fill="url(#paint39_linear_28_64)"/>
<path d="M249.1 334.56C252.452 334.56 255.17 331.842 255.17 328.49C255.17 325.138 252.452 322.42 249.1 322.42C245.748 322.42 243.03 325.138 243.03 328.49C243.03 331.842 245.748 334.56 249.1 334.56Z" fill="white"/>
<path d="M259.25 342.22C257.45 338.41 253.59 335.77 249.1 335.77C244.87 335.77 241.19 338.11 239.28 341.56C241.62 344.67 245.34 346.68 249.53 346.68C253.42 346.68 256.89 344.95 259.25 342.22Z" fill="white"/>
<path d="M408.92 374.16C408.92 382.42 400.68 389.12 390.51 389.12C380.34 389.12 372.1 382.42 372.1 374.16C372.1 365.9 380.34 359.2 390.51 359.2C400.67 359.21 408.92 365.9 408.92 374.16Z" fill="black"/>
<path d="M332.3 497.62C332.3 497.62 334.47 470 355.04 462.69C375.62 455.38 412.71 456.19 427.06 462.69C441.41 469.19 447.64 478.12 449.53 486.52C451.43 494.91 451.16 497.62 451.16 497.62H332.3Z" fill="#431CA3"/>
<path d="M392.57 485.51C403.17 485.51 411.76 476.96 411.76 466.42C411.76 463.62 411.15 460.97 410.06 458.57C399.52 457.24 386.8 457.13 375.14 458.43C373.977 460.929 373.377 463.653 373.38 466.41C373.38 476.96 381.97 485.51 392.57 485.51Z" fill="url(#paint40_linear_28_64)"/>
<path d="M375.14 458.44C375.14 458.44 380.59 455.12 380.59 448.24C380.59 441.36 404.46 446.22 404.46 446.22C404.46 446.22 406.83 456.15 410.07 458.57" fill="url(#paint41_linear_28_64)"/>
<path d="M370.74 444.56C366.81 437.39 367.49 435.22 367.49 435.22C367.49 435.22 362.48 431.84 362.21 426.15C361.94 420.46 363.56 419.92 363.56 419.92H368.16C368.16 419.92 368.43 411.41 373.37 405.51C378.31 399.61 379.53 398.4 379.53 398.4C379.53 398.4 388.06 403.42 396.18 405.51C404.3 407.6 411.88 411.26 413.91 415.45L415.94 419.65C415.94 419.65 420.68 417.89 421.35 421C422.03 424.11 421.21 430.48 419.45 431.83C417.69 433.18 416.07 432.91 416.07 432.91C416.07 432.91 414.31 442.93 409.03 448.88C403.75 454.84 397.83 459.57 392.55 459.57C385.25 459.58 374.67 451.73 370.74 444.56Z" fill="url(#paint42_linear_28_64)"/>
<path d="M367.49 428.99C367.49 428.99 360.18 418.3 359.64 408.41C359.1 398.53 361.26 388.38 366.14 384.04C371.01 379.71 377.92 380.25 377.92 380.25C377.92 380.25 383.06 374.7 397.68 376.6C412.3 378.5 417.17 386.75 420.69 394.74C424.21 402.73 420.98 412.55 420.01 415.86C419.05 419.17 416.35 426.28 416.35 426.28C416.35 426.28 416.15 418.34 413.07 414.12C409.99 409.9 401.61 407.13 396.86 405.69C392.11 404.25 384.84 401.3 382.18 399.85L379.53 398.4C379.53 398.4 371.55 406.25 370.12 411.1C368.7 415.94 367.49 428.99 367.49 428.99Z" fill="black"/>
<path d="M382.12 508.88C382.12 506.41 384.12 504.42 386.58 504.42C389.04 504.42 391.04 506.42 391.04 508.88C391.04 511.34 389.04 513.34 386.58 513.34C384.12 513.34 382.12 511.34 382.12 508.88Z" stroke="#231F20" stroke-width="3.678" stroke-miterlimit="10" stroke-linecap="round" stroke-linejoin="round"/>
<path d="M212.01 518.55C212.76 527.1 219.94 533.8 228.68 533.8H544.5C553.24 533.8 560.42 527.1 561.17 518.55H212.01Z" fill="url(#paint43_linear_28_64)"/>
<path d="M371.99 533.8H402.68V559.19H371.99V533.8Z" fill="url(#paint44_linear_28_64)"/>
<path d="M411.84 215.36C411.84 215.36 416.39 219.08 417.76 219.68C419.13 220.29 424.28 221.05 424.97 222.18C425.65 223.32 425.27 231.89 426.26 235.53C427.25 239.17 429.14 246.53 427.93 249.64C426.72 252.75 424.59 254.57 424.59 255.63C424.59 256.69 423.91 268.22 423.91 268.22C423.91 268.22 408.13 272.32 399.26 276.41C390.39 280.5 385.3 284.68 385.3 284.68C385.3 284.68 388.26 277.78 389.78 272.39C391.3 267 393.65 257.67 393.57 254.64C393.49 251.61 386.44 217.62 386.44 217.62C386.44 217.62 388.87 218 390.08 217.77C391.29 217.54 396.68 215.57 398.5 214.51C400.32 213.45 400.93 212.54 400.93 212.54L411.84 215.36Z" fill="url(#paint45_linear_28_64)"/>
<path d="M433.38 239.26C433.38 239.26 467.97 236.53 467.67 237.29C467.37 238.05 460.24 265.66 460.24 265.66L425.19 269.76L433.38 239.26Z" fill="url(#paint46_linear_28_64)"/>
<path d="M467.67 237.29L466.53 236.38L432.17 238.12L423.9 269.22L425.19 269.75L433.38 239.26L467.67 237.29ZM424.12 267.86L411.76 267.18V268.92L423.9 269.22L424.12 267.86Z" fill="black"/>
<path d="M411.76 267.18L424.63 265.96L424.12 267.86L411.76 267.18Z" fill="url(#paint47_linear_28_64)"/>
<path d="M426.35 259.18C426.35 259.18 424.68 258.93 422.46 259.18L420.24 259.43C420.24 259.43 419.63 261.86 419.73 263.48C419.83 265.1 419.78 265.91 419.78 265.91L424.58 265.61L426.35 259.18Z" fill="url(#paint48_linear_28_64)"/>
<path d="M391.66 217.33C393.77 216.63 397.12 215.33 398.48 214.53C400.3 213.47 400.91 212.56 400.91 212.56L411.83 215.37C411.83 215.37 416.38 219.09 417.75 219.69C418.07 219.83 418.6 219.98 419.23 220.14C419.21 220.19 419.19 220.22 419.19 220.22C419.19 220.22 418.58 226.21 417.07 229.78C415.55 233.35 413.35 233.8 410.93 234.1C408.51 234.4 401.98 228.79 398.34 224.85C395.72 222.01 392.99 218.87 391.66 217.33Z" fill="url(#paint49_linear_28_64)"/>
<path d="M403.49 182.75C403.49 182.75 397.27 181.76 395.98 184.95C394.69 188.14 395.22 198.91 394.01 202.4C392.8 205.89 392.49 208.01 392.27 210.06C392.04 212.11 391.89 212.49 390.9 213.78C389.91 215.07 389.23 217.57 389.23 217.57C389.23 217.57 390.44 217.95 394.08 216.51C397.72 215.07 400.91 212.57 400.91 212.57L403.49 182.75Z" fill="black"/>
<path d="M421.09 194.12C421.09 194.12 420.18 199.28 419.27 201.4C418.36 203.52 417.98 204.59 417.98 204.59C417.98 204.59 417.15 210.51 413.66 214.53C410.17 218.55 408.12 218.32 406.07 217.64C404.02 216.96 400.08 213.09 399.62 208.99C399.16 204.89 399.16 204.51 399.16 204.51C399.16 204.51 396.35 204.28 395.82 201.32C395.29 198.36 396.12 195.4 398.02 196.09C399.92 196.77 400.14 201.63 400.14 201.63C400.14 201.63 403.55 194.5 405.15 193.13C406.74 191.76 411.75 191.01 414.25 191.76C416.77 192.53 421.09 194.12 421.09 194.12Z" fill="url(#paint50_linear_28_64)"/>
<path d="M421.09 194.12C421.09 194.12 422.08 190.78 418.81 186.23C415.55 181.68 409.18 179.48 404.25 182.36C399.32 185.24 397.35 189.87 396.97 192.15C396.59 194.43 396.44 196.32 396.44 196.32C396.44 196.32 397.65 195.41 398.72 196.78C399.78 198.15 400.16 201.63 400.16 201.63C400.16 201.63 401.37 201.25 402.21 199.05C403.04 196.85 405.02 193.13 406.69 192.45C408.36 191.77 411.39 191.31 413.14 191.69C414.89 192.07 421.09 194.12 421.09 194.12Z" fill="black"/>
<path d="M424.96 222.19C424.96 222.19 428.83 220.8 430.55 224.74C432.27 228.68 434.49 237.99 434.49 237.99L432.16 238.12L427.81 253.67L426.9 251.55C426.9 251.55 428.72 250.24 428.21 245.78C427.7 241.33 425.88 234.76 425.68 232.33C425.49 229.9 424.96 222.19 424.96 222.19Z" fill="url(#paint51_linear_28_64)"/>
<path d="M385.28 284.7C385.28 284.7 395.95 277.04 403.94 274.31C411.93 271.58 420.53 269.25 420.53 269.25L423.89 269.22L425.58 269.85L442.07 267.73C442.07 267.73 446.92 273.39 450.26 284.62C453.6 295.85 454.41 304.54 455.22 307.48C456.03 310.41 457.75 313.65 457.75 313.65C457.75 313.65 455.12 315.98 452.39 317.29L449.66 318.61C449.66 318.61 442.28 305.26 440.66 299.59L439.04 293.93C439.04 293.93 437.12 282.5 431.25 281.39C425.38 280.28 423.16 287.36 421.34 291.5C419.52 295.65 414.97 301.21 411.63 301.82C408.29 302.43 394.54 302.02 391.6 300.81C388.67 299.59 384.43 293.47 385.28 284.7Z" fill="url(#paint52_linear_28_64)"/>
<path d="M413.17 301.24C416.25 299.6 419.79 295.04 421.34 291.5C423.16 287.35 425.39 280.27 431.25 281.39C437.12 282.5 439.04 293.93 439.04 293.93C439.04 293.93 439.04 293.94 439.35 295.03C439.34 295.16 439.34 295.24 439.34 295.24C439.34 295.24 440.55 305.35 439.44 313.04C438.33 320.73 434.96 340.75 434.96 340.75C434.96 340.75 426.59 340.45 426.59 340.14C426.59 339.83 425.88 328.31 425.17 322.95C424.46 317.59 423.75 310.81 423.75 306.46C423.75 302.11 423.85 300.8 423.85 300.8L413.13 301.41C413.15 301.41 413.16 301.35 413.17 301.24Z" fill="url(#paint53_linear_28_64)"/>
<path d="M434.59 340.76C434.59 340.76 434.29 345.31 434.29 347.51C434.29 349.71 434.75 356.08 433.3 360.33C431.86 364.58 430.34 367.69 426.55 368.07C422.76 368.45 421.32 366.33 421.16 363.37C421.01 360.41 421.54 356.92 423.06 351.84C424.58 346.76 426.55 344.25 426.55 344.25L427.08 340.31L434.59 340.76Z" fill="black"/>
<path d="M424.59 347.73C425.65 345.4 426.55 344.25 426.55 344.25L427.08 340.31L434.59 340.77C434.59 340.77 434.29 345.32 434.29 347.52C434.29 348.25 434.34 349.44 434.35 350.86C433.44 350.57 432.4 350.22 432.24 350.1C431.94 349.87 430.57 347.52 428.75 347.98C426.93 348.44 426.09 348.89 426.09 348.89L424.59 347.73Z" fill="white"/>
<path d="M457.5 314.06L460.61 318.16C460.61 318.16 461.37 318.16 462.58 318.46C463.79 318.76 472.21 320.43 474.11 320.05C476.01 319.67 479.57 319.44 480.71 320.35C481.85 321.26 482.15 323.16 482.15 323.16C482.15 323.16 478.13 327.33 474.11 328.7C470.09 330.07 461.59 332.49 459.62 333.33C457.65 334.16 453.1 334.62 453.1 334.62C453.1 334.62 451.28 329.23 450.9 327.34C450.52 325.44 451.13 322.41 451.13 322.41L449.76 318.39C449.76 318.38 455.38 316.33 457.5 314.06Z" fill="black"/>
<path d="M460.61 318.15C460.61 318.15 460.15 321.94 459.55 322.63C458.94 323.31 456.06 325.13 455.38 324.83C454.7 324.53 453.56 322.48 452.95 322.4C452.34 322.32 451.13 322.4 451.13 322.4L449.66 318.61C449.66 318.61 452.8 317.09 454.62 316.03C456.44 314.97 457.5 314.06 457.5 314.06L460.61 318.15Z" fill="white"/>
<path d="M420.23 259.44C420.23 259.44 404.17 257.85 400.53 256.41C396.89 254.97 394.99 252.09 394.76 250.42C394.53 248.75 393.47 229.71 392.56 225.77C391.65 221.83 388.99 217.73 385.66 217.73C382.32 217.73 380.58 222.36 380.35 229.49C380.12 236.62 382.32 251.94 384.37 256.34C386.42 260.74 389.26 262.55 393.02 264.08C398.79 266.43 419.77 265.93 419.77 265.93C419.77 265.93 419.83 262.32 420.23 259.44Z" fill="url(#paint54_linear_28_64)"/>
<path d="M540.07 398.31C540.07 398.31 533.39 402.33 532.26 405.21C531.12 408.09 527.56 419.32 525.89 425.39C524.22 431.46 520.96 441.09 521.79 443.44C522.62 445.79 530.89 452.09 530.89 452.09C530.89 452.09 532.1 450.42 533.24 448.45C534.38 446.48 535.29 445.57 535.29 445.57L530.13 440.56L538.55 422.51C538.55 422.51 541.28 428.88 541.81 431.92C542.34 434.96 541.89 441.17 540.67 444.21C539.46 447.24 535.06 457.11 533.92 462.04C532.78 466.97 535.89 499.67 535.89 499.67C535.89 499.67 542.87 502.17 557.51 501.72C572.15 501.26 580.12 498.84 580.12 498.84C580.12 498.84 574.28 469.1 572.91 458.56C571.54 448.02 570.94 438.76 570.94 434.97C570.94 431.18 571.47 429.66 571.47 429.66C571.47 429.66 572.38 428.07 572.84 426.93L573.3 425.79C573.3 425.79 578.99 436.11 581.42 437.24C583.85 438.38 587.03 437.39 588.93 434.66C590.83 431.93 597.35 421.61 597.35 421.61L591.43 415.69L584.6 424.34C584.6 424.34 576.41 401.96 574.89 399.53C573.37 397.1 571.55 395.81 568.75 395.36C565.94 394.9 564.81 395.44 564.81 395.44L540.07 398.31Z" fill="url(#paint55_linear_28_64)"/>
<path d="M545.38 409.23C545.38 409.23 547.28 421.44 548.04 433.13C548.8 444.81 548.04 454.83 548.04 454.83L537.72 451.8L537.11 425.55L534.08 431.92L533.67 443.8L535.24 445.27L533.42 447.95L533.32 453.92C533.32 453.92 530.44 456.04 528.92 460.6C527.4 465.16 527.1 469.4 527.1 469.4L528.01 470.01C528.01 470.01 526.8 476.99 527.55 479.26C528.31 481.54 531.65 486.09 536.5 487.15C541.35 488.21 548.49 488.06 550.76 487C553.03 485.94 553.95 483.36 553.95 480.78C553.95 478.2 553.49 460.75 551.52 444.06C549.55 427.37 548.18 412.2 548.18 412.2L545.38 409.23Z" fill="#881FA4"/>
<path d="M553.27 376.08C553.27 376.08 555.24 375.32 556.15 373.27C557.06 371.22 558.58 370.16 560.02 369.63C561.46 369.1 564.34 367.58 565.48 365.46C566.62 363.34 567.38 361.44 567.38 361.44C567.38 361.44 570.64 364.02 570.95 366.29C571.25 368.57 570.87 372.43 570.87 373.42C570.87 374.41 572.46 377.67 571.02 381.16C569.58 384.65 566.01 390.41 564.72 391.02C563.43 391.63 561.69 391.02 561.69 391.02L561.39 394.21L564.8 395.42C564.8 395.42 567.91 402.47 567.91 404.37C567.91 406.27 566.01 409.3 561.69 408.16C557.37 407.02 554.64 404.52 553.42 403.15C552.2 401.78 551.6 400.72 551.6 400.72C551.6 400.72 553.04 396.93 553.12 394.35C553.2 391.77 553.27 388.28 553.27 386.69C553.27 385.1 552.28 381.68 552.28 381.68C552.28 381.68 548.56 378.57 548.94 376.14C549.32 373.71 552.36 373.58 553.27 376.08Z" fill="url(#paint56_linear_28_64)"/>
<path d="M575.49 367.74C574.28 362.81 572.46 359.77 570.71 358.03C568.97 356.29 562.29 356.21 562.29 356.21C562.29 356.21 555.92 354.84 550.99 356.74C546.06 358.64 540.6 364.93 538.85 374.26C537.11 383.59 537.86 391.63 539.38 396.79C540.9 401.95 543.17 405.89 545.37 409.23C547.57 412.57 552.12 415.75 552.12 415.53C552.12 415.3 550.91 402.86 551.59 400.74C551.59 400.74 553.03 396.95 553.11 394.37C553.19 391.79 553.26 388.3 553.26 386.71C553.26 385.12 552.27 381.7 552.27 381.7C552.27 381.7 548.55 378.59 548.93 376.16C549.31 373.73 552.34 373.58 553.25 376.08C553.25 376.08 555.22 375.32 556.13 373.27C557.04 371.22 558.56 370.16 560 369.63C561.44 369.1 564.32 367.58 565.46 365.46C566.6 363.34 567.36 361.44 567.36 361.44C567.36 361.44 570.62 364.02 570.93 366.29C571.23 368.57 570.85 372.43 570.85 373.42C570.85 374.41 572.44 377.67 571 381.16C569.56 384.65 565.99 390.41 564.7 391.02C563.41 391.63 561.67 391.02 561.67 391.02L561.37 394.21L561.94 394.41C562.01 394.38 562.05 394.36 562.05 394.36H565.01C565.01 394.36 569.64 391.4 571.46 387.76C573.29 384.12 576.71 372.67 575.49 367.74Z" fill="black"/>
<path d="M531.49 451.11C531.49 451.11 540.9 457.79 541.43 458.47C541.96 459.15 544.09 464.16 549.02 465.22C553.95 466.28 554.05 465.75 554.05 465.75C554.05 465.75 556.45 463.02 555.47 462.11C554.48 461.2 551.15 459.61 550.16 458.47C549.17 457.33 548.14 455.54 548.14 455.54V454.07L543.87 453.92L534.69 446.11C534.68 446.1 531.95 449.74 531.49 451.11Z" fill="white"/>
<path d="M591.8 416.29C591.8 416.29 595.37 410.6 595.37 410.3C595.37 410 594 405.82 594.31 403.7C594.61 401.58 594.54 395.89 595.45 396.49C596.36 397.1 597.19 398.99 597.19 398.99L597.95 400.2C597.95 400.2 611.15 393.68 611.6 394.06C612.06 394.44 612.51 395.12 611.98 395.88C611.45 396.64 607.96 398.76 607.96 398.76C607.96 398.76 609.55 399.52 609.17 401.11C608.79 402.7 607.96 401.87 607.96 402.1C607.96 402.33 608.11 404.3 606.75 406.42C605.38 408.54 601.29 412.11 601.29 412.11L596.66 420.61L591.8 416.29Z" fill="url(#paint57_linear_28_64)"/>
<path d="M599.69 392.09L594.23 407.64C594.23 407.64 594.15 408.7 595.29 408.85C596.43 409 602.34 408.77 602.34 408.77C602.34 408.77 603.17 408.54 603.48 407.33C603.78 406.12 607.73 392.92 607.73 392.92C607.73 392.92 607.65 392.24 606.97 392.09C606.29 391.94 599.69 392.09 599.69 392.09Z" fill="black"/>
<path d="M599.99 393.46L595.75 406.28L602.12 406.2L605.99 393.53L599.99 393.46Z" fill="white"/>
<path d="M607.5 398.69C607.5 398.69 603.78 400.06 602.95 400.81C602.12 401.57 602.27 402.25 602.87 402.4C603.48 402.55 608.56 401.94 608.56 401.94C608.56 401.94 609.17 401.56 609.24 400.42C609.31 399.28 608.26 398.77 607.5 398.69Z" fill="white"/>
<path d="M607.66 402.18C607.66 402.18 603.41 402.26 602.58 403.01C601.75 403.77 602.81 404.75 603.41 404.91C604.02 405.06 607.73 404.61 607.73 404.61C607.73 404.61 608.94 404.53 609.02 403.4C609.1 402.25 608.41 402.25 607.66 402.18ZM606.97 404.91C606.97 404.91 603.66 404.97 603 405.56C602.35 406.15 603.18 406.92 603.65 407.04C604.12 407.16 607.02 406.8 607.02 406.8C607.02 406.8 607.97 406.74 608.03 405.85C608.1 404.97 607.56 404.97 606.97 404.91Z" fill="white"/>
<path d="M538.73 500.39C538.73 500.39 540.45 511.21 540.35 513.44C540.25 515.67 539.95 532.15 540.65 538.12C541.36 544.09 544.19 559.26 544.39 562.6C544.59 565.94 544.19 572.31 543.78 575.24C543.37 578.17 542.97 581.92 543.98 582.62C544.99 583.33 551.57 582.82 551.97 582.22C552.37 581.61 549.85 571.3 549.85 568.87C549.85 566.44 551.37 545.3 551.57 540.04C551.77 534.78 550.96 528.81 551.27 523.55C551.57 518.29 552.08 513.44 552.89 507.77C553.7 502.1 554 501.7 553.7 501.7C553.39 501.7 543.89 502.11 538.73 500.39Z" fill="url(#paint58_linear_28_64)"/>
<path d="M561.28 501.6C561.28 501.6 564.42 512.52 564.72 516.67C565.02 520.82 564.92 527.69 566.64 533.06C568.36 538.42 575.24 551.06 576.65 554.4C578.07 557.74 579.18 560.57 578.47 562.09C577.76 563.61 577.16 563.91 576.55 565.53C575.94 567.15 576.95 569.37 576.95 569.37C576.95 569.37 583.63 570.28 585.24 572.51C586.86 574.74 590.4 578.58 592.02 578.98C593.64 579.38 596.57 579.18 597.38 578.78C598.19 578.38 598.09 577.06 596.27 576.35C594.45 575.64 592.73 575.14 591.52 573.32C590.31 571.5 585.35 563.21 584.44 559.67C583.53 556.13 576.95 517.19 577.06 513.95C577.16 510.71 577.57 511.02 577.16 506.36C576.75 501.7 576.65 499.68 576.65 499.68C576.65 499.68 564.82 501.81 561.28 501.6Z" fill="url(#paint59_linear_28_64)"/>
<path d="M578.75 579.46L580.34 579.54C580.34 579.54 580.64 572.18 581.33 572.26C582.01 572.34 584.59 572.64 586.26 574.92C587.93 577.2 589.83 579.7 591.42 579.85C593.01 580 598.25 579.93 598.47 579.77C598.7 579.62 599.25 578.86 597.38 578.78C595.51 578.7 591.56 578.7 591.56 578.7C591.56 578.7 587.92 575.89 587.01 574.53C586.1 573.16 585.11 571.5 582.91 570.74C580.71 569.98 576.94 569.37 576.94 569.37C576.94 569.37 576.31 570.74 576.69 571.19C577.07 571.65 578.21 572.33 578.36 573.62C578.53 574.91 578.75 579.46 578.75 579.46Z" fill="url(#paint60_linear_28_64)"/>
<path d="M585.51 572.25C585.51 572.25 586.57 572.1 587.63 571.19C588.69 570.28 589 569.22 589 569.22C589 569.22 591.81 574.23 592.94 574.83C594.07 575.43 597.11 576.2 597.57 577.03C598.03 577.86 597.39 578.77 597.39 578.77C597.39 578.77 592.86 579.38 591.57 578.69C590.28 578.01 585.25 572.49 585.25 572.49" fill="url(#paint61_linear_28_64)"/>
<path d="M543.78 575.24C543.78 575.24 546.89 576.81 548.71 576.05C550.53 575.29 550.83 574.61 550.83 574.61C550.83 574.61 551.89 580.53 551.89 581.21C551.89 581.89 552.88 582.42 550.3 582.8C547.72 583.18 543.62 583.18 543.4 581.89C543.18 580.6 543.78 575.24 543.78 575.24Z" fill="url(#paint62_linear_28_64)"/>
<path d="M573.29 425.77C573.29 425.77 575.54 423.72 575.14 418.87C574.74 414.02 572.71 406.33 571.5 402.28C570.29 398.23 578.58 429.59 583.03 431.81C587.48 434.03 590.31 432.42 590.31 432.42C590.31 432.42 587.28 438.29 582.83 437.68C578.38 437.07 573.52 426.55 573.52 426.55" fill="url(#paint63_linear_28_64)"/>
<path d="M189.33 408.2C189.33 408.2 187.1 423.57 184.68 439.05C182.26 454.53 181.24 459.99 181.75 462.11C182.26 464.23 182.86 465.04 182.86 464.74C182.86 464.44 196.92 413.66 196.92 413.36C196.92 413.06 192.27 408.3 192.27 408.3L189.33 408.2Z" fill="url(#paint64_linear_28_64)"/>
<path d="M206.23 389.69C206.23 389.69 205.52 392.93 207.14 394.65C208.76 396.37 214.42 396.37 216.55 394.75C218.67 393.13 222.21 388.98 222.21 388.98C222.21 388.98 231.31 389.18 233.23 392.52C235.15 395.86 237.78 404.86 235.76 414.57C233.74 424.28 228.88 439.45 226.45 446.94C224.02 454.43 222.61 459.18 222.2 462.21C221.8 465.24 221.9 468.99 221.9 468.99C221.9 468.99 213.4 471.22 198.43 466.36C183.46 461.5 182.15 460.7 182.15 460.7C182.15 460.7 185.39 450.18 187.41 438.15C189.43 426.12 191.66 408.41 191.66 408.41L188.22 407.8C188.22 407.8 194.09 394.25 199.75 391.62C205.42 388.98 206.23 389.69 206.23 389.69Z" fill="url(#paint65_linear_28_64)"/>
<path d="M221.8 389.08C221.8 389.08 221.7 386.55 221.9 383.21C222.1 379.87 222.2 379.06 222.2 379.06C222.2 379.06 226.14 374.1 226.04 371.78C225.94 369.45 223.81 369.45 222.7 370.67C221.59 371.88 220.17 373 220.17 373L218.55 372.8L212.78 368.55C212.78 368.55 212.78 363.19 211.57 362.99C210.36 362.79 206.51 364 205.2 363.5C203.88 362.99 202.97 362.29 202.97 362.69C202.97 363.09 201.15 368.56 201.25 370.38C201.35 372.2 202.77 373.52 202.56 374.53C202.36 375.54 201.65 378.98 201.95 379.89C202.25 380.8 204.58 381.91 204.58 381.91C204.58 381.91 204.68 387.57 205.29 388.59C205.9 389.6 206.2 389.7 206.2 389.7C206.2 389.7 205.29 393.64 207.82 395.26C209.4 396.27 212.82 397.01 216.11 395.26C218.11 394.2 219.68 392.08 221.8 389.08Z" fill="url(#paint66_linear_28_64)"/>
<path d="M226.05 371.79C225.95 369.46 223.82 369.46 222.71 370.68C221.6 371.89 220.18 373.01 220.18 373.01L218.56 372.81L212.79 368.56C212.79 368.56 212.79 363.2 211.58 363C210.37 362.8 206.52 364.01 205.21 363.51C203.89 363 202.98 362.3 202.98 362.7C202.98 362.7 202.17 362.4 201.46 361.08C200.75 359.77 200.35 358.15 201.76 356.53C203.18 354.91 213.29 352.38 216.83 352.99C220.37 353.6 225.02 355.52 226.34 359.97C227.66 364.42 226.24 372.92 226.24 372.92L225.82 373.05C225.98 372.57 226.07 372.15 226.05 371.79Z" fill="black"/>
<path d="M183.52 461.4C183.52 461.4 181.24 473.99 177.45 488.41C173.66 502.82 171.99 510.56 173.2 514.66C174.41 518.76 187.16 535.14 188.68 537.57C190.2 540 210.22 559.27 210.22 559.27C210.22 559.27 214.32 552.29 215.99 545.62L217.66 538.94C217.66 538.94 192.32 516.03 192.32 515.42C192.32 514.81 192.93 504.34 192.93 504.34C192.93 504.34 195.05 474.76 194.75 474.3C194.45 473.84 186.56 462.47 186.56 462.47L183.52 461.4Z" fill="url(#paint67_linear_28_64)"/>
<path d="M217.65 538.93C217.65 538.93 220.38 539.59 220.38 540.4C220.38 541.21 218.56 550.11 218.66 552.74C218.76 555.37 219.37 561.64 217.85 565.99C216.33 570.34 213.5 572.77 211.88 572.16C210.26 571.55 209.55 570.74 210.06 569.02C210.57 567.3 212.59 562.45 212.08 561.03C211.57 559.61 210.66 558.6 210.66 558.6C210.66 558.6 216.54 546.97 217.65 538.93Z" fill="black"/>
<path d="M220.79 469.29C220.79 469.29 217.96 478.6 216.14 484.06C214.32 489.52 212.65 495.54 209.77 517.39C206.89 539.24 201.43 571.4 201.43 571.4C201.43 571.4 197.03 572.01 191.87 570.79C186.71 569.57 184.28 567.45 184.28 567.45C184.28 567.45 191.87 525.12 192.78 505.7C193.69 486.28 193.39 479.3 191.87 476.87C190.35 474.44 187.62 470.35 186.86 467.16C186.1 463.97 186.56 462.46 186.56 462.46C186.56 462.46 206.93 470.96 220.79 469.29Z" fill="url(#paint68_linear_28_64)"/>
<path d="M200.26 571.65C200.26 571.65 200.87 574.08 200.16 574.58C199.45 575.09 196.72 576.4 195.2 577.41C193.68 578.42 191.05 581.05 185.89 581.86C180.73 582.67 180.43 582.77 178.81 582.16C177.19 581.55 175.67 580.44 175.67 580.44C175.67 580.44 175.77 578.62 177.49 576.8C179.21 574.98 183.96 571.74 184.57 570.33C185.18 568.91 185.58 568.21 185.58 568.21C185.58 568.21 190.55 572.05 200.26 571.65Z" fill="black"/>
<path d="M216.44 409.51C216.44 409.51 208.7 427.11 207.49 427.26C206.28 427.41 183.82 425.14 181.39 421.65C178.96 418.16 177.6 410.12 176.54 409.51C175.48 408.9 174.72 409.05 174.72 409.05C174.72 409.05 174.77 416.69 174.47 416.99C174.17 417.29 170.93 417.6 169.41 416.69C167.89 415.78 165.36 414.26 164.15 414.06C162.94 413.86 161.01 414.67 161.82 415.68C162.63 416.69 164.65 418.51 164.65 418.51C164.65 418.51 164.75 423.16 168.59 425.69C172.43 428.22 179.31 430.95 179.31 430.95C179.31 430.95 201.36 440.56 206.21 440.96C211.06 441.36 212.68 440.35 215.52 438.33C218.35 436.31 225.43 427.2 228.67 422.25C231.91 417.29 232.01 415.27 232.01 415.27C232.01 415.27 222.21 414.17 216.44 409.51Z" fill="url(#paint69_linear_28_64)"/>
<path d="M174.47 417C174.17 417.3 170.93 417.61 169.41 416.7C167.89 415.79 165.36 414.27 164.15 414.07C164.15 414.07 161.42 405.27 161.42 404.36C161.42 403.45 172.34 403.35 172.85 403.65C173.36 403.95 174.72 409.06 174.72 409.06C174.72 409.06 174.77 416.7 174.47 417Z" fill="black"/>
<path d="M220.79 396.06L215.53 409.82C215.53 409.82 220.79 412.45 226.05 414.07C231.31 415.69 232.93 415.49 232.93 415.49C232.93 415.49 235.36 410.43 235.56 400.52" fill="url(#paint70_linear_28_64)"/>
<path d="M192.27 408.3C192.27 408.3 195.1 398.89 196.52 396.26C197.94 393.63 198.54 392.42 198.54 392.42C198.54 392.42 194.29 396.26 191.26 401.73C188.23 407.19 188.23 407.8 188.23 407.8C188.23 407.8 190.85 408.81 192.27 408.3Z" fill="url(#paint71_linear_28_64)"/>
<path d="M291.38 286.15C291.38 286.15 267.99 274.95 264.34 274.85C260.69 274.75 256.85 277.58 256.01 280.21C255.17 282.84 256.95 288.39 260.41 292.48C263.87 296.57 266.59 297.74 273.23 302.02C279.87 306.3 286.42 312.73 295.97 313.9C305.52 315.07 310.19 313.41 318.9 313.71C327.6 314 338.46 310.79 342.57 307.77C346.69 304.75 352.77 300.86 356.51 298.62C360.25 296.38 363.81 291.8 365.77 288.79C367.74 285.77 368.95 280.32 367.92 278.47C366.89 276.62 363.8 273.7 360.06 274.77C356.32 275.84 332.08 285.97 332.08 285.97L291.38 286.15Z" fill="url(#paint72_linear_28_64)"/>
<path d="M304.01 228.7C304.01 228.7 289.88 232.01 287.63 234.06C285.38 236.1 281.45 240.1 280.52 245.74C279.58 251.39 280.05 257.91 280.05 257.91C280.05 257.91 281.36 259.76 287.25 260.64C293.15 261.52 292.4 261.32 292.4 261.32L291.37 286.15C291.37 286.15 292.4 290.24 302.69 291.51C312.98 292.78 322.53 291.9 326.83 290.34C331.13 288.78 332.44 286.25 332.44 286.25C332.44 286.25 333.19 271.94 333.47 267.85C333.75 263.76 333.94 261.72 333.56 261.62C333.19 261.52 338.05 261.04 342.64 258.21C347.23 255.39 348.25 254.51 348.25 254.51C348.25 254.51 348.06 238.35 342.82 234.65C337.58 230.95 325.93 227.93 321.41 227.54C316.92 227.14 304.01 228.7 304.01 228.7Z" fill="url(#paint73_linear_28_64)"/>
<path d="M304.17 227.16L303.75 232.86C303.75 232.86 307.12 237.1 312.1 237.1C317.08 237.1 321.93 232.28 321.93 232.28L321.44 227.53" fill="url(#paint74_linear_28_64)"/>
<path d="M300.24 211.54C300.24 211.54 298.56 210.74 298.42 212.42C298.28 214.1 299.26 218.63 300.1 218.99C300.94 219.36 301.5 219.5 301.5 219.5C301.5 219.5 302.34 224.25 302.83 225.49C303.32 226.73 308.65 231.41 310.13 231.84C311.6 232.28 315.18 232.42 317.08 231.47C318.98 230.52 322.2 226.65 323.19 224.46C324.17 222.27 324.24 219.42 324.24 219.42C324.24 219.42 325.64 219.27 326.06 217.67C326.48 216.06 327.18 211.54 326.27 211.02C325.36 210.51 325.85 205.69 323.81 204.74C321.77 203.79 304.65 198.68 303.39 200.07C302.13 201.46 301.21 204.6 301.07 205.55C300.94 206.5 300.24 211.54 300.24 211.54Z" fill="url(#paint75_linear_28_64)"/>
<path d="M302.32 217.3C302.32 217.3 302.13 211.36 302.23 211.07C302.32 210.78 303.35 206.01 303.35 206.01C303.35 206.01 305.97 207.76 313.83 207.96C321.69 208.15 323 207.77 323 207.77V217.51L323.94 217.32C323.94 217.32 324.13 212.06 325.06 211.77C326 211.48 326.37 211.48 326.37 211.48C326.37 211.48 326.46 199.5 326 197.56C325.53 195.61 321.79 192.79 318.89 192.2C315.99 191.62 304.95 192.3 301.49 195.12C298.03 197.94 298.5 199.02 298.4 202.33C298.31 205.64 298.77 211.48 298.77 211.48C298.77 211.48 300.36 211.19 300.55 211.87C300.74 212.55 301.2 217.03 301.2 217.03L302.32 217.3Z" fill="black"/>
<path d="M280.24 258.2C280.04 258.11 280.8 264.12 283.05 272.73C285.3 281.35 286.14 283.76 286.84 284.49C287.54 285.22 291.19 285.59 293.72 284.56C296.25 283.54 301.72 279.01 304.18 275.43C306.64 271.85 309.09 268.71 309.09 268.71L309.23 257.61L316.39 257.1C316.39 257.1 314.99 255.57 313.72 255.27C312.46 254.98 307.05 257.9 307.05 257.9L303.12 266.66L294.49 270.09L293.72 261.18C293.72 261.2 287.61 261.49 280.24 258.2Z" fill="url(#paint76_linear_28_64)"/>
<path d="M321.08 277.92C321.08 278.24 320.83 278.5 320.52 278.5H309.71C309.635 278.499 309.561 278.483 309.493 278.453C309.424 278.423 309.362 278.38 309.31 278.326C309.258 278.272 309.217 278.209 309.19 278.139C309.162 278.069 309.149 277.995 309.15 277.92V257.98C309.15 257.66 309.4 257.4 309.71 257.4H320.52C320.83 257.4 321.08 257.66 321.08 257.98V277.92Z" fill="black"/>
<path d="M310 258.71H311.26V259.88H310V258.71Z" fill="white"/>
<path d="M298.28 290.92C298.28 290.92 300.53 294.06 306.56 294.94C312.6 295.82 320.88 294.79 322.49 293.77C324.1 292.75 324.39 290.99 324.39 290.99C324.39 290.99 312.73 294.06 298.28 290.92Z" fill="url(#paint77_linear_28_64)"/>
<path d="M308.8 291.87H316.59V296.18H308.8V291.87ZM305.69 304.74C305.32 304.74 288.1 306.2 285.76 307.37C283.42 308.54 281.64 310.97 283.79 313.8C285.94 316.62 290.25 317.89 295.49 317.01C300.73 316.13 312.24 311.95 312.24 311.95L311.68 310.49L305.69 304.74Z" fill="black"/>
<path d="M295.03 293.06C286.7 288.68 263.78 275.24 263.78 275.24C263.78 275.24 263.66 275.1 263.44 274.89C260.08 275.22 256.78 277.79 256.01 280.21C255.17 282.84 256.95 288.39 260.41 292.48C263.3 295.89 265.68 297.28 270.24 300.13C270.93 300.46 271.56 300.74 272.1 300.95C277.81 303.19 298.49 313.22 298.49 313.22C298.49 313.22 300.36 312.25 302.98 308.45C305.6 304.65 304.57 298.81 304.57 298.81C304.57 298.81 303.35 297.44 295.03 293.06Z" fill="url(#paint78_linear_28_64)"/>
<path d="M304.85 299.68L316.36 305.23C316.36 305.23 314.96 305.23 314.49 307.18C314.02 309.13 314.58 310.39 314.58 310.39H312.24L303.44 307.47C303.45 307.47 305.6 302.8 304.85 299.68Z" fill="url(#paint79_linear_28_64)"/>
<path d="M311.68 310.49C311.68 310.49 312.9 313.31 314.3 313.8C315.7 314.29 327.31 317.01 332.55 316.92C337.79 316.82 340.69 315.75 341.25 312.05C341.81 308.35 338.82 307.47 335.35 306.99C331.89 306.5 316.36 305.24 316.36 305.24C316.36 305.24 314.68 305.82 314.49 307.19C314.3 308.55 314.21 310.31 314.21 310.31L311.68 310.49Z" fill="black"/>
<path d="M311.68 302.99C311.96 302.8 319.17 298.9 319.17 298.9L320.11 305.52L316.37 305.23L311.68 302.99Z" fill="url(#paint80_linear_28_64)"/>
<path d="M361.05 274.57C352.19 278.77 319.52 298.72 319.16 298.9L320.1 305.52C320.1 305.52 327.68 306.69 332.92 306.88C337.38 307.05 339.87 308.55 340.51 308.99C341.3 308.58 341.99 308.16 342.55 307.75C346.67 304.73 352.75 300.84 356.49 298.6C360.23 296.36 363.79 291.78 365.75 288.77C367.72 285.75 368.93 280.3 367.9 278.45C366.98 276.77 364.34 274.21 361.05 274.57Z" fill="url(#paint81_linear_28_64)"/>
<path d="M307.89 263.17C307.54 263.68 307.05 264.41 307.89 265.43C308.73 266.45 308.66 266.82 308.66 266.82C308.66 266.82 307.61 267.84 307.61 268.86C307.61 269.88 308.1 270.76 308.1 270.76C308.1 270.76 307.68 272.22 307.89 272.66L308.1 273.1C308.1 273.1 306.91 274.85 309.36 276.24C311.82 277.63 319.89 280.55 319.89 280.55C319.89 280.55 327.19 284.35 334.42 285.3C341.65 286.25 345.16 283.91 346 282.38C346.84 280.85 348.11 271.28 348.32 266.39C348.53 261.5 348.04 254.63 348.04 254.63C348.04 254.63 345.8 257.33 340.25 259.38C334.71 261.42 334.36 261.21 334.36 261.42C334.36 261.64 334.57 269.38 334.85 270.91C335.13 272.44 335.69 273.76 335.69 273.76C335.69 273.76 329.72 273.83 327.41 273.98C325.09 274.13 323.48 273.91 323.48 273.91C323.48 273.91 324.95 270.55 324.18 268.58C323.41 266.61 322.71 264.86 322.85 263.83C322.99 262.81 322.85 262.37 322.5 262.37C322.15 262.37 320.96 262.74 320.82 263.76C320.68 264.78 320.68 268.8 320.68 268.8C320.68 268.8 308.24 262.66 307.89 263.17Z" fill="url(#paint82_linear_28_64)"/>
<path d="M326.64 563.32C326.64 563.32 325.43 564.33 322.19 564.74L318.95 565.14C318.95 565.14 319.66 559.07 318.14 557.65C316.62 556.23 309.34 552.69 307.42 543.39C305.5 534.09 308.94 523.57 316.32 520.13C323.7 516.69 329.97 516.39 334.83 520.43C339.68 524.48 342.52 531.35 342.92 536.51C343.32 541.67 343.22 544.9 343.22 544.9L326.64 563.32Z" fill="black"/>
<path d="M331.5 556.75C331.5 556.75 326.14 552.2 324.42 552.5C322.7 552.8 319.57 554.93 318.45 553.61C317.34 552.3 316.73 549.56 316.33 549.36C315.93 549.16 315.12 548.65 315.22 548.05C315.32 547.44 316.03 546.73 316.03 546.73C316.03 546.73 314.82 547.44 314.61 546.63C314.41 545.82 314.41 544.91 314.41 544.91C314.41 544.91 311.98 545.21 312.29 543.7C312.59 542.18 313.71 538.85 313.3 537.63C312.9 536.42 310.97 532.88 313.3 529.94C315.63 527.01 320.58 523.57 324.73 529.03C328.88 534.49 329.79 537.53 332.22 539.25C334.65 540.97 335.96 542.18 335.25 543.5C334.54 544.81 333.43 546.64 333.43 547.75C333.43 548.86 333.53 551.09 333.53 551.09L333.23 559.18L331.5 556.75Z" fill="url(#paint83_linear_28_64)"/>
<path d="M291.34 572.93C291.34 572.93 290.13 575.86 293.16 577.78C296.19 579.7 324.51 583.24 325.83 582.53C327.14 581.82 333.62 570.29 333.62 570.29L333.32 556.94L331.5 556.74C331.5 556.74 328.16 559.67 325.94 564.23C323.72 568.78 319.77 575.96 319.77 575.96C319.77 575.96 308.74 575.25 307.43 573.63C306.12 572.01 304.29 568.88 302.78 568.88C301.26 568.88 298.53 568.78 298.53 568.78L291.34 572.93Z" fill="url(#paint84_linear_28_64)"/>
<path d="M338.68 544.21C338.68 544.21 334.33 547.35 333.83 550.58C333.32 553.82 333.43 569.19 333.63 570.3C333.83 571.41 339.8 589.42 344.05 589.62C348.3 589.82 351.53 585.98 357.5 586.48C363.47 586.99 377.43 587.8 382.48 588C387.54 588.2 389.05 588.51 389.05 588.51L389.15 566.16C389.15 566.16 381.26 567.88 375.7 565.76C370.14 563.64 364.68 558.58 361.74 555.44C358.81 552.3 351.93 545.22 338.68 544.21Z" fill="url(#paint85_linear_28_64)"/>
<path d="M336.1 547.39C336.1 547.39 335.04 549.82 335.04 555.73C335.04 561.64 334.74 582.58 334.74 582.58C334.74 582.58 325.94 583.14 320.58 582.43C315.22 581.72 309.15 579.6 309.15 579.6C309.15 579.6 307.53 576.77 305.21 575.05C302.88 573.33 299.14 568.88 298.74 569.18C298.34 569.48 298.34 570.19 298.84 572.21C299.34 574.23 299.95 575.95 299.95 575.95C299.95 575.95 296.31 576.15 295.7 575.14C295.09 574.13 292.56 567.45 292.56 567.45C292.56 567.45 291.85 568.66 291.55 570.38C291.25 572.1 292.26 577.76 294.89 579.79C297.52 581.81 303.08 583.23 307.73 584.75C312.38 586.27 327.96 588.9 334.23 589.3C340.5 589.7 342.52 589.81 343.13 589.2C343.74 588.59 348.29 570.18 348.49 562.4C348.69 554.61 347.48 547.53 343.43 546.12C339.39 544.71 336.86 546.23 336.1 547.39Z" fill="url(#paint86_linear_28_64)"/>
<path d="M293.37 569.7C293.37 569.7 288.21 562.01 288.21 561.41C288.21 560.81 293.77 561.81 293.77 561.81L298.73 569.19C298.73 569.19 298.43 570.61 298.63 571.42C298.83 572.23 299.14 573.54 299.14 573.54L295.09 573.44L293.37 569.7Z" fill="url(#paint87_linear_28_64)"/>
<path d="M389.15 566.16C389.15 566.16 399.82 560.45 406.19 560.75C412.56 561.05 419.09 567.27 424.09 568.64C429.1 570.01 439.87 572.28 439.87 572.28L439.11 589.88C439.11 589.88 409.68 590.34 400.27 589.88C390.86 589.42 389.04 588.51 389.04 588.51C389.04 588.51 388.49 570.05 389.15 566.16Z" fill="url(#paint88_linear_28_64)"/>
<path d="M439.82 572.83C439.82 572.83 444.27 573.94 449.13 575.26C453.98 576.58 455 576.37 455 576.37C455 576.37 453.58 564.84 454.29 559.78C455 554.72 457.63 544.41 458.03 541.17C458.43 537.93 458.43 536.62 458.03 535.81C457.63 535 456.92 534.49 456.92 534.49C456.92 534.49 455.3 534.49 453.28 532.87C451.26 531.25 449.03 528.12 449.03 528.12C449.03 528.12 460.66 514.16 466.63 508.6C472.6 503.04 475.02 502.33 475.73 503.24C476.44 504.15 475.93 506.98 474.31 509.92C472.69 512.85 468.14 523.68 467.74 527.52C467.34 531.36 467.84 551.69 468.75 565.96C469.66 580.22 470.37 586.29 469.76 587.6C469.15 588.92 466.52 589.52 466.52 589.52L439.11 589.87L439.82 572.83Z" fill="url(#paint89_linear_28_64)"/>
<path d="M466.63 508.6C460.66 514.16 449.03 528.12 449.03 528.12C449.03 528.12 451.25 531.26 453.28 532.87C455.3 534.49 456.92 534.49 456.92 534.49C456.92 534.49 457.73 527 461.98 521.44C465.93 516.27 468.84 512.58 472.72 513.23C473.36 511.8 473.93 510.62 474.32 509.9C475.94 506.97 476.44 504.13 475.74 503.22C475.02 502.33 472.59 503.04 466.63 508.6Z" fill="url(#paint90_linear_28_64)"/>
<path d="M449.13 575.26C453.98 576.58 455 576.37 455 576.37C455 576.37 454.13 569.24 454.1 563.73C451.04 560.29 439.99 547.86 434.88 542.49C428.91 536.22 425.27 521.35 425.07 521.05C424.87 520.75 424.77 519.13 424.56 518.22C424.35 517.31 421.83 512.05 420.51 511.34C419.19 510.63 417.48 515.49 417.68 523.27C417.88 531.06 418.39 548.05 418.39 548.05C418.39 548.05 422.64 548.86 424.46 548.76C426.28 548.66 427.9 547.24 427.9 547.24C427.9 547.24 428.91 547.24 429.62 547.95C430.33 548.66 433.06 554.02 435.99 559.78C438.33 564.38 441.95 571.16 443.33 573.72C444.95 574.14 447 574.68 449.13 575.26Z" fill="url(#paint91_linear_28_64)"/>
<path d="M422.02 526.2C422.32 522.96 424.85 520.43 424.85 520.43C424.86 520.43 424.87 520.42 424.89 520.42C424.78 519.78 424.69 518.83 424.55 518.21C424.35 517.3 421.82 512.04 420.5 511.33C419.18 510.62 417.47 515.48 417.67 523.26C417.87 531.05 418.38 548.04 418.38 548.04C418.38 548.04 422.63 548.85 424.45 548.75C426.27 548.65 427.89 547.23 427.89 547.23C423.13 540.46 421.72 529.44 422.02 526.2Z" fill="url(#paint92_linear_28_64)"/>
<path d="M308.93 526.15L293.77 561.81L298.15 568.53L331.5 556.75" fill="url(#paint93_linear_28_64)"/>
<path d="M229.05 316.56L161.42 404.36L172.85 403.65L174.72 409.06L229.03 389.84" fill="url(#paint94_linear_28_64)"/>
<path d="M233.69 84.28L309.22 257.62L320.52 257.4L409.47 92.46" fill="url(#paint95_linear_28_64)"/>
<path d="M363.29 203.61L426.35 259.18L432.17 238.12L466.53 236.38L453.92 79.87" fill="url(#paint96_linear_28_64)"/>
<path d="M553.42 403.16L595.75 406.28L602.12 406.2L605.99 393.53L599.99 393.46L567.38 361.44" fill="url(#paint97_linear_28_64)"/>
<defs>
<linearGradient id="paint0_linear_28_64" x1="411.181" y1="-1.729" x2="411.181" y2="568.8" gradientUnits="userSpaceOnUse">
<stop stop-color="#7700BB"/>
<stop offset="1"/>
</linearGradient>
<linearGradient id="paint1_linear_28_64" x1="527.937" y1="51.4056" x2="512.124" y2="130.032" gradientUnits="userSpaceOnUse">
<stop stop-color="#88CFDA"/>
<stop offset="0.008" stop-color="#89CFD9"/>
<stop offset="0.478" stop-color="#C8D9BB"/>
<stop offset="0.822" stop-color="#F0DFA7"/>
<stop offset="1" stop-color="#FFE1A0"/>
</linearGradient>
<linearGradient id="paint2_linear_28_64" x1="554.533" y1="368.333" x2="703.534" y2="264.176" gradientUnits="userSpaceOnUse">
<stop offset="1"/>
</linearGradient>
<linearGradient id="paint3_linear_28_64" x1="503.723" y1="473.19" x2="607.708" y2="300.688" gradientUnits="userSpaceOnUse">
<stop stop-color="#7633FF"/>
<stop offset="0.159" stop-color="#7137FF"/>
<stop offset="0.353" stop-color="#6243FF"/>
<stop offset="0.568" stop-color="#4957FF"/>
<stop offset="0.794" stop-color="#2672FF"/>
<stop offset="1" stop-color="#0090FF"/>
</linearGradient>
<linearGradient id="paint4_linear_28_64" x1="567.023" y1="429.36" x2="566.625" y2="430.038" gradientUnits="userSpaceOnUse">
<stop offset="0.074" stop-color="#CEC228"/>
<stop offset="0.58" stop-color="#B2AE18"/>
</linearGradient>
<linearGradient id="paint5_linear_28_64" x1="505.742" y1="379.391" x2="520.734" y2="376.053" gradientUnits="userSpaceOnUse">
<stop stop-color="#7700BB"/>
<stop offset="1"/>
</linearGradient>
<linearGradient id="paint6_linear_28_64" x1="431.19" y1="422.666" x2="524.975" y2="401.785" gradientUnits="userSpaceOnUse">
<stop stop-color="#7700BB"/>
<stop offset="1"/>
</linearGradient>
<linearGradient id="paint7_linear_28_64" x1="545.275" y1="460.869" x2="623.39" y2="443.477" gradientUnits="userSpaceOnUse">
<stop stop-color="#7700BB"/>
<stop offset="1"/>
</linearGradient>
<linearGradient id="paint8_linear_28_64" x1="271.125" y1="348.951" x2="122.102" y2="244.821" gradientUnits="userSpaceOnUse">
<stop offset="1"/>
</linearGradient>
<linearGradient id="paint9_linear_28_64" x1="479.579" y1="539.12" x2="573.089" y2="390.793" gradientUnits="userSpaceOnUse">
<stop stop-color="#59023F"/>
<stop offset="0.119" stop-color="#590444"/>
<stop offset="0.265" stop-color="#5A0A53"/>
<stop offset="0.426" stop-color="#5C156C"/>
<stop offset="0.597" stop-color="#5E238F"/>
<stop offset="0.776" stop-color="#6135BC"/>
<stop offset="0.96" stop-color="#644CF2"/>
<stop offset="1" stop-color="#6551FF"/>
</linearGradient>
<linearGradient id="paint10_linear_28_64" x1="541.57" y1="501.982" x2="541.422" y2="502.754" gradientUnits="userSpaceOnUse">
<stop offset="0.074" stop-color="#CEC228"/>
<stop offset="0.58" stop-color="#B2AE18"/>
</linearGradient>
<linearGradient id="paint11_linear_28_64" x1="467.106" y1="475.458" x2="480.109" y2="467.288" gradientUnits="userSpaceOnUse">
<stop stop-color="#7700BB"/>
<stop offset="1"/>
</linearGradient>
<linearGradient id="paint12_linear_28_64" x1="411.374" y1="541.227" x2="492.732" y2="490.107" gradientUnits="userSpaceOnUse">
<stop stop-color="#7700BB"/>
<stop offset="1"/>
</linearGradient>
<linearGradient id="paint13_linear_28_64" x1="311.025" y1="433.937" x2="94.189" y2="317.861" gradientUnits="userSpaceOnUse">
<stop stop-color="#7633FF"/>
<stop offset="0.159" stop-color="#7137FF"/>
<stop offset="0.353" stop-color="#6243FF"/>
<stop offset="0.568" stop-color="#4957FF"/>
<stop offset="0.794" stop-color="#2672FF"/>
<stop offset="1" stop-color="#0090FF"/>
</linearGradient>
<linearGradient id="paint14_linear_28_64" x1="267.914" y1="448.577" x2="268.63" y2="448.9" gradientUnits="userSpaceOnUse">
<stop offset="0.074" stop-color="#CEC228"/>
<stop offset="0.58" stop-color="#B2AE18"/>
</linearGradient>
<linearGradient id="paint15_linear_28_64" x1="360.887" y1="540.138" x2="263.078" y2="373.54" gradientUnits="userSpaceOnUse">
<stop stop-color="#59023F"/>
<stop offset="0.119" stop-color="#590444"/>
<stop offset="0.265" stop-color="#5A0A53"/>
<stop offset="0.426" stop-color="#5C156C"/>
<stop offset="0.597" stop-color="#5E238F"/>
<stop offset="0.776" stop-color="#6135BC"/>
<stop offset="0.96" stop-color="#644CF2"/>
<stop offset="1" stop-color="#6551FF"/>
</linearGradient>
<linearGradient id="paint16_linear_28_64" x1="304.794" y1="503.185" x2="305.01" y2="503.941" gradientUnits="userSpaceOnUse">
<stop offset="0.074" stop-color="#CEC228"/>
<stop offset="0.58" stop-color="#B2AE18"/>
</linearGradient>
<linearGradient id="paint17_linear_28_64" x1="376.633" y1="470.074" x2="362.944" y2="463.101" gradientUnits="userSpaceOnUse">
<stop stop-color="#7700BB"/>
<stop offset="1"/>
</linearGradient>
<linearGradient id="paint18_linear_28_64" x1="438.037" y1="530.581" x2="352.417" y2="486.963" gradientUnits="userSpaceOnUse">
<stop stop-color="#7700BB"/>
<stop offset="1"/>
</linearGradient>
<linearGradient id="paint19_linear_28_64" x1="336.688" y1="505.193" x2="238.104" y2="454.97" gradientUnits="userSpaceOnUse">
<stop stop-color="#7700BB"/>
<stop offset="1"/>
</linearGradient>
<linearGradient id="paint20_linear_28_64" x1="325.264" y1="218.576" x2="333.71" y2="222.427" gradientUnits="userSpaceOnUse">
<stop stop-color="#7633FF"/>
<stop offset="0.159" stop-color="#7137FF"/>
<stop offset="0.353" stop-color="#6243FF"/>
<stop offset="0.568" stop-color="#4957FF"/>
<stop offset="0.794" stop-color="#2672FF"/>
<stop offset="1" stop-color="#0090FF"/>
</linearGradient>
<linearGradient id="paint21_linear_28_64" x1="314.018" y1="221.109" x2="321.495" y2="224.519" gradientUnits="userSpaceOnUse">
<stop stop-color="#7633FF"/>
<stop offset="0.159" stop-color="#7137FF"/>
<stop offset="0.353" stop-color="#6243FF"/>
<stop offset="0.568" stop-color="#4957FF"/>
<stop offset="0.794" stop-color="#2672FF"/>
<stop offset="1" stop-color="#0090FF"/>
</linearGradient>
<linearGradient id="paint22_linear_28_64" x1="307.703" y1="232.567" x2="314.365" y2="235.604" gradientUnits="userSpaceOnUse">
<stop stop-color="#7633FF"/>
<stop offset="0.159" stop-color="#7137FF"/>
<stop offset="0.353" stop-color="#6243FF"/>
<stop offset="0.568" stop-color="#4957FF"/>
<stop offset="0.794" stop-color="#2672FF"/>
<stop offset="1" stop-color="#0090FF"/>
</linearGradient>
<linearGradient id="paint23_linear_28_64" x1="293.177" y1="226.13" x2="302.636" y2="230.443" gradientUnits="userSpaceOnUse">
<stop stop-color="#7633FF"/>
<stop offset="0.159" stop-color="#7137FF"/>
<stop offset="0.353" stop-color="#6243FF"/>
<stop offset="0.568" stop-color="#4957FF"/>
<stop offset="0.794" stop-color="#2672FF"/>
<stop offset="1" stop-color="#0090FF"/>
</linearGradient>
<linearGradient id="paint24_linear_28_64" x1="278.735" y1="248.474" x2="289.79" y2="253.515" gradientUnits="userSpaceOnUse">
<stop stop-color="#7633FF"/>
<stop offset="0.159" stop-color="#7137FF"/>
<stop offset="0.353" stop-color="#6243FF"/>
<stop offset="0.568" stop-color="#4957FF"/>
<stop offset="0.794" stop-color="#2672FF"/>
<stop offset="1" stop-color="#0090FF"/>
</linearGradient>
<linearGradient id="paint25_linear_28_64" x1="284.803" y1="235.091" x2="293.728" y2="239.16" gradientUnits="userSpaceOnUse">
<stop stop-color="#7633FF"/>
<stop offset="0.159" stop-color="#7137FF"/>
<stop offset="0.353" stop-color="#6243FF"/>
<stop offset="0.568" stop-color="#4957FF"/>
<stop offset="0.794" stop-color="#2672FF"/>
<stop offset="1" stop-color="#0090FF"/>
</linearGradient>
<linearGradient id="paint26_linear_28_64" x1="483.579" y1="225.743" x2="475.133" y2="229.595" gradientUnits="userSpaceOnUse">
<stop stop-color="#7633FF"/>
<stop offset="0.159" stop-color="#7137FF"/>
<stop offset="0.353" stop-color="#6243FF"/>
<stop offset="0.568" stop-color="#4957FF"/>
<stop offset="0.794" stop-color="#2672FF"/>
<stop offset="1" stop-color="#0090FF"/>
</linearGradient>
<linearGradient id="paint27_linear_28_64" x1="494.824" y1="228.277" x2="487.348" y2="231.686" gradientUnits="userSpaceOnUse">
<stop stop-color="#7633FF"/>
<stop offset="0.159" stop-color="#7137FF"/>
<stop offset="0.353" stop-color="#6243FF"/>
<stop offset="0.568" stop-color="#4957FF"/>
<stop offset="0.794" stop-color="#2672FF"/>
<stop offset="1" stop-color="#0090FF"/>
</linearGradient>
<linearGradient id="paint28_linear_28_64" x1="501.14" y1="239.736" x2="494.478" y2="242.773" gradientUnits="userSpaceOnUse">
<stop stop-color="#7633FF"/>
<stop offset="0.159" stop-color="#7137FF"/>
<stop offset="0.353" stop-color="#6243FF"/>
<stop offset="0.568" stop-color="#4957FF"/>
<stop offset="0.794" stop-color="#2672FF"/>
<stop offset="1" stop-color="#0090FF"/>
</linearGradient>
<linearGradient id="paint29_linear_28_64" x1="515.667" y1="233.299" x2="506.208" y2="237.612" gradientUnits="userSpaceOnUse">
<stop stop-color="#7633FF"/>
<stop offset="0.159" stop-color="#7137FF"/>
<stop offset="0.353" stop-color="#6243FF"/>
<stop offset="0.568" stop-color="#4957FF"/>
<stop offset="0.794" stop-color="#2672FF"/>
<stop offset="1" stop-color="#0090FF"/>
</linearGradient>
<linearGradient id="paint30_linear_28_64" x1="530.108" y1="255.643" x2="519.053" y2="260.684" gradientUnits="userSpaceOnUse">
<stop stop-color="#7633FF"/>
<stop offset="0.159" stop-color="#7137FF"/>
<stop offset="0.353" stop-color="#6243FF"/>
<stop offset="0.568" stop-color="#4957FF"/>
<stop offset="0.794" stop-color="#2672FF"/>
<stop offset="1" stop-color="#0090FF"/>
</linearGradient>
<linearGradient id="paint31_linear_28_64" x1="524.039" y1="242.259" x2="515.114" y2="246.328" gradientUnits="userSpaceOnUse">
<stop stop-color="#7633FF"/>
<stop offset="0.159" stop-color="#7137FF"/>
<stop offset="0.353" stop-color="#6243FF"/>
<stop offset="0.568" stop-color="#4957FF"/>
<stop offset="0.794" stop-color="#2672FF"/>
<stop offset="1" stop-color="#0090FF"/>
</linearGradient>
<linearGradient id="paint32_linear_28_64" x1="416.509" y1="615.104" x2="416.509" y2="547.468" gradientUnits="userSpaceOnUse">
<stop stop-color="#7700BB"/>
<stop offset="0.118" stop-color="#6300B3"/>
<stop offset="0.393" stop-color="#3800A2"/>
<stop offset="0.641" stop-color="#190095"/>
<stop offset="0.852" stop-color="#07008E"/>
<stop offset="1"/>
</linearGradient>
<linearGradient id="paint33_linear_28_64" x1="384.715" y1="549.952" x2="387.142" y2="566.945" gradientUnits="userSpaceOnUse">
<stop stop-color="#270036"/>
<stop offset="0.594" stop-color="#4F008B"/>
<stop offset="1" stop-color="#4C24B1"/>
</linearGradient>
<linearGradient id="paint34_linear_28_64" x1="386.588" y1="529.966" x2="386.588" y2="300.558" gradientUnits="userSpaceOnUse">
<stop stop-color="#270036"/>
<stop offset="0.594" stop-color="#4F008B"/>
<stop offset="1" stop-color="#4C24B1"/>
</linearGradient>
<linearGradient id="paint35_linear_28_64" x1="387.518" y1="504.478" x2="387.518" y2="312.934" gradientUnits="userSpaceOnUse">
<stop stop-color="#7633FF"/>
<stop offset="0.216" stop-color="#4E53FF"/>
<stop offset="0.436" stop-color="#2C6DFF"/>
<stop offset="0.646" stop-color="#1480FF"/>
<stop offset="0.839" stop-color="#058CFF"/>
<stop offset="1" stop-color="#0090FF"/>
</linearGradient>
<linearGradient id="paint36_linear_28_64" x1="321.464" y1="391.627" x2="555.006" y2="187.309" gradientUnits="userSpaceOnUse">
<stop stop-color="#A1BAFF"/>
<stop offset="0.015" stop-color="#A7BFFF"/>
<stop offset="0.09" stop-color="#C3D3FF"/>
<stop offset="0.175" stop-color="#D9E3FF"/>
<stop offset="0.274" stop-color="#EAF0FF"/>
<stop offset="0.396" stop-color="#F6F8FF"/>
<stop offset="0.563" stop-color="#FDFEFF"/>
<stop offset="1" stop-color="white"/>
</linearGradient>
<linearGradient id="paint37_linear_28_64" x1="334.762" y1="362.37" x2="470.084" y2="243.982" gradientUnits="userSpaceOnUse">
<stop stop-color="#7633FF"/>
<stop offset="0.216" stop-color="#4E53FF"/>
<stop offset="0.436" stop-color="#2C6DFF"/>
<stop offset="0.646" stop-color="#1480FF"/>
<stop offset="0.839" stop-color="#058CFF"/>
<stop offset="1" stop-color="#0090FF"/>
</linearGradient>
<linearGradient id="paint38_linear_28_64" x1="309.337" y1="361.822" x2="390.331" y2="290.963" gradientUnits="userSpaceOnUse">
<stop stop-color="#7633FF"/>
<stop offset="0.216" stop-color="#4E53FF"/>
<stop offset="0.436" stop-color="#2C6DFF"/>
<stop offset="0.646" stop-color="#1480FF"/>
<stop offset="0.839" stop-color="#058CFF"/>
<stop offset="1" stop-color="#0090FF"/>
</linearGradient>
<linearGradient id="paint39_linear_28_64" x1="243.032" y1="339.52" x2="265.994" y2="319.432" gradientUnits="userSpaceOnUse">
<stop stop-color="#7633FF"/>
<stop offset="0.216" stop-color="#4E53FF"/>
<stop offset="0.436" stop-color="#2C6DFF"/>
<stop offset="0.646" stop-color="#1480FF"/>
<stop offset="0.839" stop-color="#058CFF"/>
<stop offset="1" stop-color="#0090FF"/>
</linearGradient>
<linearGradient id="paint40_linear_28_64" x1="373.383" y1="471.512" x2="411.76" y2="471.512" gradientUnits="userSpaceOnUse">
<stop stop-color="#A1BAFF"/>
<stop offset="0.015" stop-color="#A7BFFF"/>
<stop offset="0.09" stop-color="#C3D3FF"/>
<stop offset="0.175" stop-color="#D9E3FF"/>
<stop offset="0.274" stop-color="#EAF0FF"/>
<stop offset="0.396" stop-color="#F6F8FF"/>
<stop offset="0.563" stop-color="#FDFEFF"/>
<stop offset="1" stop-color="white"/>
</linearGradient>
<linearGradient id="paint41_linear_28_64" x1="375.142" y1="451.564" x2="410.063" y2="451.564" gradientUnits="userSpaceOnUse">
<stop stop-color="#A1BAFF"/>
<stop offset="0.015" stop-color="#A7BFFF"/>
<stop offset="0.09" stop-color="#C3D3FF"/>
<stop offset="0.175" stop-color="#D9E3FF"/>
<stop offset="0.274" stop-color="#EAF0FF"/>
<stop offset="0.396" stop-color="#F6F8FF"/>
<stop offset="0.563" stop-color="#FDFEFF"/>
<stop offset="1" stop-color="white"/>
</linearGradient>
<linearGradient id="paint42_linear_28_64" x1="362.184" y1="428.989" x2="421.61" y2="428.989" gradientUnits="userSpaceOnUse">
<stop stop-color="#A1BAFF"/>
<stop offset="0.015" stop-color="#A7BFFF"/>
<stop offset="0.09" stop-color="#C3D3FF"/>
<stop offset="0.175" stop-color="#D9E3FF"/>
<stop offset="0.274" stop-color="#EAF0FF"/>
<stop offset="0.396" stop-color="#F6F8FF"/>
<stop offset="0.563" stop-color="#FDFEFF"/>
<stop offset="1" stop-color="white"/>
</linearGradient>
<linearGradient id="paint43_linear_28_64" x1="212.006" y1="526.174" x2="561.17" y2="526.174" gradientUnits="userSpaceOnUse">
<stop stop-color="#A1BAFF"/>
<stop offset="1" stop-color="white"/>
</linearGradient>
<linearGradient id="paint44_linear_28_64" x1="371.988" y1="546.494" x2="402.677" y2="546.494" gradientUnits="userSpaceOnUse">
<stop stop-color="#270036"/>
<stop offset="0.594" stop-color="#4F008B"/>
<stop offset="1" stop-color="#4C24B1"/>
</linearGradient>
<linearGradient id="paint45_linear_28_64" x1="385.285" y1="248.628" x2="428.31" y2="248.628" gradientUnits="userSpaceOnUse">
<stop stop-color="#7633FF"/>
<stop offset="0.159" stop-color="#7137FF"/>
<stop offset="0.353" stop-color="#6243FF"/>
<stop offset="0.568" stop-color="#4957FF"/>
<stop offset="0.794" stop-color="#2672FF"/>
<stop offset="1" stop-color="#0090FF"/>
</linearGradient>
<linearGradient id="paint46_linear_28_64" x1="425.186" y1="253.454" x2="467.669" y2="253.454" gradientUnits="userSpaceOnUse">
<stop stop-color="#A1BAFF"/>
<stop offset="0.015" stop-color="#A7BFFF"/>
<stop offset="0.09" stop-color="#C3D3FF"/>
<stop offset="0.175" stop-color="#D9E3FF"/>
<stop offset="0.274" stop-color="#EAF0FF"/>
<stop offset="0.396" stop-color="#F6F8FF"/>
<stop offset="0.563" stop-color="#FDFEFF"/>
<stop offset="1" stop-color="white"/>
</linearGradient>
<linearGradient id="paint47_linear_28_64" x1="411.759" y1="266.91" x2="424.63" y2="266.91" gradientUnits="userSpaceOnUse">
<stop stop-color="#A1BAFF"/>
<stop offset="0.015" stop-color="#A7BFFF"/>
<stop offset="0.09" stop-color="#C3D3FF"/>
<stop offset="0.175" stop-color="#D9E3FF"/>
<stop offset="0.274" stop-color="#EAF0FF"/>
<stop offset="0.396" stop-color="#F6F8FF"/>
<stop offset="0.563" stop-color="#FDFEFF"/>
<stop offset="1" stop-color="white"/>
</linearGradient>
<linearGradient id="paint48_linear_28_64" x1="419.713" y1="262.491" x2="426.349" y2="262.491" gradientUnits="userSpaceOnUse">
<stop stop-color="#A1BAFF"/>
<stop offset="0.015" stop-color="#A7BFFF"/>
<stop offset="0.09" stop-color="#C3D3FF"/>
<stop offset="0.175" stop-color="#D9E3FF"/>
<stop offset="0.274" stop-color="#EAF0FF"/>
<stop offset="0.396" stop-color="#F6F8FF"/>
<stop offset="0.563" stop-color="#FDFEFF"/>
<stop offset="1" stop-color="white"/>
</linearGradient>
<linearGradient id="paint49_linear_28_64" x1="391.659" y1="223.335" x2="419.233" y2="223.335" gradientUnits="userSpaceOnUse">
<stop stop-color="#A1BAFF"/>
<stop offset="0.015" stop-color="#A7BFFF"/>
<stop offset="0.09" stop-color="#C3D3FF"/>
<stop offset="0.175" stop-color="#D9E3FF"/>
<stop offset="0.274" stop-color="#EAF0FF"/>
<stop offset="0.396" stop-color="#F6F8FF"/>
<stop offset="0.563" stop-color="#FDFEFF"/>
<stop offset="1" stop-color="white"/>
</linearGradient>
<linearGradient id="paint50_linear_28_64" x1="395.672" y1="204.751" x2="421.09" y2="204.751" gradientUnits="userSpaceOnUse">
<stop stop-color="#A1BAFF"/>
<stop offset="0.015" stop-color="#A7BFFF"/>
<stop offset="0.09" stop-color="#C3D3FF"/>
<stop offset="0.175" stop-color="#D9E3FF"/>
<stop offset="0.274" stop-color="#EAF0FF"/>
<stop offset="0.396" stop-color="#F6F8FF"/>
<stop offset="0.563" stop-color="#FDFEFF"/>
<stop offset="1" stop-color="white"/>
</linearGradient>
<linearGradient id="paint51_linear_28_64" x1="424.959" y1="237.813" x2="434.492" y2="237.813" gradientUnits="userSpaceOnUse">
<stop stop-color="#7633FF"/>
<stop offset="0.159" stop-color="#7137FF"/>
<stop offset="0.353" stop-color="#6243FF"/>
<stop offset="0.568" stop-color="#4957FF"/>
<stop offset="0.794" stop-color="#2672FF"/>
<stop offset="1" stop-color="#0090FF"/>
</linearGradient>
<linearGradient id="paint52_linear_28_64" x1="385.172" y1="293.17" x2="457.754" y2="293.17" gradientUnits="userSpaceOnUse">
<stop stop-color="#270036"/>
<stop offset="0.594" stop-color="#4F008B"/>
<stop offset="1" stop-color="#4C24B1"/>
</linearGradient>
<linearGradient id="paint53_linear_28_64" x1="413.15" y1="311.013" x2="439.917" y2="311.013" gradientUnits="userSpaceOnUse">
<stop stop-color="#311842"/>
<stop offset="0.461" stop-color="#190C4B"/>
<stop offset="1" stop-color="#000054"/>
</linearGradient>
<linearGradient id="paint54_linear_28_64" x1="365.774" y1="241.836" x2="405.667" y2="241.836" gradientUnits="userSpaceOnUse">
<stop stop-color="#7633FF"/>
<stop offset="0.159" stop-color="#7137FF"/>
<stop offset="0.353" stop-color="#6243FF"/>
<stop offset="0.568" stop-color="#4957FF"/>
<stop offset="0.794" stop-color="#2672FF"/>
<stop offset="1" stop-color="#0090FF"/>
</linearGradient>
<linearGradient id="paint55_linear_28_64" x1="626.692" y1="449.54" x2="513.821" y2="447.72" gradientUnits="userSpaceOnUse">
<stop stop-color="#7633FF"/>
<stop offset="0.1" stop-color="#624BFF"/>
<stop offset="0.303" stop-color="#3F76FF"/>
<stop offset="0.5" stop-color="#2498FF"/>
<stop offset="0.686" stop-color="#10B0FF"/>
<stop offset="0.857" stop-color="#04BFFF"/>
<stop offset="1" stop-color="#00C4FF"/>
</linearGradient>
<linearGradient id="paint56_linear_28_64" x1="548.915" y1="384.932" x2="571.62" y2="384.932" gradientUnits="userSpaceOnUse">
<stop stop-color="#A1BAFF"/>
<stop offset="0.015" stop-color="#A7BFFF"/>
<stop offset="0.09" stop-color="#C3D3FF"/>
<stop offset="0.175" stop-color="#D9E3FF"/>
<stop offset="0.274" stop-color="#EAF0FF"/>
<stop offset="0.396" stop-color="#F6F8FF"/>
<stop offset="0.563" stop-color="#FDFEFF"/>
<stop offset="1" stop-color="white"/>
</linearGradient>
<linearGradient id="paint57_linear_28_64" x1="591.802" y1="407.329" x2="612.219" y2="407.329" gradientUnits="userSpaceOnUse">
<stop stop-color="#A1BAFF"/>
<stop offset="0.015" stop-color="#A7BFFF"/>
<stop offset="0.09" stop-color="#C3D3FF"/>
<stop offset="0.175" stop-color="#D9E3FF"/>
<stop offset="0.274" stop-color="#EAF0FF"/>
<stop offset="0.396" stop-color="#F6F8FF"/>
<stop offset="0.563" stop-color="#FDFEFF"/>
<stop offset="1" stop-color="white"/>
</linearGradient>
<linearGradient id="paint58_linear_28_64" x1="538.727" y1="541.677" x2="553.811" y2="541.677" gradientUnits="userSpaceOnUse">
<stop stop-color="#A1BAFF"/>
<stop offset="0.015" stop-color="#A7BFFF"/>
<stop offset="0.09" stop-color="#C3D3FF"/>
<stop offset="0.175" stop-color="#D9E3FF"/>
<stop offset="0.274" stop-color="#EAF0FF"/>
<stop offset="0.396" stop-color="#F6F8FF"/>
<stop offset="0.563" stop-color="#FDFEFF"/>
<stop offset="1" stop-color="white"/>
</linearGradient>
<linearGradient id="paint59_linear_28_64" x1="561.282" y1="539.441" x2="597.874" y2="539.441" gradientUnits="userSpaceOnUse">
<stop stop-color="#A1BAFF"/>
<stop offset="0.015" stop-color="#A7BFFF"/>
<stop offset="0.09" stop-color="#C3D3FF"/>
<stop offset="0.175" stop-color="#D9E3FF"/>
<stop offset="0.274" stop-color="#EAF0FF"/>
<stop offset="0.396" stop-color="#F6F8FF"/>
<stop offset="0.563" stop-color="#FDFEFF"/>
<stop offset="1" stop-color="white"/>
</linearGradient>
<linearGradient id="paint60_linear_28_64" x1="576.585" y1="574.646" x2="598.734" y2="574.646" gradientUnits="userSpaceOnUse">
<stop stop-color="#270036"/>
<stop offset="0.594" stop-color="#4F008B"/>
<stop offset="1" stop-color="#4C24B1"/>
</linearGradient>
<linearGradient id="paint61_linear_28_64" x1="585.253" y1="574.122" x2="597.732" y2="574.122" gradientUnits="userSpaceOnUse">
<stop stop-color="#270036"/>
<stop offset="0.594" stop-color="#4F008B"/>
<stop offset="1" stop-color="#4C24B1"/>
</linearGradient>
<linearGradient id="paint62_linear_28_64" x1="543.353" y1="578.811" x2="552.086" y2="578.811" gradientUnits="userSpaceOnUse">
<stop stop-color="#270036"/>
<stop offset="0.594" stop-color="#4F008B"/>
<stop offset="1" stop-color="#4C24B1"/>
</linearGradient>
<linearGradient id="paint63_linear_28_64" x1="571.378" y1="419.822" x2="590.31" y2="419.822" gradientUnits="userSpaceOnUse">
<stop stop-color="#7633FF"/>
<stop offset="0.216" stop-color="#4E53FF"/>
<stop offset="0.436" stop-color="#2C6DFF"/>
<stop offset="0.646" stop-color="#1480FF"/>
<stop offset="0.839" stop-color="#058CFF"/>
<stop offset="1" stop-color="#0090FF"/>
</linearGradient>
<linearGradient id="paint64_linear_28_64" x1="181.621" y1="436.5" x2="196.92" y2="436.5" gradientUnits="userSpaceOnUse">
<stop stop-color="#A1BAFF"/>
<stop offset="0.015" stop-color="#A7BFFF"/>
<stop offset="0.09" stop-color="#C3D3FF"/>
<stop offset="0.175" stop-color="#D9E3FF"/>
<stop offset="0.274" stop-color="#EAF0FF"/>
<stop offset="0.396" stop-color="#F6F8FF"/>
<stop offset="0.563" stop-color="#FDFEFF"/>
<stop offset="1" stop-color="white"/>
</linearGradient>
<linearGradient id="paint65_linear_28_64" x1="182.153" y1="429.24" x2="236.488" y2="429.24" gradientUnits="userSpaceOnUse">
<stop stop-color="#7633FF"/>
<stop offset="0.216" stop-color="#4E53FF"/>
<stop offset="0.436" stop-color="#2C6DFF"/>
<stop offset="0.646" stop-color="#1480FF"/>
<stop offset="0.839" stop-color="#058CFF"/>
<stop offset="1" stop-color="#0090FF"/>
</linearGradient>
<linearGradient id="paint66_linear_28_64" x1="201.265" y1="379.436" x2="226.051" y2="379.436" gradientUnits="userSpaceOnUse">
<stop stop-color="#A1BAFF"/>
<stop offset="0.015" stop-color="#A7BFFF"/>
<stop offset="0.09" stop-color="#C3D3FF"/>
<stop offset="0.175" stop-color="#D9E3FF"/>
<stop offset="0.274" stop-color="#EAF0FF"/>
<stop offset="0.396" stop-color="#F6F8FF"/>
<stop offset="0.563" stop-color="#FDFEFF"/>
<stop offset="1" stop-color="white"/>
</linearGradient>
<linearGradient id="paint67_linear_28_64" x1="179.905" y1="488.638" x2="258.222" y2="608.725" gradientUnits="userSpaceOnUse">
<stop stop-color="#270036"/>
<stop offset="0.594" stop-color="#4F008B"/>
<stop offset="1" stop-color="#4C24B1"/>
</linearGradient>
<linearGradient id="paint68_linear_28_64" x1="203.045" y1="469.651" x2="187.873" y2="561.895" gradientUnits="userSpaceOnUse">
<stop stop-color="#270036"/>
<stop offset="0.594" stop-color="#4F008B"/>
<stop offset="1" stop-color="#4C24B1"/>
</linearGradient>
<linearGradient id="paint69_linear_28_64" x1="161.63" y1="425.05" x2="232.017" y2="425.05" gradientUnits="userSpaceOnUse">
<stop stop-color="#A1BAFF"/>
<stop offset="0.015" stop-color="#A7BFFF"/>
<stop offset="0.09" stop-color="#C3D3FF"/>
<stop offset="0.175" stop-color="#D9E3FF"/>
<stop offset="0.274" stop-color="#EAF0FF"/>
<stop offset="0.396" stop-color="#F6F8FF"/>
<stop offset="0.563" stop-color="#FDFEFF"/>
<stop offset="1" stop-color="white"/>
</linearGradient>
<linearGradient id="paint70_linear_28_64" x1="215.531" y1="405.776" x2="235.557" y2="405.776" gradientUnits="userSpaceOnUse">
<stop stop-color="#7633FF"/>
<stop offset="0.216" stop-color="#4E53FF"/>
<stop offset="0.436" stop-color="#2C6DFF"/>
<stop offset="0.646" stop-color="#1480FF"/>
<stop offset="0.839" stop-color="#058CFF"/>
<stop offset="1" stop-color="#0090FF"/>
</linearGradient>
<linearGradient id="paint71_linear_28_64" x1="188.222" y1="400.432" x2="198.538" y2="400.432" gradientUnits="userSpaceOnUse">
<stop stop-color="#7633FF"/>
<stop offset="0.216" stop-color="#4E53FF"/>
<stop offset="0.436" stop-color="#2C6DFF"/>
<stop offset="0.646" stop-color="#1480FF"/>
<stop offset="0.839" stop-color="#058CFF"/>
<stop offset="1" stop-color="#0090FF"/>
</linearGradient>
<linearGradient id="paint72_linear_28_64" x1="255.798" y1="294.422" x2="368.292" y2="294.422" gradientUnits="userSpaceOnUse">
<stop stop-color="#311842"/>
<stop offset="0.461" stop-color="#190C4B"/>
<stop offset="1" stop-color="#000054"/>
</linearGradient>
<linearGradient id="paint73_linear_28_64" x1="312.947" y1="232.124" x2="315.678" y2="285.829" gradientUnits="userSpaceOnUse">
<stop stop-color="#1DACFF"/>
<stop offset="0.136" stop-color="#1CA9FB"/>
<stop offset="0.274" stop-color="#1B9FEF"/>
<stop offset="0.414" stop-color="#188EDA"/>
<stop offset="0.555" stop-color="#1476BD"/>
<stop offset="0.696" stop-color="#0F5898"/>
<stop offset="0.839" stop-color="#08326B"/>
<stop offset="0.979" stop-color="#010737"/>
<stop offset="1" stop-color="#00002E"/>
</linearGradient>
<linearGradient id="paint74_linear_28_64" x1="303.751" y1="232.13" x2="321.928" y2="232.13" gradientUnits="userSpaceOnUse">
<stop stop-color="#A1BAFF"/>
<stop offset="0.015" stop-color="#A7BFFF"/>
<stop offset="0.09" stop-color="#C3D3FF"/>
<stop offset="0.175" stop-color="#D9E3FF"/>
<stop offset="0.274" stop-color="#EAF0FF"/>
<stop offset="0.396" stop-color="#F6F8FF"/>
<stop offset="0.563" stop-color="#FDFEFF"/>
<stop offset="1" stop-color="white"/>
</linearGradient>
<linearGradient id="paint75_linear_28_64" x1="298.404" y1="216.006" x2="326.724" y2="216.006" gradientUnits="userSpaceOnUse">
<stop stop-color="#A1BAFF"/>
<stop offset="0.015" stop-color="#A7BFFF"/>
<stop offset="0.09" stop-color="#C3D3FF"/>
<stop offset="0.175" stop-color="#D9E3FF"/>
<stop offset="0.274" stop-color="#EAF0FF"/>
<stop offset="0.396" stop-color="#F6F8FF"/>
<stop offset="0.563" stop-color="#FDFEFF"/>
<stop offset="1" stop-color="white"/>
</linearGradient>
<linearGradient id="paint76_linear_28_64" x1="280.209" y1="270.227" x2="316.383" y2="270.227" gradientUnits="userSpaceOnUse">
<stop stop-color="#A1BAFF"/>
<stop offset="0.015" stop-color="#A7BFFF"/>
<stop offset="0.09" stop-color="#C3D3FF"/>
<stop offset="0.175" stop-color="#D9E3FF"/>
<stop offset="0.274" stop-color="#EAF0FF"/>
<stop offset="0.396" stop-color="#F6F8FF"/>
<stop offset="0.563" stop-color="#FDFEFF"/>
<stop offset="1" stop-color="white"/>
</linearGradient>
<linearGradient id="paint77_linear_28_64" x1="298.276" y1="293.092" x2="324.384" y2="293.092" gradientUnits="userSpaceOnUse">
<stop stop-color="#7633FF"/>
<stop offset="0.129" stop-color="#7231FA"/>
<stop offset="0.287" stop-color="#682DEB"/>
<stop offset="0.461" stop-color="#5625D2"/>
<stop offset="0.646" stop-color="#3E1BAF"/>
<stop offset="0.837" stop-color="#1F0D83"/>
<stop offset="1" stop-color="#000057"/>
</linearGradient>
<linearGradient id="paint78_linear_28_64" x1="255.798" y1="294.053" x2="304.769" y2="294.053" gradientUnits="userSpaceOnUse">
<stop stop-color="#7633FF"/>
<stop offset="0.129" stop-color="#7231FA"/>
<stop offset="0.287" stop-color="#682DEB"/>
<stop offset="0.461" stop-color="#5625D2"/>
<stop offset="0.646" stop-color="#3E1BAF"/>
<stop offset="0.837" stop-color="#1F0D83"/>
<stop offset="1" stop-color="#000057"/>
</linearGradient>
<linearGradient id="paint79_linear_28_64" x1="303.447" y1="305.036" x2="316.36" y2="305.036" gradientUnits="userSpaceOnUse">
<stop stop-color="#A1BAFF"/>
<stop offset="0.015" stop-color="#A7BFFF"/>
<stop offset="0.09" stop-color="#C3D3FF"/>
<stop offset="0.175" stop-color="#D9E3FF"/>
<stop offset="0.274" stop-color="#EAF0FF"/>
<stop offset="0.396" stop-color="#F6F8FF"/>
<stop offset="0.563" stop-color="#FDFEFF"/>
<stop offset="1" stop-color="white"/>
</linearGradient>
<linearGradient id="paint80_linear_28_64" x1="311.681" y1="302.213" x2="320.102" y2="302.213" gradientUnits="userSpaceOnUse">
<stop stop-color="#A1BAFF"/>
<stop offset="0.015" stop-color="#A7BFFF"/>
<stop offset="0.09" stop-color="#C3D3FF"/>
<stop offset="0.175" stop-color="#D9E3FF"/>
<stop offset="0.274" stop-color="#EAF0FF"/>
<stop offset="0.396" stop-color="#F6F8FF"/>
<stop offset="0.563" stop-color="#FDFEFF"/>
<stop offset="1" stop-color="white"/>
</linearGradient>
<linearGradient id="paint81_linear_28_64" x1="319.167" y1="291.767" x2="368.292" y2="291.767" gradientUnits="userSpaceOnUse">
<stop stop-color="#7633FF"/>
<stop offset="0.129" stop-color="#7231FA"/>
<stop offset="0.287" stop-color="#682DEB"/>
<stop offset="0.461" stop-color="#5625D2"/>
<stop offset="0.646" stop-color="#3E1BAF"/>
<stop offset="0.837" stop-color="#1F0D83"/>
<stop offset="1" stop-color="#000057"/>
</linearGradient>
<linearGradient id="paint82_linear_28_64" x1="307.426" y1="270.068" x2="348.367" y2="270.068" gradientUnits="userSpaceOnUse">
<stop stop-color="#A1BAFF"/>
<stop offset="0.015" stop-color="#A7BFFF"/>
<stop offset="0.09" stop-color="#C3D3FF"/>
<stop offset="0.175" stop-color="#D9E3FF"/>
<stop offset="0.274" stop-color="#EAF0FF"/>
<stop offset="0.396" stop-color="#F6F8FF"/>
<stop offset="0.563" stop-color="#FDFEFF"/>
<stop offset="1" stop-color="white"/>
</linearGradient>
<linearGradient id="paint83_linear_28_64" x1="312.161" y1="542.662" x2="335.431" y2="542.662" gradientUnits="userSpaceOnUse">
<stop stop-color="#A1BAFF"/>
<stop offset="0.015" stop-color="#A7BFFF"/>
<stop offset="0.09" stop-color="#C3D3FF"/>
<stop offset="0.175" stop-color="#D9E3FF"/>
<stop offset="0.274" stop-color="#EAF0FF"/>
<stop offset="0.396" stop-color="#F6F8FF"/>
<stop offset="0.563" stop-color="#FDFEFF"/>
<stop offset="1" stop-color="white"/>
</linearGradient>
<linearGradient id="paint84_linear_28_64" x1="322.733" y1="552.825" x2="306.22" y2="583.099" gradientUnits="userSpaceOnUse">
<stop stop-color="#8990FF"/>
<stop offset="0.011" stop-color="#8D95FF"/>
<stop offset="0.086" stop-color="#A5B0FF"/>
<stop offset="0.172" stop-color="#B9C6FF"/>
<stop offset="0.271" stop-color="#C8D7FF"/>
<stop offset="0.393" stop-color="#D3E3FF"/>
<stop offset="0.561" stop-color="#D9EAFF"/>
<stop offset="1" stop-color="#DBECFF"/>
</linearGradient>
<linearGradient id="paint85_linear_28_64" x1="333.456" y1="566.918" x2="389.149" y2="566.918" gradientUnits="userSpaceOnUse">
<stop stop-color="#8815FF"/>
<stop offset="0.01" stop-color="#8917FF"/>
<stop offset="0.233" stop-color="#9E42FF"/>
<stop offset="0.45" stop-color="#AF64FF"/>
<stop offset="0.654" stop-color="#BA7CFF"/>
<stop offset="0.843" stop-color="#C28BFF"/>
<stop offset="1" stop-color="#C490FF"/>
</linearGradient>
<linearGradient id="paint86_linear_28_64" x1="346.857" y1="552.744" x2="298.712" y2="595.225" gradientUnits="userSpaceOnUse">
<stop stop-color="#A1BAFF"/>
<stop offset="0.015" stop-color="#A7BFFF"/>
<stop offset="0.09" stop-color="#C3D3FF"/>
<stop offset="0.175" stop-color="#D9E3FF"/>
<stop offset="0.274" stop-color="#EAF0FF"/>
<stop offset="0.396" stop-color="#F6F8FF"/>
<stop offset="0.563" stop-color="#FDFEFF"/>
<stop offset="1" stop-color="white"/>
</linearGradient>
<linearGradient id="paint87_linear_28_64" x1="288.208" y1="567.374" x2="299.132" y2="567.374" gradientUnits="userSpaceOnUse">
<stop stop-color="#7633FF"/>
<stop offset="0.216" stop-color="#4E53FF"/>
<stop offset="0.436" stop-color="#2C6DFF"/>
<stop offset="0.646" stop-color="#1480FF"/>
<stop offset="0.839" stop-color="#058CFF"/>
<stop offset="1" stop-color="#0090FF"/>
</linearGradient>
<linearGradient id="paint88_linear_28_64" x1="388.828" y1="575.404" x2="439.873" y2="575.404" gradientUnits="userSpaceOnUse">
<stop stop-color="#7633FF"/>
<stop offset="0.216" stop-color="#4E53FF"/>
<stop offset="0.436" stop-color="#2C6DFF"/>
<stop offset="0.646" stop-color="#1480FF"/>
<stop offset="0.839" stop-color="#058CFF"/>
<stop offset="1" stop-color="#0090FF"/>
</linearGradient>
<linearGradient id="paint89_linear_28_64" x1="439.115" y1="546.393" x2="476.041" y2="546.393" gradientUnits="userSpaceOnUse">
<stop stop-color="#A1BAFF"/>
<stop offset="0.015" stop-color="#A7BFFF"/>
<stop offset="0.09" stop-color="#C3D3FF"/>
<stop offset="0.175" stop-color="#D9E3FF"/>
<stop offset="0.274" stop-color="#EAF0FF"/>
<stop offset="0.396" stop-color="#F6F8FF"/>
<stop offset="0.563" stop-color="#FDFEFF"/>
<stop offset="1" stop-color="white"/>
</linearGradient>
<linearGradient id="paint90_linear_28_64" x1="449.027" y1="518.705" x2="476.041" y2="518.705" gradientUnits="userSpaceOnUse">
<stop stop-color="#7633FF"/>
<stop offset="0.216" stop-color="#4E53FF"/>
<stop offset="0.436" stop-color="#2C6DFF"/>
<stop offset="0.646" stop-color="#1480FF"/>
<stop offset="0.839" stop-color="#058CFF"/>
<stop offset="1" stop-color="#0090FF"/>
</linearGradient>
<linearGradient id="paint91_linear_28_64" x1="457.273" y1="572.409" x2="420.255" y2="530.535" gradientUnits="userSpaceOnUse">
<stop stop-color="#A1BAFF"/>
<stop offset="0.015" stop-color="#A7BFFF"/>
<stop offset="0.09" stop-color="#C3D3FF"/>
<stop offset="0.175" stop-color="#D9E3FF"/>
<stop offset="0.274" stop-color="#EAF0FF"/>
<stop offset="0.396" stop-color="#F6F8FF"/>
<stop offset="0.563" stop-color="#FDFEFF"/>
<stop offset="1" stop-color="white"/>
</linearGradient>
<linearGradient id="paint92_linear_28_64" x1="417.656" y1="530.018" x2="427.888" y2="530.018" gradientUnits="userSpaceOnUse">
<stop stop-color="#7633FF"/>
<stop offset="0.216" stop-color="#4E53FF"/>
<stop offset="0.436" stop-color="#2C6DFF"/>
<stop offset="0.646" stop-color="#1480FF"/>
<stop offset="0.839" stop-color="#058CFF"/>
<stop offset="1" stop-color="#0090FF"/>
</linearGradient>
<linearGradient id="paint93_linear_28_64" x1="320.396" y1="541.301" x2="287.05" y2="568.061" gradientUnits="userSpaceOnUse">
<stop offset="0.004" stop-color="#7633FF" stop-opacity="0"/>
<stop offset="0.092" stop-color="#7051FF" stop-opacity="0.088"/>
<stop offset="0.263" stop-color="#6685FF" stop-opacity="0.26"/>
<stop offset="0.43" stop-color="#5EB1FF" stop-opacity="0.428"/>
<stop offset="0.591" stop-color="#57D3FF" stop-opacity="0.589"/>
<stop offset="0.743" stop-color="#53EBFF" stop-opacity="0.742"/>
<stop offset="0.883" stop-color="#50FAFF" stop-opacity="0.883"/>
<stop offset="1" stop-color="#4FFFFF"/>
</linearGradient>
<linearGradient id="paint94_linear_28_64" x1="245.637" y1="339.877" x2="142.841" y2="422.373" gradientUnits="userSpaceOnUse">
<stop offset="0.004" stop-color="#7633FF" stop-opacity="0"/>
<stop offset="0.092" stop-color="#7051FF" stop-opacity="0.088"/>
<stop offset="0.263" stop-color="#6685FF" stop-opacity="0.26"/>
<stop offset="0.43" stop-color="#5EB1FF" stop-opacity="0.428"/>
<stop offset="0.591" stop-color="#57D3FF" stop-opacity="0.589"/>
<stop offset="0.743" stop-color="#53EBFF" stop-opacity="0.742"/>
<stop offset="0.883" stop-color="#50FAFF" stop-opacity="0.883"/>
<stop offset="1" stop-color="#4FFFFF"/>
</linearGradient>
<linearGradient id="paint95_linear_28_64" x1="321.473" y1="90.47" x2="310.572" y2="298.455" gradientUnits="userSpaceOnUse">
<stop offset="0.004" stop-color="#7633FF" stop-opacity="0"/>
<stop offset="0.092" stop-color="#7051FF" stop-opacity="0.088"/>
<stop offset="0.263" stop-color="#6685FF" stop-opacity="0.26"/>
<stop offset="0.43" stop-color="#5EB1FF" stop-opacity="0.428"/>
<stop offset="0.591" stop-color="#57D3FF" stop-opacity="0.589"/>
<stop offset="0.743" stop-color="#53EBFF" stop-opacity="0.742"/>
<stop offset="0.883" stop-color="#50FAFF" stop-opacity="0.883"/>
<stop offset="1" stop-color="#4FFFFF"/>
</linearGradient>
<linearGradient id="paint96_linear_28_64" x1="407.327" y1="145.69" x2="509.092" y2="219.626" gradientUnits="userSpaceOnUse">
<stop offset="0.004" stop-color="#7633FF" stop-opacity="0"/>
<stop offset="0.092" stop-color="#7051FF" stop-opacity="0.088"/>
<stop offset="0.263" stop-color="#6685FF" stop-opacity="0.26"/>
<stop offset="0.43" stop-color="#5EB1FF" stop-opacity="0.428"/>
<stop offset="0.591" stop-color="#57D3FF" stop-opacity="0.589"/>
<stop offset="0.743" stop-color="#53EBFF" stop-opacity="0.742"/>
<stop offset="0.883" stop-color="#50FAFF" stop-opacity="0.883"/>
<stop offset="1" stop-color="#4FFFFF"/>
</linearGradient>
<linearGradient id="paint97_linear_28_64" x1="559.847" y1="382.136" x2="605.233" y2="396.012" gradientUnits="userSpaceOnUse">
<stop offset="0.004" stop-color="#7633FF" stop-opacity="0"/>
<stop offset="0.092" stop-color="#7051FF" stop-opacity="0.088"/>
<stop offset="0.263" stop-color="#6685FF" stop-opacity="0.26"/>
<stop offset="0.43" stop-color="#5EB1FF" stop-opacity="0.428"/>
<stop offset="0.591" stop-color="#57D3FF" stop-opacity="0.589"/>
<stop offset="0.743" stop-color="#53EBFF" stop-opacity="0.742"/>
<stop offset="0.883" stop-color="#50FAFF" stop-opacity="0.883"/>
<stop offset="1" stop-color="#4FFFFF"/>
</linearGradient>
</defs>
</svg>
