<svg xmlns="http://www.w3.org/2000/svg" viewBox="0 0 500 500"><g id="freepik--Floor--inject-261"><path id="freepik--floor--inject-261" d="M77.49,245.37c-95.18,55-95.18,144.05,0,199s249.5,54.95,344.67,0,95.18-144,0-199S172.66,190.42,77.49,245.37Z" style="fill:#fafafa"></path></g><g id="freepik--Plants--inject-261"><g id="freepik--plants--inject-261"><path d="M450.41,363.54l9.53,5.5c-.13-3.4-.42-8.46,0-11.87,2.88-20.83,11-27.7,14.86-37.84,4.06-10.68-.89-14.11-7.33-12.19-5.74,1.71-14.05,10.21-16.67,25.75C449.1,343.24,449.41,354.47,450.41,363.54Z" style="fill:#68C86E"></path><path d="M450.41,363.54l9.53,5.5c-.13-3.4-.42-8.46,0-11.87,2.88-20.83,11-27.7,14.86-37.84,4.06-10.68-.89-14.11-7.33-12.19-5.74,1.71-14.05,10.21-16.67,25.75C449.1,343.24,449.41,354.47,450.41,363.54Z" style="fill:#fff;opacity:0.65"></path><path d="M455.46,366.46l1,.55c-3.41-24.29,4.9-45.36,13.1-54.06a.42.42,0,0,0,0-.59.41.41,0,0,0-.59,0C460.7,321.08,452.4,342.29,455.46,366.46Z" style="fill:#fff"></path><path d="M457.26,367.49l5.36,3.1h0c2.85-8.39,5.78-11.76,9.41-17.28,3.32-5,7.17-8.14,9.22-11.67,1.81-3.13,3.17-7.06.48-9.44-4.29-3.78-9.88.22-13.73,4.55C464.68,340.5,458,350.45,457.26,367.49Z" style="fill:#68C86E"></path><path d="M457.26,367.49l5.36,3.1h0c2.85-8.39,5.78-11.76,9.41-17.28,3.32-5,7.17-8.14,9.22-11.67,1.81-3.13,3.17-7.06.48-9.44-4.29-3.78-9.88.22-13.73,4.55C464.68,340.5,458,350.45,457.26,367.49Z" style="fill:#fff;opacity:0.30000000000000004"></path><path d="M459.46,368.76l.78.46c2.25-13.28,11.27-28.65,16.88-32.28a.43.43,0,0,0-.47-.72C470.85,340,461.85,355.28,459.46,368.76Z" style="fill:#fff"></path></g></g><g id="freepik--Shadows--inject-261"><path id="freepik--Shadow--inject-261" d="M282.51,387.85l95,54.92a1.38,1.38,0,0,0,1.25,0l59.85-34.58c.35-.2.35-.52,0-.72l-95-54.92a1.38,1.38,0,0,0-1.25,0l-59.85,34.57A.39.39,0,0,0,282.51,387.85Z" style="fill:#e0e0e0"></path><path id="freepik--shadow--inject-261" d="M405.85,410.87,467.39,376a1.35,1.35,0,0,0,0-2.57l-59.76-35a5,5,0,0,0-4.46,0l-61.54,34.91a1.36,1.36,0,0,0,0,2.57l59.77,35A4.88,4.88,0,0,0,405.85,410.87Z" style="fill:#e0e0e0"></path><ellipse id="freepik--shadow--inject-261" cx="268.19" cy="344.16" rx="52.26" ry="30.17" style="fill:#e0e0e0"></ellipse><path id="freepik--shadow--inject-261" d="M114.69,407.55c-19.5,11.26-19.5,29.52,0,40.77s51.12,11.26,70.62,0,19.51-29.51,0-40.77S134.19,396.29,114.69,407.55Z" style="fill:#e0e0e0"></path><path id="freepik--shadow--inject-261" d="M44.36,440.93,21.75,427.87c-1.35-.78-1.35-2,0-2.82L195.58,324.76a5.38,5.38,0,0,1,4.88,0l22.61,13c1.35.78,1.35,2,0,2.82L49.25,440.93A5.4,5.4,0,0,1,44.36,440.93Z" style="fill:#e0e0e0"></path></g><g id="freepik--Gears--inject-261"><g id="freepik--Gear--inject-261"><path d="M392.87,78.08h0a1.07,1.07,0,0,0-1.12.08l-2.32,1.45L388.91,81a2.55,2.55,0,0,0,.59,2.5,10,10,0,0,1,1,1.26,1.58,1.58,0,0,0,2.15.49l5.41-3.38a1.09,1.09,0,0,1,1.1-.1Zm-8.5,19.1c-.7-4.24-3.45-6.4-7.05-6.15a10.65,10.65,0,0,1,.71,2.49c1.11,6.73-3.37,16.21-10,21.16a13.52,13.52,0,0,1-6.93,2.92c2.1,4.53,7.55,5,13.28.74C381,113.39,385.48,103.91,384.37,97.18Zm.46-28.7h0a1.25,1.25,0,0,0-.43-.17l-4-.94a2.24,2.24,0,0,0-2.31,1l-3.89,7a3.26,3.26,0,0,1-.86.93h0a3.79,3.79,0,0,1-.65.42l1.14,3.87a1.38,1.38,0,0,0,1.9.86,20.73,20.73,0,0,1,2.5-.76,4.23,4.23,0,0,0,1.46-.72,3.2,3.2,0,0,0,.87-.94l3.88-7a2.25,2.25,0,0,1,2.31-1l4,.94a1.34,1.34,0,0,1,.41.15Zm-12.21,68.24a1.21,1.21,0,0,1-.38-.61l-1.31-4.44a1.38,1.38,0,0,0-1.9-.87,19.91,19.91,0,0,1-2.51.77,3.58,3.58,0,0,0-.79.31l.17.57a1.19,1.19,0,0,0,.52.69h0Zm-7-64.89a.88.88,0,0,0-.44-.12,1.21,1.21,0,0,0-.75.27l-6.13,4.57a2.25,2.25,0,0,0-.24.21,1.45,1.45,0,0,0-.16.18,3.78,3.78,0,0,0-.54.92c0,.07-.05.15-.08.23h0a2.74,2.74,0,0,0-.18.94l.3,5.63a4.41,4.41,0,0,1-1,2.71A44.88,44.88,0,0,0,353.59,91a3.11,3.11,0,0,1-1.35,1,2,2,0,0,1-.54.14,1.09,1.09,0,0,1-.25,0,1.4,1.4,0,0,1-.35,0l-3.9-.23h-.09a1.72,1.72,0,0,0-.32,0,1.5,1.5,0,0,0-.29.06h0a2.08,2.08,0,0,0-.32.12,2.53,2.53,0,0,0-.57.34,2.4,2.4,0,0,0-.63.76l-3.76,8a1.5,1.5,0,0,0,.59,1.93l4.31,2.48a1.85,1.85,0,0,1,.08,1.09,35.36,35.36,0,0,0-.72,3.81,4.78,4.78,0,0,1-1.34,2.58l-.07,0-5.37,4.69a1.66,1.66,0,0,0-.26.27.33.33,0,0,0,0,.06,1.46,1.46,0,0,0-.22.33,3,3,0,0,0-.42,1.91l.95,5.72a1.11,1.11,0,0,0,.46.78l6.31,3.64a1.11,1.11,0,0,1-.43-.76l-.94-5.72a2.56,2.56,0,0,1,.07-1.09,3.08,3.08,0,0,1,.86-1.48l5.36-4.69.07-.05a4.75,4.75,0,0,0,1.34-2.58,35.43,35.43,0,0,1,.73-3.81,1.91,1.91,0,0,0-1.06-2.13l-3.14-1.34a1.51,1.51,0,0,1-.79-2l3.76-7.95a2.1,2.1,0,0,1,.63-.77,2.47,2.47,0,0,1,1.62-.55l3.91.23a2.56,2.56,0,0,0,1.13-.2,3.11,3.11,0,0,0,1.35-1c.89-1.24,1.85-2.45,2.85-3.59a4.35,4.35,0,0,0,1-2.71l-.3-5.62a2.58,2.58,0,0,1,.16-1,3.18,3.18,0,0,1,1-1.53l6.12-4.57a1.05,1.05,0,0,1,1.2-.15Zm-9.8,59.51a2.56,2.56,0,0,0-.61-2.5,9.05,9.05,0,0,1-1-1.26,1.59,1.59,0,0,0-2.15-.5l-3.1,1.93-2.29,5.84a1.27,1.27,0,0,0,.52,1.61h0l6.36,3.67a1.28,1.28,0,0,1-.52-1.62Z" style="fill:#e6e6e6"></path><path d="M392.87,78.08h0a1.07,1.07,0,0,0-1.12.08l-2.32,1.45L388.91,81a2.55,2.55,0,0,0,.59,2.5,10,10,0,0,1,1,1.26,1.58,1.58,0,0,0,2.15.49l5.41-3.38a1.09,1.09,0,0,1,1.1-.1Zm-8.5,19.1c-.7-4.24-3.45-6.4-7.05-6.15a10.65,10.65,0,0,1,.71,2.49c1.11,6.73-3.37,16.21-10,21.16a13.52,13.52,0,0,1-6.93,2.92c2.1,4.53,7.55,5,13.28.74C381,113.39,385.48,103.91,384.37,97.18Zm.46-28.7h0a1.25,1.25,0,0,0-.43-.17l-4-.94a2.24,2.24,0,0,0-2.31,1l-3.89,7a3.26,3.26,0,0,1-.86.93h0a3.79,3.79,0,0,1-.65.42l1.14,3.87a1.38,1.38,0,0,0,1.9.86,20.73,20.73,0,0,1,2.5-.76,4.23,4.23,0,0,0,1.46-.72,3.2,3.2,0,0,0,.87-.94l3.88-7a2.25,2.25,0,0,1,2.31-1l4,.94a1.34,1.34,0,0,1,.41.15Zm-12.21,68.24a1.21,1.21,0,0,1-.38-.61l-1.31-4.44a1.38,1.38,0,0,0-1.9-.87,19.91,19.91,0,0,1-2.51.77,3.58,3.58,0,0,0-.79.31l.17.57a1.19,1.19,0,0,0,.52.69h0Zm-7-64.89a.88.88,0,0,0-.44-.12,1.21,1.21,0,0,0-.75.27l-6.13,4.57a2.25,2.25,0,0,0-.24.21,1.45,1.45,0,0,0-.16.18,3.78,3.78,0,0,0-.54.92c0,.07-.05.15-.08.23h0a2.74,2.74,0,0,0-.18.94l.3,5.63a4.41,4.41,0,0,1-1,2.71A44.88,44.88,0,0,0,353.59,91a3.11,3.11,0,0,1-1.35,1,2,2,0,0,1-.54.14,1.09,1.09,0,0,1-.25,0,1.4,1.4,0,0,1-.35,0l-3.9-.23h-.09a1.72,1.72,0,0,0-.32,0,1.5,1.5,0,0,0-.29.06h0a2.08,2.08,0,0,0-.32.12,2.53,2.53,0,0,0-.57.34,2.4,2.4,0,0,0-.63.76l-3.76,8a1.5,1.5,0,0,0,.59,1.93l4.31,2.48a1.85,1.85,0,0,1,.08,1.09,35.36,35.36,0,0,0-.72,3.81,4.78,4.78,0,0,1-1.34,2.58l-.07,0-5.37,4.69a1.66,1.66,0,0,0-.26.27.33.33,0,0,0,0,.06,1.46,1.46,0,0,0-.22.33,3,3,0,0,0-.42,1.91l.95,5.72a1.11,1.11,0,0,0,.46.78l6.31,3.64a1.11,1.11,0,0,1-.43-.76l-.94-5.72a2.56,2.56,0,0,1,.07-1.09,3.08,3.08,0,0,1,.86-1.48l5.36-4.69.07-.05a4.75,4.75,0,0,0,1.34-2.58,35.43,35.43,0,0,1,.73-3.81,1.91,1.91,0,0,0-1.06-2.13l-3.14-1.34a1.51,1.51,0,0,1-.79-2l3.76-7.95a2.1,2.1,0,0,1,.63-.77,2.47,2.47,0,0,1,1.62-.55l3.91.23a2.56,2.56,0,0,0,1.13-.2,3.11,3.11,0,0,0,1.35-1c.89-1.24,1.85-2.45,2.85-3.59a4.35,4.35,0,0,0,1-2.71l-.3-5.62a2.58,2.58,0,0,1,.16-1,3.18,3.18,0,0,1,1-1.53l6.12-4.57a1.05,1.05,0,0,1,1.2-.15Zm-9.8,59.51a2.56,2.56,0,0,0-.61-2.5,9.05,9.05,0,0,1-1-1.26,1.59,1.59,0,0,0-2.15-.5l-3.1,1.93-2.29,5.84a1.27,1.27,0,0,0,.52,1.61h0l6.36,3.67a1.28,1.28,0,0,1-.52-1.62Z" style="opacity:0.1"></path><path d="M350.38,116.79,345,121.48a3.08,3.08,0,0,0-.86,1.48l-6.33-3.65a4,4,0,0,1,.33-.83,1.46,1.46,0,0,1,.22-.33.33.33,0,0,1,0-.06,1.66,1.66,0,0,1,.26-.27l5.37-4.69Z" style="fill:#e0e0e0"></path><path d="M358.58,95.61a2.56,2.56,0,0,1-1.13.2l-3.91-.23a2.47,2.47,0,0,0-1.62.55l-6.34-3.66a2.53,2.53,0,0,1,.57-.34,2.08,2.08,0,0,1,.32-.12h0a1.5,1.5,0,0,1,.29-.06,1.72,1.72,0,0,1,.32,0h.09l3.9.23a1.4,1.4,0,0,0,.35,0l.25,0a3.39,3.39,0,0,0,.52-.15h0Z" style="fill:#e0e0e0"></path><path d="M399.2,81.72a1.07,1.07,0,0,0-1.1.12l-5.41,3.37a1.58,1.58,0,0,1-2.15-.5,9.81,9.81,0,0,0-1-1.26,2.55,2.55,0,0,1-.59-2.5l.52-1.32,2.32-1.45a1.08,1.08,0,0,1,1.12-.1h0Z" style="fill:#e0e0e0"></path><path d="M391.16,72.13a1.34,1.34,0,0,0-.41-.15l-4-.94a2.25,2.25,0,0,0-2.31,1l-3.88,7a3.2,3.2,0,0,1-.87.94l-6.34-3.67a3.26,3.26,0,0,0,.86-.93l3.89-7a2.24,2.24,0,0,1,2.31-1l4,.94a1.25,1.25,0,0,1,.43.17h0Z" style="fill:#e0e0e0"></path><path d="M372,75.49a1.05,1.05,0,0,0-1.2.15l-6.12,4.57a3.18,3.18,0,0,0-1,1.53l-6.34-3.65c0-.08.06-.16.08-.23a3.78,3.78,0,0,1,.54-.92,1.45,1.45,0,0,1,.16-.18,2.25,2.25,0,0,1,.24-.21L364.43,72a1.21,1.21,0,0,1,.75-.27.88.88,0,0,1,.44.12Z" style="fill:#e0e0e0"></path><path d="M400.64,88.25l-.95-5.72a1,1,0,0,0-1.59-.69l-5.41,3.37a1.58,1.58,0,0,1-2.15-.5,11.53,11.53,0,0,0-1-1.26,2.51,2.51,0,0,1-.6-2.49l2.82-7.18a1.3,1.3,0,0,0-1-1.8l-4-.93a2.2,2.2,0,0,0-2.3,1l-3.89,7a4,4,0,0,1-2.32,1.65,20.52,20.52,0,0,0-2.51.78,1.39,1.39,0,0,1-1.9-.88l-1.32-4.43a1,1,0,0,0-1.7-.55l-6.12,4.57a3.23,3.23,0,0,0-1.18,2.49l.29,5.62a4.34,4.34,0,0,1-1,2.71,45,45,0,0,0-2.86,3.59,3.19,3.19,0,0,1-2.49,1.19l-3.89-.23a2.52,2.52,0,0,0-2.26,1.31l-3.76,8a1.5,1.5,0,0,0,.79,2l3.14,1.35a1.87,1.87,0,0,1,1.05,2.12,38,38,0,0,0-.72,3.81,4.78,4.78,0,0,1-1.34,2.58L345,121.48a3.1,3.1,0,0,0-.93,2.57l.94,5.72a1,1,0,0,0,1.59.69l5.41-3.38a1.58,1.58,0,0,1,2.15.5,10.83,10.83,0,0,0,1,1.26,2.53,2.53,0,0,1,.6,2.5L353,138.52a1.32,1.32,0,0,0,1,1.8l4,.93a2.24,2.24,0,0,0,2.31-1l3.88-7a4,4,0,0,1,2.32-1.66,19.91,19.91,0,0,0,2.51-.77,1.38,1.38,0,0,1,1.9.87l1.32,4.44a1,1,0,0,0,1.7.55l6.12-4.57a3.31,3.31,0,0,0,1.19-2.5L381,124a4.35,4.35,0,0,1,1-2.7c1-1.15,2-2.35,2.86-3.6a3.16,3.16,0,0,1,2.48-1.19l3.9.24a2.52,2.52,0,0,0,2.25-1.32l3.76-8a1.51,1.51,0,0,0-.79-2l-3.14-1.34a1.89,1.89,0,0,1-1.05-2.13,35.19,35.19,0,0,0,.72-3.8,4.75,4.75,0,0,1,1.34-2.58l5.43-4.75A3.1,3.1,0,0,0,400.64,88.25Zm-26.27,30.09c-6.63,5-12.91,3.51-14-3.22s3.37-16.21,10-21.17,12.91-3.51,14,3.23S381,113.39,374.37,118.34Z" style="fill:#f5f5f5"></path><path d="M392.62,115.11a1.69,1.69,0,0,1-1.39.75l-3.9-.23a4,4,0,0,0-3.23,1.54c-.89,1.23-1.83,2.42-2.81,3.53a4.49,4.49,0,0,0-.44.62,5.17,5.17,0,0,0-.75,2.7l.3,5.62a2.27,2.27,0,0,1-.35,1.18,2.08,2.08,0,0,1-.49.58L373.44,136a.37.37,0,0,1-.25.1.36.36,0,0,1-.12-.2l-1.32-4.44a2.19,2.19,0,0,0-1.13-1.37,2.32,2.32,0,0,0-1.9-.06,21.06,21.06,0,0,1-2.39.74,4.83,4.83,0,0,0-2.83,2l-.05.07-3.89,7h0a1.34,1.34,0,0,1-1.36.59l-4-.93a.56.56,0,0,1-.37-.25.47.47,0,0,1,0-.4l2.82-7.18a3.38,3.38,0,0,0-.78-3.4,11.89,11.89,0,0,1-.94-1.16,2.43,2.43,0,0,0-3.31-.73l-5.41,3.37c-.13.08-.21.09-.23.08a.62.62,0,0,1-.07-.19l-.94-5.71a2.29,2.29,0,0,1,.33-1.38,1.93,1.93,0,0,1,.32-.4l5.43-4.75a4.55,4.55,0,0,0,.9-1.12,5.4,5.4,0,0,0,.74-2,32.54,32.54,0,0,1,.7-3.71,2.76,2.76,0,0,0-1.55-3.12l-3.14-1.35a.68.68,0,0,1-.38-.38.62.62,0,0,1,0-.5l3.76-7.95a.3.3,0,0,1,0-.08,1.67,1.67,0,0,1,1.38-.74l3.9.23a4,4,0,0,0,3.23-1.55c.89-1.23,1.84-2.42,2.81-3.52a3.62,3.62,0,0,0,.44-.62,5.13,5.13,0,0,0,.75-2.7l-.3-5.63a2.43,2.43,0,0,1,.35-1.18,2,2,0,0,1,.49-.57l6.12-4.57c.13-.1.22-.11.25-.1s.08.07.12.2L373,80.87a2.17,2.17,0,0,0,1.13,1.36,2.36,2.36,0,0,0,1.9.07,17.66,17.66,0,0,1,2.39-.74,4.88,4.88,0,0,0,2.84-2l0-.08,3.89-7h0a1.36,1.36,0,0,1,1.36-.59l4,.93a.54.54,0,0,1,.37.26.44.44,0,0,1,0,.39l-2.82,7.18a3.39,3.39,0,0,0,.78,3.41,9,9,0,0,1,.95,1.16,2.43,2.43,0,0,0,3.3.73l5.42-3.38a.41.41,0,0,1,.22-.08.36.36,0,0,1,.07.19l.94,5.72a2.27,2.27,0,0,1-.33,1.37,1.77,1.77,0,0,1-.32.41l-5.43,4.74a4.74,4.74,0,0,0-.9,1.12,5.42,5.42,0,0,0-.73,2,35,35,0,0,1-.71,3.71,2.77,2.77,0,0,0,1.56,3.12l3.13,1.34a.72.72,0,0,1,.38.39.64.64,0,0,1,0,.49l-3.76,8a.25.25,0,0,0,0,.07m-29.66-14c-2.88,4.86-4.14,10-3.46,14.18.52,3.13,2.13,5.39,4.54,6.36,3,1.22,7,.28,10.84-2.59a26.9,26.9,0,0,0,6.89-7.82c2.88-4.85,4.13-10,3.45-14.17-.52-3.13-2.13-5.39-4.54-6.36-3-1.23-7-.29-10.84,2.59a26.81,26.81,0,0,0-6.88,7.81m30.39,14.47a1.09,1.09,0,0,0,.08-.15l3.76-8a1.51,1.51,0,0,0-.79-2l-3.14-1.34a1.89,1.89,0,0,1-1.05-2.13,35.19,35.19,0,0,0,.72-3.8,4.57,4.57,0,0,1,.62-1.67,3.76,3.76,0,0,1,.72-.91l5.43-4.75a2.33,2.33,0,0,0,.5-.61,3.1,3.1,0,0,0,.44-2l-.95-5.72a1,1,0,0,0-1.59-.69l-5.41,3.37a1.58,1.58,0,0,1-2.15-.5,11.53,11.53,0,0,0-1-1.26,2.51,2.51,0,0,1-.6-2.49l2.82-7.18a1.3,1.3,0,0,0-1-1.8l-4-.93a2.2,2.2,0,0,0-2.28,1l0,0-3.89,7,0,.05a4,4,0,0,1-2.29,1.6,20,20,0,0,0-2.51.78,1.39,1.39,0,0,1-1.9-.88l-1.32-4.43a1,1,0,0,0-1.7-.55l-6.12,4.57a2.72,2.72,0,0,0-.71.82,3.15,3.15,0,0,0-.47,1.67l.29,5.62a4.24,4.24,0,0,1-.63,2.22,3,3,0,0,1-.34.49,45,45,0,0,0-2.86,3.59,3.19,3.19,0,0,1-2.49,1.19l-3.89-.23a2.52,2.52,0,0,0-2.18,1.17.64.64,0,0,0-.08.14l-3.76,8a1.5,1.5,0,0,0,.79,2l3.14,1.35a1.87,1.87,0,0,1,1.05,2.12,38,38,0,0,0-.72,3.81,4.57,4.57,0,0,1-.62,1.67,3.76,3.76,0,0,1-.72.91L345,121.48a2.57,2.57,0,0,0-.5.62,3.08,3.08,0,0,0-.43,2l.94,5.72a1,1,0,0,0,1.59.69l5.41-3.38a1.58,1.58,0,0,1,2.15.5,10.83,10.83,0,0,0,1,1.26,2.53,2.53,0,0,1,.6,2.5L353,138.52a1.32,1.32,0,0,0,1,1.8l4,.93a2.22,2.22,0,0,0,2.28-1l0,0,3.88-7,0,0a4,4,0,0,1,2.29-1.61,19.91,19.91,0,0,0,2.51-.77,1.38,1.38,0,0,1,1.9.87l1.32,4.44a1,1,0,0,0,1.7.55l6.12-4.57a3.08,3.08,0,0,0,.72-.83,3.19,3.19,0,0,0,.47-1.67L381,124a4.27,4.27,0,0,1,.63-2.22,3,3,0,0,1,.35-.48c1-1.15,2-2.35,2.86-3.6a3.16,3.16,0,0,1,2.48-1.19l3.9.24a2.53,2.53,0,0,0,2.17-1.17Zm-29.66-14A26.26,26.26,0,0,1,370.35,94c6.64-5,12.91-3.51,14,3.23.67,4.07-.69,9.13-3.34,13.6a26.09,26.09,0,0,1-6.66,7.56c-6.63,5-12.91,3.51-14-3.22-.67-4.07.7-9.13,3.34-13.6Z" style="fill:#ebebeb"></path></g><g id="freepik--gear--inject-261"><path d="M336.16,53.13h0a.84.84,0,0,0-.88.06l-1.81,1.13-.42,1.05a2,2,0,0,0,.47,2,7.92,7.92,0,0,1,.81,1,1.25,1.25,0,0,0,1.69.38l4.24-2.64a.79.79,0,0,1,.85-.08Zm-6.66,15c-.55-3.33-2.7-5-5.52-4.82a8.53,8.53,0,0,1,.56,1.95c.87,5.27-2.65,12.69-7.84,16.57a10.5,10.5,0,0,1-5.42,2.29c1.64,3.54,5.91,3.93,10.39.58C326.87,80.78,330.37,73.36,329.5,68.09Zm.36-22.48h0a1.22,1.22,0,0,0-.33-.14l-3.16-.73a1.75,1.75,0,0,0-1.81.79L321.51,51a2.67,2.67,0,0,1-.67.73h0a3.36,3.36,0,0,1-.51.32l.89,3a1.09,1.09,0,0,0,1.49.68,16.27,16.27,0,0,1,2-.6,3.32,3.32,0,0,0,1.13-.56,2.4,2.4,0,0,0,.69-.74l3-5.5a1.74,1.74,0,0,1,1.8-.78l3.17.73a1.33,1.33,0,0,1,.32.12ZM320.3,99.05a.86.86,0,0,1-.29-.47l-1-3.48a1.08,1.08,0,0,0-1.49-.68,15.61,15.61,0,0,1-2,.6,2.82,2.82,0,0,0-.62.24l.14.45a.89.89,0,0,0,.4.54h0Zm-5.48-50.82a.73.73,0,0,0-.35-.09,1,1,0,0,0-.59.21l-4.79,3.58a1,1,0,0,0-.19.16,1.79,1.79,0,0,0-.13.14,3.4,3.4,0,0,0-.42.72l-.06.18h0a2.09,2.09,0,0,0-.14.74l.24,4.41a3.43,3.43,0,0,1-.77,2.12c-.79.9-1.54,1.84-2.24,2.81a2.4,2.4,0,0,1-1.05.78,2.38,2.38,0,0,1-.42.11.69.69,0,0,1-.2,0,.86.86,0,0,1-.28,0L300.39,64h-.07a1.07,1.07,0,0,0-.25,0,.93.93,0,0,0-.23,0h0a1.25,1.25,0,0,0-.25.09,2.07,2.07,0,0,0-.45.27,1.67,1.67,0,0,0-.49.6l-2.95,6.23a1.18,1.18,0,0,0,.47,1.51l3.37,1.94a1.48,1.48,0,0,1,.06.86,26.84,26.84,0,0,0-.56,3,3.77,3.77,0,0,1-1,2l-.05,0-4.21,3.67a1,1,0,0,0-.2.22l0,0a1.17,1.17,0,0,0-.17.26,2.32,2.32,0,0,0-.33,1.49l.75,4.48a.85.85,0,0,0,.35.61L299,94.2a.87.87,0,0,1-.34-.59L298,89.13a2.13,2.13,0,0,1,.06-.86,2.36,2.36,0,0,1,.67-1.15l4.2-3.68.05,0a3.65,3.65,0,0,0,1.06-2,25.16,25.16,0,0,1,.57-3,1.49,1.49,0,0,0-.83-1.66l-2.46-1a1.19,1.19,0,0,1-.62-1.6l2.94-6.23a1.77,1.77,0,0,1,.5-.6,2,2,0,0,1,1.27-.43l3.06.18a2,2,0,0,0,.88-.16,2.34,2.34,0,0,0,1.06-.77c.7-1,1.45-1.92,2.23-2.81a3.39,3.39,0,0,0,.77-2.12l-.23-4.4a1.89,1.89,0,0,1,.12-.76,2.59,2.59,0,0,1,.81-1.2l4.79-3.57a.82.82,0,0,1,.94-.12Zm-7.68,46.61a2,2,0,0,0-.47-2,8.61,8.61,0,0,1-.81-1,1.24,1.24,0,0,0-1.68-.4L301.76,93,300,97.59a1,1,0,0,0,.41,1.26h0l5,2.87a1,1,0,0,1-.41-1.27Z" style="fill:#e6e6e6"></path><path d="M336.16,53.13h0a.84.84,0,0,0-.88.06l-1.81,1.13-.42,1.05a2,2,0,0,0,.47,2,7.92,7.92,0,0,1,.81,1,1.25,1.25,0,0,0,1.69.38l4.24-2.64a.79.79,0,0,1,.85-.08Zm-6.66,15c-.55-3.33-2.7-5-5.52-4.82a8.53,8.53,0,0,1,.56,1.95c.87,5.27-2.65,12.69-7.84,16.57a10.5,10.5,0,0,1-5.42,2.29c1.64,3.54,5.91,3.93,10.39.58C326.87,80.78,330.37,73.36,329.5,68.09Zm.36-22.48h0a1.22,1.22,0,0,0-.33-.14l-3.16-.73a1.75,1.75,0,0,0-1.81.79L321.51,51a2.67,2.67,0,0,1-.67.73h0a3.36,3.36,0,0,1-.51.32l.89,3a1.09,1.09,0,0,0,1.49.68,16.27,16.27,0,0,1,2-.6,3.32,3.32,0,0,0,1.13-.56,2.4,2.4,0,0,0,.69-.74l3-5.5a1.74,1.74,0,0,1,1.8-.78l3.17.73a1.33,1.33,0,0,1,.32.12ZM320.3,99.05a.86.86,0,0,1-.29-.47l-1-3.48a1.08,1.08,0,0,0-1.49-.68,15.61,15.61,0,0,1-2,.6,2.82,2.82,0,0,0-.62.24l.14.45a.89.89,0,0,0,.4.54h0Zm-5.48-50.82a.73.73,0,0,0-.35-.09,1,1,0,0,0-.59.21l-4.79,3.58a1,1,0,0,0-.19.16,1.79,1.79,0,0,0-.13.14,3.4,3.4,0,0,0-.42.72l-.06.18h0a2.09,2.09,0,0,0-.14.74l.24,4.41a3.43,3.43,0,0,1-.77,2.12c-.79.9-1.54,1.84-2.24,2.81a2.4,2.4,0,0,1-1.05.78,2.38,2.38,0,0,1-.42.11.69.69,0,0,1-.2,0,.86.86,0,0,1-.28,0L300.39,64h-.07a1.07,1.07,0,0,0-.25,0,.93.93,0,0,0-.23,0h0a1.25,1.25,0,0,0-.25.09,2.07,2.07,0,0,0-.45.27,1.67,1.67,0,0,0-.49.6l-2.95,6.23a1.18,1.18,0,0,0,.47,1.51l3.37,1.94a1.48,1.48,0,0,1,.06.86,26.84,26.84,0,0,0-.56,3,3.77,3.77,0,0,1-1,2l-.05,0-4.21,3.67a1,1,0,0,0-.2.22l0,0a1.17,1.17,0,0,0-.17.26,2.32,2.32,0,0,0-.33,1.49l.75,4.48a.85.85,0,0,0,.35.61L299,94.2a.87.87,0,0,1-.34-.59L298,89.13a2.13,2.13,0,0,1,.06-.86,2.36,2.36,0,0,1,.67-1.15l4.2-3.68.05,0a3.65,3.65,0,0,0,1.06-2,25.16,25.16,0,0,1,.57-3,1.49,1.49,0,0,0-.83-1.66l-2.46-1a1.19,1.19,0,0,1-.62-1.6l2.94-6.23a1.77,1.77,0,0,1,.5-.6,2,2,0,0,1,1.27-.43l3.06.18a2,2,0,0,0,.88-.16,2.34,2.34,0,0,0,1.06-.77c.7-1,1.45-1.92,2.23-2.81a3.39,3.39,0,0,0,.77-2.12l-.23-4.4a1.89,1.89,0,0,1,.12-.76,2.59,2.59,0,0,1,.81-1.2l4.79-3.57a.82.82,0,0,1,.94-.12Zm-7.68,46.61a2,2,0,0,0-.47-2,8.61,8.61,0,0,1-.81-1,1.24,1.24,0,0,0-1.68-.4L301.76,93,300,97.59a1,1,0,0,0,.41,1.26h0l5,2.87a1,1,0,0,1-.41-1.27Z" style="opacity:0.1"></path><path d="M302.88,83.44l-4.2,3.68a2.36,2.36,0,0,0-.67,1.15l-4.95-2.85a2.83,2.83,0,0,1,.25-.65,1.17,1.17,0,0,1,.17-.26l0,0a1,1,0,0,1,.2-.22l4.21-3.67Z" style="fill:#e0e0e0"></path><path d="M309.3,66.85a2,2,0,0,1-.88.16l-3.06-.18a2,2,0,0,0-1.27.43l-5-2.86a2.07,2.07,0,0,1,.45-.27,1.25,1.25,0,0,1,.25-.09h0a.93.93,0,0,1,.23,0,1.07,1.07,0,0,1,.25,0h.07l3.05.19a.86.86,0,0,0,.28,0,.69.69,0,0,0,.2,0,3,3,0,0,0,.4-.12h0Z" style="fill:#e0e0e0"></path><path d="M341.11,56a.82.82,0,0,0-.85.09L336,58.71a1.25,1.25,0,0,1-1.69-.39,7.76,7.76,0,0,0-.81-1,2,2,0,0,1-.47-1.95l.42-1,1.81-1.14a.84.84,0,0,1,.88-.07h0Z" style="fill:#e0e0e0"></path><path d="M334.82,48.47a1.33,1.33,0,0,0-.32-.12l-3.17-.73a1.74,1.74,0,0,0-1.8.78l-3,5.5a2.4,2.4,0,0,1-.69.74l-5-2.87a2.67,2.67,0,0,0,.67-.73l3.05-5.5a1.75,1.75,0,0,1,1.81-.79l3.16.73a1.22,1.22,0,0,1,.33.14h0Z" style="fill:#e0e0e0"></path><path d="M319.79,51.1a.82.82,0,0,0-.94.12l-4.79,3.57a2.59,2.59,0,0,0-.81,1.2l-5-2.86.06-.18a3.4,3.4,0,0,1,.42-.72,1.79,1.79,0,0,1,.13-.14,1,1,0,0,1,.19-.16l4.79-3.58a1,1,0,0,1,.59-.21.73.73,0,0,1,.35.09Z" style="fill:#e0e0e0"></path><path d="M342.24,61.09l-.74-4.48a.75.75,0,0,0-1.24-.54L336,58.71a1.24,1.24,0,0,1-1.69-.39,9.73,9.73,0,0,0-.8-1,2,2,0,0,1-.47-2l2.21-5.62a1,1,0,0,0-.77-1.41l-3.16-.73a1.75,1.75,0,0,0-1.81.79l-3,5.49a3.09,3.09,0,0,1-1.81,1.3,15.61,15.61,0,0,0-2,.6,1.08,1.08,0,0,1-1.49-.68l-1-3.48a.8.8,0,0,0-1.34-.42l-4.79,3.57a2.55,2.55,0,0,0-.93,2l.23,4.4a3.38,3.38,0,0,1-.76,2.12,35.82,35.82,0,0,0-2.24,2.81,2.46,2.46,0,0,1-1.95.93l-3.05-.18a2,2,0,0,0-1.76,1l-3,6.23a1.17,1.17,0,0,0,.62,1.59l2.46,1.06a1.47,1.47,0,0,1,.82,1.66,29.89,29.89,0,0,0-.56,3,3.73,3.73,0,0,1-1.05,2l-4.26,3.72a2.45,2.45,0,0,0-.73,2l.74,4.48a.76.76,0,0,0,1.25.54l4.24-2.64a1.22,1.22,0,0,1,1.68.39,8.61,8.61,0,0,0,.81,1,2,2,0,0,1,.47,2l-2.21,5.62a1,1,0,0,0,.76,1.41l3.17.73a1.73,1.73,0,0,0,1.8-.79l3-5.49a3.15,3.15,0,0,1,1.82-1.3,16.14,16.14,0,0,0,2-.6,1.08,1.08,0,0,1,1.49.68l1,3.47a.79.79,0,0,0,1.33.43l4.8-3.58a2.54,2.54,0,0,0,.92-2l-.23-4.4A3.45,3.45,0,0,1,327.6,87c.79-.9,1.53-1.84,2.24-2.82a2.49,2.49,0,0,1,1.94-.93l3.05.19a2,2,0,0,0,1.77-1l2.94-6.23a1.19,1.19,0,0,0-.62-1.6l-2.45-1a1.47,1.47,0,0,1-.83-1.66,24.88,24.88,0,0,0,.56-3,3.65,3.65,0,0,1,1.06-2l4.25-3.72A2.45,2.45,0,0,0,342.24,61.09ZM321.67,84.66c-5.19,3.88-10.11,2.75-11-2.53s2.64-12.69,7.83-16.57,10.11-2.75,11,2.53S326.87,80.78,321.67,84.66Z" style="fill:#f5f5f5"></path><path d="M335.61,81.92a.94.94,0,0,1-.71.39l-3.06-.18A3.5,3.5,0,0,0,329,83.5c-.69,1-1.42,1.88-2.17,2.74a3.74,3.74,0,0,0-.39.54,4.48,4.48,0,0,0-.65,2.35l.24,4.4a1.55,1.55,0,0,1-.22.7,1.16,1.16,0,0,1-.28.33L321,98,320,94.79a2.13,2.13,0,0,0-1.1-1.32,2.27,2.27,0,0,0-1.81-.06,14.56,14.56,0,0,1-1.82.56,4.19,4.19,0,0,0-2.48,1.76h0l0,.05-3,5.5a.69.69,0,0,1-.62.26l-3.16-.73,2.2-5.59a3,3,0,0,0-.69-3.09,9.82,9.82,0,0,1-.71-.86,2.31,2.31,0,0,0-3.14-.69L299.69,93,299,89a1.38,1.38,0,0,1,.2-.8,1,1,0,0,1,.17-.22l4.26-3.72a3.9,3.9,0,0,0,.78-1,4.75,4.75,0,0,0,.63-1.72,25.57,25.57,0,0,1,.54-2.86,2.56,2.56,0,0,0-1.45-2.91l-2.45-1.06a.14.14,0,0,1-.08-.07.16.16,0,0,1,0-.07l2.95-6.23h0a.92.92,0,0,1,.73-.41l3.05.18a3.54,3.54,0,0,0,2.88-1.38c.69-.95,1.42-1.87,2.18-2.73a3.74,3.74,0,0,0,.39-.54,4.46,4.46,0,0,0,.64-2.35l-.23-4.4a1.31,1.31,0,0,1,.22-.7,1.2,1.2,0,0,1,.27-.33l4.54-3.39.94,3.16a2.15,2.15,0,0,0,1.1,1.31,2.23,2.23,0,0,0,1.81.07,15.66,15.66,0,0,1,1.82-.56,4.23,4.23,0,0,0,2.48-1.76h0l0-.06,3-5.49a.7.7,0,0,1,.63-.26l3.15.73L332.05,55a3,3,0,0,0,.7,3.09,7.48,7.48,0,0,1,.7.86,2.31,2.31,0,0,0,3.14.69l3.91-2.44.68,4.08a1.4,1.4,0,0,1-.21.8,1,1,0,0,1-.17.22L336.55,66a4.18,4.18,0,0,0-.79,1,4.68,4.68,0,0,0-.63,1.72,26,26,0,0,1-.54,2.86A2.54,2.54,0,0,0,336,74.47l2.46,1.06c.05,0,.07,0,.07.07a.08.08,0,0,1,0,.07l-2.95,6.23v0m-23.23-11c-2.3,3.89-3.31,8-2.76,11.38a6.46,6.46,0,0,0,3.81,5.29c2.52,1,5.76.26,8.89-2.08a21.53,21.53,0,0,0,5.49-6.24c2.3-3.88,3.31-8,2.76-11.37a6.46,6.46,0,0,0-3.81-5.29c-2.52-1-5.75-.26-8.88,2.08a21.5,21.5,0,0,0-5.5,6.23m24.16,11.54.06-.11,2.94-6.23a1.19,1.19,0,0,0-.62-1.6l-2.45-1a1.47,1.47,0,0,1-.83-1.66,24.88,24.88,0,0,0,.56-3,3.87,3.87,0,0,1,.49-1.3,3,3,0,0,1,.57-.71l4.25-3.72a1.86,1.86,0,0,0,.39-.48,2.38,2.38,0,0,0,.34-1.53l-.74-4.48a.75.75,0,0,0-1.24-.54L336,58.71a1.24,1.24,0,0,1-1.69-.39,9.73,9.73,0,0,0-.8-1,2,2,0,0,1-.47-2l2.21-5.62a1,1,0,0,0-.77-1.41l-3.16-.73a1.75,1.75,0,0,0-1.79.76l0,0-3,5.49,0,0a3.21,3.21,0,0,1-1.79,1.26,15.61,15.61,0,0,0-2,.6,1.08,1.08,0,0,1-1.49-.68l-1-3.48a.8.8,0,0,0-1.34-.42l-4.79,3.57a2.09,2.09,0,0,0-.56.65,2.51,2.51,0,0,0-.37,1.31l.23,4.4a3.38,3.38,0,0,1-.49,1.74,2.84,2.84,0,0,1-.27.38,35.82,35.82,0,0,0-2.24,2.81,2.46,2.46,0,0,1-1.95.93l-3.05-.18a2,2,0,0,0-1.7.92.24.24,0,0,0-.06.11l-3,6.23a1.17,1.17,0,0,0,.62,1.59l2.46,1.06a1.47,1.47,0,0,1,.82,1.66,29.89,29.89,0,0,0-.56,3,3.64,3.64,0,0,1-.49,1.31,2.93,2.93,0,0,1-.56.71l-4.26,3.72a2.1,2.1,0,0,0-.39.48,2.44,2.44,0,0,0-.34,1.53l.74,4.48a.76.76,0,0,0,1.25.54l4.24-2.64a1.22,1.22,0,0,1,1.68.39,8.61,8.61,0,0,0,.81,1,2,2,0,0,1,.47,2l-2.21,5.62a1,1,0,0,0,.76,1.41l3.17.73a1.73,1.73,0,0,0,1.78-.76l0,0,3-5.49,0,0a3.1,3.1,0,0,1,1.8-1.26,16.14,16.14,0,0,0,2-.6,1.08,1.08,0,0,1,1.49.68l1,3.47a.79.79,0,0,0,1.33.43l4.8-3.58a2,2,0,0,0,.55-.64,2.42,2.42,0,0,0,.37-1.31l-.23-4.4a3.38,3.38,0,0,1,.49-1.74,2.88,2.88,0,0,1,.28-.38c.79-.9,1.53-1.84,2.24-2.82a2.49,2.49,0,0,1,1.94-.93l3.05.19a2,2,0,0,0,1.71-.92Zm-23.23-11a20.49,20.49,0,0,1,5.21-5.92c5.2-3.88,10.11-2.75,11,2.53.53,3.18-.54,7.15-2.62,10.64a20.4,20.4,0,0,1-5.21,5.93c-5.19,3.88-10.11,2.75-11-2.53-.53-3.18.54-7.15,2.62-10.65Z" style="fill:#ebebeb"></path></g></g><g id="freepik--speech-bubble--inject-261"><g id="freepik--speech-bubble--inject-261"><g id="freepik--speech-bubble--inject-261"><path d="M421.56,187.08l2.95-5.55-2.37-6.85v-4.2l7.26,4.2v4.19l-3.12,5.41a.48.48,0,0,1-.21.19h0Z" style="fill:#68C86E"></path><path d="M421.56,187.08l2.95-5.55-2.37-6.85v-4.2l7.26,4.2v4.19l-3.12,5.41a.48.48,0,0,1-.21.19h0Z" style="opacity:0.2"></path><path d="M404.21,134.32a4.78,4.78,0,0,1,2.18-3.77l1.77-1a4.85,4.85,0,0,1,4.36,0l27.2,15.73A4.84,4.84,0,0,1,441.9,149v32.74a4.81,4.81,0,0,1-2.18,3.77l-1.77,1a4.85,4.85,0,0,1-4.36,0l-8.75-5.06-3.12,5.4a.46.46,0,0,1-.84-.08l-3.29-9.51-11.2-6.49a4.78,4.78,0,0,1-2.18-3.77Z" style="fill:#68C86E"></path><path d="M441.9,181.77a4.81,4.81,0,0,1-2.18,3.77l-1.77,1a4.86,4.86,0,0,1-4,.17c1,.39,1.81-.19,1.81-1.43V152.57a4.49,4.49,0,0,0-.64-2.15l6.13-3.54a4.49,4.49,0,0,1,.64,2.15Z" style="opacity:0.2"></path><path d="M404.28,133.7c.25-.93,1.1-1.22,2.1-.64l27.21,15.74a4.3,4.3,0,0,1,1.54,1.62l6.12-3.53a4.31,4.31,0,0,0-1.53-1.63l-27.2-15.74a4.85,4.85,0,0,0-4.36,0l-1.78,1A4.81,4.81,0,0,0,404.28,133.7Z" style="fill:#fff;opacity:0.30000000000000004"></path></g><g id="freepik--Check--inject-261"><path d="M416.53,170.51l-.31,0a2.29,2.29,0,0,1-1.75-1.29l-3.67-7.73a2.28,2.28,0,1,1,4.13-1.94l2.17,4.54,10.48-12.21a2.28,2.28,0,0,1,3.46,3l-12.78,14.89A2.31,2.31,0,0,1,416.53,170.51Z" style="fill:#fafafa"></path></g></g></g><g id="freepik--Clipboard--inject-261"><g id="freepik--clipboard--inject-261"><g id="freepik--Board--inject-261"><path d="M195.61,44.46,36,136.48a6.58,6.58,0,0,0-3,5.17V424.72a6.55,6.55,0,0,0,3,5.15l.61.35a6.64,6.64,0,0,0,6,0L202.2,338.07a6.62,6.62,0,0,0,3-5.17V50a6.57,6.57,0,0,0-3-5.16l-.6-.34A6.6,6.6,0,0,0,195.61,44.46Z" style="fill:#68C86E"></path><path d="M195.61,44.46,36,136.48a6.58,6.58,0,0,0-3,5.17V424.72a6.55,6.55,0,0,0,3,5.15l.61.35a6.64,6.64,0,0,0,6,0L202.2,338.07a6.62,6.62,0,0,0,3-5.17V50a6.57,6.57,0,0,0-3-5.16l-.6-.34A6.6,6.6,0,0,0,195.61,44.46Z" style="opacity:0.45"></path><path d="M205.19,333.11c0,2.62-1.85,4.3-4.13,5.61L43.76,429.53c-2.27,1.31-4.12.25-4.12-2.38V146.71h0a8.2,8.2,0,0,1,4.1-7.11L201.06,48.74a2.76,2.76,0,0,1,4.13,2.39h0Z" style="fill:#68C86E"></path><path d="M205.19,333.11c0,2.62-1.85,4.3-4.13,5.61L43.76,429.53c-2.27,1.31-4.12.25-4.12-2.38V146.71h0a8.2,8.2,0,0,1,4.1-7.11L201.06,48.74a2.76,2.76,0,0,1,4.13,2.39h0Z" style="opacity:0.30000000000000004"></path><path d="M205.19,50v1.17a2.76,2.76,0,0,0-4.14-2.38L43.74,139.6a8,8,0,0,0-3,3,.36.36,0,0,0,0,.09l-6.81-3.93A6.15,6.15,0,0,1,36,136.48l159.57-92a6.58,6.58,0,0,1,6,0l.61.34A6.58,6.58,0,0,1,205.19,50Z" style="fill:#68C86E"></path><path d="M205.19,50v1.17a2.76,2.76,0,0,0-4.14-2.38L43.74,139.6a8,8,0,0,0-3,3,.36.36,0,0,0,0,.09l-6.81-3.93A6.15,6.15,0,0,1,36,136.48l159.57-92a6.58,6.58,0,0,1,6,0l.61.34A6.58,6.58,0,0,1,205.19,50Z" style="opacity:0.2"></path></g><path id="freepik--shadow--inject-261" d="M201.3,321c0,2.71-1.9,4.43-4.25,5.78L48.38,412.64c-2.34,1.35-4.25.26-4.25-2.46V161.93h0a8.45,8.45,0,0,1,4.23-7.33L197,68.72a2.84,2.84,0,0,1,4.26,2.46V321Z" style="opacity:0.25"></path><g id="freepik--Form--inject-261"><g id="freepik--Paper--inject-261"><path d="M47.93,157.81,196.06,72.29a2.84,2.84,0,0,1,2.54,0l1.43.83a2.79,2.79,0,0,1,1.27,2.19V324.77A2.79,2.79,0,0,1,200,327L51.9,412.49a2.84,2.84,0,0,1-2.54,0l-1.43-.83a2.82,2.82,0,0,1-1.27-2.2V160A2.82,2.82,0,0,1,47.93,157.81Z" style="fill:#f5f5f5"></path><path d="M51.6,412.62a2.52,2.52,0,0,1-.47.13l-.25,0a3.33,3.33,0,0,1-.77,0,2.52,2.52,0,0,1-.47-.13l-.28-.13-1.42-.82a2.79,2.79,0,0,1-1.27-2.2V160a2.44,2.44,0,0,1,.37-1.25l4,2.28a2.72,2.72,0,0,0-.37,1.25V411.75C50.63,412.45,51,412.79,51.6,412.62Z" style="fill:#e0e0e0"></path><path d="M200,73.12l-1.43-.83a2.84,2.84,0,0,0-2.54,0L47.93,157.81a2.82,2.82,0,0,0-1.27,2.2v41.66l4,2.31L201.3,117V75.31A2.79,2.79,0,0,0,200,73.12Z" style="fill:#68C86E"></path><path d="M200,73.12l-1.43-.83a2.84,2.84,0,0,0-2.54,0L47.93,157.81a2.82,2.82,0,0,0-1.27,2.2v41.66l4,2.31L201.3,117V75.31A2.79,2.79,0,0,0,200,73.12Z" style="fill:#fff;opacity:0.4"></path><path d="M201.25,74.93c-.16-.52-.64-.68-1.22-.35L51.9,160.1a2.66,2.66,0,0,0-.9,1l-4-2.29a2.4,2.4,0,0,1,.9-.94L196.07,72.29a2.74,2.74,0,0,1,2.52,0l1.44.82A2.88,2.88,0,0,1,201.25,74.93Z" style="fill:#68C86E"></path><path d="M201.25,74.93c-.16-.52-.64-.68-1.22-.35L51.9,160.1a2.66,2.66,0,0,0-.9,1l-4-2.29a2.4,2.4,0,0,1,.9-.94L196.07,72.29a2.74,2.74,0,0,1,2.52,0l1.44.82A2.88,2.88,0,0,1,201.25,74.93Z" style="fill:#fff;opacity:0.6000000000000001"></path><path d="M46.67,160v41.68l4,2.29V162.3a2.72,2.72,0,0,1,.37-1.25l-4-2.29A2.47,2.47,0,0,0,46.67,160Z" style="fill:#68C86E"></path></g></g><g id="freepik--clip-board--inject-261"><path d="M60.17,235.52a.67.67,0,0,1-.3-.08.61.61,0,0,1-.29-.52V215.09a.61.61,0,0,1,.29-.52l17.05-9.84a.6.6,0,0,1,.9.52v19.83a.57.57,0,0,1-.3.51l-17,9.85A.61.61,0,0,1,60.17,235.52Zm.6-20.08v18.44l15.85-9.15V206.28Z" style="fill:#455a64"></path><path d="M88.3,201.34v1.37c0,.74.53,1,1.17.67L147.22,170a2.57,2.57,0,0,0,1.16-2v-1.38c0-.74-.52-1-1.16-.67L89.47,199.32A2.6,2.6,0,0,0,88.3,201.34Z" style="fill:#e0e0e0"></path><path d="M88.3,210v1.37c0,.74.53,1,1.17.67l102.11-59a2.55,2.55,0,0,0,1.17-2v-1.38c0-.74-.52-1-1.17-.67L89.47,208A2.58,2.58,0,0,0,88.3,210Z" style="fill:#e0e0e0"></path><path d="M88.3,218.19v1.37c0,.74.53,1,1.17.67l102.11-59a2.55,2.55,0,0,0,1.17-2v-1.38c0-.74-.52-1-1.17-.67l-102.11,59A2.61,2.61,0,0,0,88.3,218.19Z" style="fill:#e0e0e0"></path><polygon points="68.49 226.25 64.53 222.43 65.85 219.62 68.11 221.79 77.88 201.11 79.59 202.75 68.49 226.25" style="fill:#68C86E"></polygon><path d="M60.17,272.07a.67.67,0,0,1-.3-.08.61.61,0,0,1-.29-.52V251.64a.61.61,0,0,1,.29-.52l17.05-9.84a.6.6,0,0,1,.9.52v19.82a.58.58,0,0,1-.3.52l-17,9.85A.61.61,0,0,1,60.17,272.07Zm.6-20.08v18.44l15.85-9.15V242.83Z" style="fill:#455a64"></path><path d="M88.3,237.89v1.37c0,.74.53,1,1.17.67l57.75-33.34a2.57,2.57,0,0,0,1.16-2V203.2c0-.74-.52-1-1.16-.67L89.47,235.87A2.58,2.58,0,0,0,88.3,237.89Z" style="fill:#e0e0e0"></path><path d="M88.3,246.52v1.37c0,.74.53,1,1.17.67l102.11-59a2.55,2.55,0,0,0,1.17-2v-1.38c0-.74-.52-1-1.17-.67l-102.11,59A2.58,2.58,0,0,0,88.3,246.52Z" style="fill:#e0e0e0"></path><path d="M88.3,254.74v1.37c0,.74.53,1,1.17.67l102.11-59a2.55,2.55,0,0,0,1.17-2v-1.37c0-.74-.52-1-1.17-.67l-102.11,59A2.6,2.6,0,0,0,88.3,254.74Z" style="fill:#e0e0e0"></path><polygon points="68.49 262.8 64.53 258.98 65.85 256.17 68.11 258.34 77.88 237.66 79.59 239.3 68.49 262.8" style="fill:#68C86E"></polygon><path d="M60.17,309.54a.67.67,0,0,1-.3-.08.61.61,0,0,1-.29-.52V289.11a.61.61,0,0,1,.29-.52l17.05-9.84a.6.6,0,0,1,.9.52v19.82a.58.58,0,0,1-.3.52l-17,9.85A.61.61,0,0,1,60.17,309.54Zm.6-20.08V307.9l15.85-9.15V280.3Z" style="fill:#455a64"></path><path d="M88.3,275.36v1.37c0,.74.53,1,1.17.67l57.75-33.34a2.57,2.57,0,0,0,1.16-2v-1.38c0-.74-.52-1-1.16-.67L89.47,273.34A2.58,2.58,0,0,0,88.3,275.36Z" style="fill:#e0e0e0"></path><path d="M88.3,284v1.37c0,.74.53,1,1.17.67l102.11-59a2.55,2.55,0,0,0,1.17-2v-1.38c0-.74-.52-1-1.17-.67L89.47,282A2.58,2.58,0,0,0,88.3,284Z" style="fill:#e0e0e0"></path><path d="M88.3,292.21v1.37c0,.74.53,1,1.17.67l102.11-59a2.55,2.55,0,0,0,1.17-2V231.9c0-.74-.52-1-1.17-.67l-102.11,59A2.6,2.6,0,0,0,88.3,292.21Z" style="fill:#e0e0e0"></path><polygon points="68.49 300.27 64.53 296.45 65.85 293.64 68.11 295.81 77.88 275.13 79.59 276.77 68.49 300.27" style="fill:#68C86E"></polygon><path d="M60.17,347a.67.67,0,0,1-.3-.08.61.61,0,0,1-.29-.52V326.58a.61.61,0,0,1,.29-.52l17.05-9.84a.6.6,0,0,1,.9.52v19.82a.58.58,0,0,1-.3.52l-17,9.85A.61.61,0,0,1,60.17,347Zm.6-20.08v18.44l15.85-9.15V317.77Z" style="fill:#455a64"></path><path d="M88.3,312.83v1.37c0,.74.53,1,1.17.67l57.75-33.34a2.57,2.57,0,0,0,1.16-2v-1.38c0-.74-.52-1-1.16-.67L89.47,310.81A2.6,2.6,0,0,0,88.3,312.83Z" style="fill:#e0e0e0"></path><path d="M88.3,321.46v1.37c0,.74.53,1,1.17.67l102.11-59a2.55,2.55,0,0,0,1.17-2v-1.38c0-.74-.52-1-1.17-.67l-102.11,59A2.58,2.58,0,0,0,88.3,321.46Z" style="fill:#e0e0e0"></path><path d="M88.3,329.68v1.37c0,.74.53,1,1.17.67l102.11-59a2.55,2.55,0,0,0,1.17-2v-1.37c0-.74-.52-1-1.17-.67l-102.11,59A2.6,2.6,0,0,0,88.3,329.68Z" style="fill:#e0e0e0"></path><path d="M60.17,384.48a.67.67,0,0,1-.3-.08.61.61,0,0,1-.29-.52V364.05a.61.61,0,0,1,.29-.52l17.05-9.84a.6.6,0,0,1,.9.52V374a.58.58,0,0,1-.3.52l-17,9.85A.61.61,0,0,1,60.17,384.48Zm.6-20.08v18.44l15.85-9.15V355.24Z" style="fill:#455a64"></path><path d="M88.3,350.3v1.37c0,.74.53,1,1.17.67L147.22,319a2.57,2.57,0,0,0,1.16-2v-1.38c0-.74-.52-1-1.16-.67L89.47,348.28A2.6,2.6,0,0,0,88.3,350.3Z" style="fill:#e0e0e0"></path><path d="M88.3,358.93v1.37c0,.74.53,1,1.17.67l102.11-59a2.55,2.55,0,0,0,1.17-2v-1.38c0-.74-.52-1-1.17-.67l-102.11,59A2.58,2.58,0,0,0,88.3,358.93Z" style="fill:#e0e0e0"></path><path d="M88.3,367.15v1.37c0,.74.53,1,1.17.67l102.11-59a2.55,2.55,0,0,0,1.17-2v-1.37c0-.74-.52-1-1.17-.67l-102.11,59A2.6,2.6,0,0,0,88.3,367.15Z" style="fill:#e0e0e0"></path><path d="M61.82,174.41l51.86-30c.75-.43,1.35-.08,1.35.78v.4a3,3,0,0,1-1.35,2.34l-51.86,30c-.75.43-1.36.08-1.36-.78v-.4A3,3,0,0,1,61.82,174.41Z" style="fill:#fafafa"></path><path d="M61.82,181.5l30.86-17.82c.75-.43,1.35-.08,1.35.79v.39a3,3,0,0,1-1.35,2.35L61.82,185c-.75.44-1.36.09-1.36-.78v-.4A3,3,0,0,1,61.82,181.5Z" style="fill:#fafafa"></path><path d="M165.58,114.05l23.07-13.33c.37-.22.67,0,.67.39V102a1.47,1.47,0,0,1-.67,1.16l-23.07,13.33c-.37.22-.67,0-.67-.38v-.88A1.49,1.49,0,0,1,165.58,114.05Z" style="fill:#68C86E"></path><path d="M165.58,124.68l23.07-13.33c.37-.22.67,0,.67.39v.87a1.49,1.49,0,0,1-.67,1.17l-23.07,13.33c-.37.22-.67,0-.67-.39v-.87A1.49,1.49,0,0,1,165.58,124.68Z" style="fill:#68C86E"></path><path d="M170.34,116.59,188.65,106c.37-.22.67,0,.67.39v.87a1.49,1.49,0,0,1-.67,1.17L170.34,119c-.37.22-.67,0-.67-.39v-.87A1.49,1.49,0,0,1,170.34,116.59Z" style="fill:#68C86E"></path></g><g id="freepik--Clip--inject-261"><path id="freepik--shadow--inject-261" d="M167,83V95.73a10.92,10.92,0,0,1-5,8.65L137.39,118.6c-1.22.71-1.92,2.11-2.65,3.59a14.15,14.15,0,0,1-1.9,3.12c-1.92,2.17-6.09,4.43-9,5.37a17,17,0,0,1-3,.68c-.37.07-.78.12-1.21.17-2.69.36-6,.82-8,1.95L82.78,150.13a5,5,0,0,1-2.51.76,3.38,3.38,0,0,1-1.69-.44,4.15,4.15,0,0,1-1.83-3.79V133.92a10.89,10.89,0,0,1,5-8.64l9.69-5.6.13-.05a1,1,0,0,1,1.28.44,1,1,0,0,1-.27,1.31.31.31,0,0,1-.11.09l-9.69,5.6a8.92,8.92,0,0,0-4,6.85v12.74a1.74,1.74,0,0,0,2.93,1.68l28.85-16.66c2.31-1.33,5.89-1.82,8.75-2.2l1.2-.16a16.57,16.57,0,0,0,2.63-.61c2.62-.83,6.5-3,8.11-4.77a12.33,12.33,0,0,0,1.6-2.67c.84-1.69,1.7-3.44,3.46-4.45L161,102.59a8.94,8.94,0,0,0,4-6.86V83A1.73,1.73,0,0,0,162,81.31l-8.4,4.85a8.7,8.7,0,0,0-1-1.77L161,79.53A3.73,3.73,0,0,1,167,83Z" style="opacity:0.25"></path><g id="freepik--clip--inject-261"><path d="M149.05,83.23h0a2.56,2.56,0,0,1,2.6.25,8.06,8.06,0,0,1,3.67,6.34,2.57,2.57,0,0,1-1.09,2.38h0L95.75,126l-5.18-9Z" style="fill:#37474f"></path><path d="M93.17,121.51l61.08-35.27a7.35,7.35,0,0,0-2.6-2.75c-.12-.07-.23-.11-.35-.17L91.17,118.05Z" style="fill:#455a64"></path><path d="M93.17,117.26c-2-1.17-3.66-.23-3.66,2.11a8.11,8.11,0,0,0,3.66,6.35c2,1.16,3.66.22,3.66-2.12A8.07,8.07,0,0,0,93.17,117.26Z" style="fill:#263238"></path><path d="M168.07,83.91V96.64a10.87,10.87,0,0,1-5,8.64l-24.65,14.23c-1.22.7-1.91,2.11-2.64,3.59a14.32,14.32,0,0,1-1.9,3.11c-1.92,2.17-6.09,4.44-9,5.38a17,17,0,0,1-3,.68l-1.21.17c-2.69.36-6,.81-8,1.95L83.82,151a5.11,5.11,0,0,1-2.51.75,3.37,3.37,0,0,1-1.69-.43,4.15,4.15,0,0,1-1.83-3.8V134.83a10.91,10.91,0,0,1,5-8.65l9.69-5.59.13,0a1,1,0,0,1,1,1.75.31.31,0,0,1-.11.09L83.82,128a8.94,8.94,0,0,0-4,6.86v12.73a1.74,1.74,0,0,0,2.93,1.69l28.85-16.66c2.31-1.33,5.89-1.82,8.75-2.2.43,0,.83-.12,1.2-.17a15.54,15.54,0,0,0,2.63-.61c2.61-.82,6.5-2.94,8.1-4.76a12.44,12.44,0,0,0,1.61-2.67c.83-1.7,1.7-3.44,3.46-4.46L162,103.49a8.92,8.92,0,0,0,4-6.85V83.91a1.74,1.74,0,0,0-2.93-1.69l-8.39,4.85a8.63,8.63,0,0,0-1.06-1.78L162,80.43a3.74,3.74,0,0,1,6,3.48Z" style="fill:#455a64"></path></g></g></g></g><g id="freepik--character-2--inject-261"><g id="freepik--Character--inject-261"><g id="freepik--Bottom--inject-261"><path d="M292.66,304.18c-.33,8.92-.55,17.61-.41,22.84,0,.49-3.62,2.69-7,2.12s-4.33-1.73-4.33-2.08c0-1.21-1.18-2.93-1.25-4.14a148.15,148.15,0,0,0-2.22-18.74Z" style="fill:#ffbda7"></path><path d="M238.86,308.18l15.63-1.27c-1.63,7.54-3.36,15.38-4.61,20.67a28,28,0,0,1-1.41,4.67c-.74,3.41-9.2,3.82-10.89-1.63L238,326C238.16,321.69,238.56,314.57,238.86,308.18Z" style="fill:#ffbda7"></path><path d="M311.34,339.76a3.16,3.16,0,0,1-.53,3.31c-1.31,1.18-5.23,3.18-10.5,2.71s-6.77-1.44-8.92-3.07-4.14-3.35-6.53-3.77c-2.22-.4-5.61-1.14-6.33-1.77s-.72-3.58-.72-3.58Z" style="fill:#263238"></path><path d="M279.42,320.78a.94.94,0,0,0-.86.73c-.14.82-.24,3.18-.55,4.52a32.45,32.45,0,0,0-.07,8.57c.33,1.49,4.92,2.27,7.25,3a22.06,22.06,0,0,1,6.55,3.72,16.46,16.46,0,0,0,9.81,3.1c4-.17,8.56-1.61,9.55-3.46,1.22-2.3,1.35-4.47-4.74-6.95-1.15-.47-4.72-2.34-6.1-3.12A25.77,25.77,0,0,1,296,328c-.55-.47-1.08-1-1.58-1.47a4.73,4.73,0,0,1-.88-1.62,21.75,21.75,0,0,1-.5-3.33.55.55,0,0,0-.12-.28.52.52,0,0,0-.27-.15,7.15,7.15,0,0,0-2.95,0,12.1,12.1,0,0,0-2.94.75,2.49,2.49,0,0,0-1.33.89,2,2,0,0,0-.23,1.09,8.52,8.52,0,0,1,0,1.13.64.64,0,0,1-.15.38c-.19.21-.52.06-.7-.09a14.59,14.59,0,0,1-1.68-1.83c-.29-.33-1.57-.5-1.94-.75s-.75-.35-1-.61S279.45,321.25,279.42,320.78Z" style="fill:#37474f"></path><path d="M291.74,341.35a30.15,30.15,0,0,0-2.85-2h0s6.47,2.22,9.26.23c1.8-1.28.88-2.72.83-3.2s4.41-2.65,6.19-2.92h0c.5.25.93.45,1.19.56,6.09,2.48,6,4.65,4.74,6.95-1,1.85-4.25,3.39-9.48,3.58A16.94,16.94,0,0,1,291.74,341.35Z" style="fill:#455a64"></path><path d="M298.44,335c3.78,1.32,2.21,2,1.17,2.23s-6.4-2.57-10.33-5.37c-4.09-2.93-7.67-6-9.19-7.12-.57-.4-1.18-.89-1.73-1.35.08-.8.13-1.53.2-1.92.11-.68.94-.91.94-.91l.08,1.3a3.45,3.45,0,0,0,1.19.65,4.72,4.72,0,0,1,1.88.86,14.59,14.59,0,0,0,1.68,1.83C287.71,329.14,294.66,333.73,298.44,335Z" style="fill:#263238"></path><path d="M299.32,336.75a.39.39,0,0,1-.23-.07.34.34,0,0,1-.07-.5,9,9,0,0,1,6.76-2.86.36.36,0,0,1,.34.38.36.36,0,0,1-.4.33,8.46,8.46,0,0,0-6.12,2.58A.34.34,0,0,1,299.32,336.75Z" style="fill:#f0f0f0"></path><path d="M296,335.09a.4.4,0,0,1-.24-.07.35.35,0,0,1-.08-.5,9.05,9.05,0,0,1,6.69-3,.37.37,0,0,1,.35.38.38.38,0,0,1-.39.34,8.39,8.39,0,0,0-6.06,2.71A.37.37,0,0,1,296,335.09Z" style="fill:#f0f0f0"></path><path d="M292.93,333.17a.37.37,0,0,1-.24-.08.35.35,0,0,1-.07-.5,9.11,9.11,0,0,1,6.76-2.86.36.36,0,1,1-.05.72,8.38,8.38,0,0,0-6.12,2.57A.39.39,0,0,1,292.93,333.17Z" style="fill:#f0f0f0"></path><path d="M290.21,331.43a.42.42,0,0,1-.24-.07.34.34,0,0,1-.09-.49,9.09,9.09,0,0,1,6.63-3.14.38.38,0,0,1,.36.37.38.38,0,0,1-.39.35,8.39,8.39,0,0,0-6,2.82A.37.37,0,0,1,290.21,331.43Z" style="fill:#f0f0f0"></path><path d="M287.28,329.37a.38.38,0,0,1-.23-.06.35.35,0,0,1-.1-.5c1.32-1.87,4.51-3.28,7.27-3.18a.35.35,0,0,1,.35.37.37.37,0,0,1-.38.34c-2.49-.08-5.46,1.21-6.63,2.87A.37.37,0,0,1,287.28,329.37Z" style="fill:#f0f0f0"></path><path d="M248.37,350.81c-.26,3.52-.86,5.85-2.18,7.9s-3.76,2.66-6.22,2-5.59-2.29-6.25-5.34a18.9,18.9,0,0,1,.11-8.39Z" style="fill:#263238"></path><path d="M238,326c-.87.26-1.15,5.08-1.8,9.81-.7,5.06-1.65,6.58-2.27,10.74-.71,4.75-.39,6.34,1.29,9.24s7.73,5.8,10.79,1.72c2.5-3.32,2.56-6.51,2.4-11.26a96.44,96.44,0,0,1,.2-11.32c.25-3.55,2.2-6.91,1.32-7.32a13.6,13.6,0,0,1-.64,2.66,4.73,4.73,0,0,1-.55,1.31c-.49.66-.71-.43-.7-.84,0-.7.26-1.26-.3-1.85a4.27,4.27,0,0,0-1.51-.86,9,9,0,0,0-1.84-.54,19.63,19.63,0,0,0-3.91-.26,1.89,1.89,0,0,0-1.52.59,1,1,0,0,0-.15.37c-.11.46-.06.95-.17,1.41,0,.13-.09.47-.21.54s-.35,0-.35-.05S237.84,326.8,238,326Z" style="fill:#37474f"></path><path d="M234.11,344.89c-.11.69-.66,5,.61,5.8S236.9,348,236.9,348s3.25-.92,7.94,1.14c-.25.73.44,3.17,1.74,2.68s1.78-5.16,1.79-5.23c.13,4.55,0,7.62-2.41,10.85-3.06,4.08-9.11,1.18-10.79-1.72s-2-4.49-1.29-9.24C234,346,234,345.32,234.11,344.89Z" style="fill:#455a64"></path><path d="M237.26,348.34c0,1.72-1.62,1.11-1.83-1.31-.31-3.63.67-7.08.72-11.25.65-4.73.78-9.74,1.8-9.81,0,.83.08,4.09.08,4.09-.37,3.54-1.39,7.67-1.29,11.32C236.82,344.6,237.31,346.63,237.26,348.34Z" style="fill:#263238"></path><path d="M244.29,349.13c.36-1.69.93-2.16,1.33-5.36s2.3-8.9,3-12.36a39.17,39.17,0,0,1,1.21-3.83c.63.3,0,2.29-.53,4.42s-.88,3.45-1.23,5.5c-.93,4.08-1.12,8.42-1.73,10.78S243.94,350.81,244.29,349.13Z" style="fill:#263238"></path><path d="M244.7,349.21a.33.33,0,0,1-.14,0,12.37,12.37,0,0,0-7.81-.89.38.38,0,0,1-.46-.26.37.37,0,0,1,.27-.45,13,13,0,0,1,8.36,1,.37.37,0,0,1,.15.5A.38.38,0,0,1,244.7,349.21Z" style="fill:#f0f0f0"></path><path d="M245.77,345.81a.27.27,0,0,1-.12,0,16.4,16.4,0,0,0-9.12-1.13.37.37,0,0,1-.45-.28.36.36,0,0,1,.29-.43,16.92,16.92,0,0,1,9.61,1.18.36.36,0,0,1,.17.49A.38.38,0,0,1,245.77,345.81Z" style="fill:#f0f0f0"></path><path d="M236.05,341.85a.37.37,0,0,1-.32-.25.38.38,0,0,1,.24-.46c4.58-1.43,10.54.72,10.73.82a.35.35,0,0,1,.15.49.39.39,0,0,1-.51.15c-.05,0-5.88-2.1-10.13-.76A.3.3,0,0,1,236.05,341.85Z" style="fill:#f0f0f0"></path><path d="M236.83,338.78a.37.37,0,0,1-.32-.24.36.36,0,0,1,.24-.46c5-1.67,10.14,1.05,10.32,1.16a.36.36,0,0,1,.12.5.4.4,0,0,1-.52.12s-5-2.65-9.68-1.09A.43.43,0,0,1,236.83,338.78Z" style="fill:#f0f0f0"></path><path d="M237.19,335a.36.36,0,0,1-.08-.7c4.71-1.64,10.19,1.15,10.38,1.26a.35.35,0,0,1,.13.5.37.37,0,0,1-.52.13s-5.36-2.73-9.74-1.21A.33.33,0,0,1,237.19,335Z" style="fill:#ebebeb"></path><path d="M270.7,247.39l2.88,22.67s-.18,6.91.15,13.48,2.82,26.93,4.3,33.9a22.56,22.56,0,0,0,14.81-.18s2-39.17,2.56-48.39-.82-46.6-1.29-61.22l-46.27.14s-.92,7.86-1.74,19.6-2.71,43.23-2.71,43.23c-5,14-4.55,23.14-5.43,49.25a14.36,14.36,0,0,0,13.72,1.54s7.29-25.63,10.1-36c1.34-5,6.2-26.54,8.92-38" style="fill:#455a64"></path><path d="M290,230.46s.85,35.86.72,38.68-.13,25.83.11,31.58c.87-6.37,1.26-18.55,1.26-31.53S290.76,236.15,290,230.46Z" style="fill:#37474f"></path><path d="M262.58,227.39c-2.32,9.41-6.13,33.7-7,40.21s-7.26,32.13-7.92,38.69c1.18-6.49,8.35-32,9.28-38.53S261.13,239.3,262.58,227.39Z" style="fill:#37474f"></path><path d="M274.66,229.59l-4,17.8,2.88,22.67-.6-18.95,4.3-19.47s8.09-2.32,10.2-10.28C283.36,227.76,274.66,229.59,274.66,229.59Z" style="fill:#37474f"></path></g><g id="freepik--Top--inject-261"><path d="M298,188.44c-6.36-8.65-11.59-17.29-11.59-17.29l.95-20.64s3.91-1.13,9.77,8.65c3.53,5.88,11.51,18,11.51,18s14.21-7.88,15.71-9a18.86,18.86,0,0,0,3.07-3.14c2.56-3.15,5.38-4.24,9.09-5.68l1.91-.72c.3-.12.62-.22.91-.37s.51-.26.79,0a1.17,1.17,0,0,1,.27.77,3.36,3.36,0,0,1-1.17,2.42A17.11,17.11,0,0,1,337,163c-.59.39.17.66.55.74,1.85.38,4.67-.64,6.42-1.26a26,26,0,0,1,3.42-1.26,3.85,3.85,0,0,1,2.23.18c.47.21.83.57.51,1.12a2.61,2.61,0,0,1-.9.78A2.77,2.77,0,0,0,347.7,165a6.1,6.1,0,0,1-.36,1.6c-.31.63-1,1-1.34,1.61a17.73,17.73,0,0,0-.6,1.68,5.07,5.07,0,0,1-1.61,1.4,16.77,16.77,0,0,1-3.92,2,32.34,32.34,0,0,1-6.52,1.52,11.81,11.81,0,0,0-4.24,1.9c-1.18.89-4.37,4-5.29,4.88-1.13,1.08-7.38,7.57-12.74,10.69C305.05,195.84,303.2,195.51,298,188.44Z" style="fill:#ffbda7"></path><path d="M308.64,177.12a10.53,10.53,0,0,0-5.43,6.15c.34-2.5.71-5.33,4.61-7.4Z" style="fill:#f0997a"></path><path d="M335.1,164.69a8.23,8.23,0,0,1-4.39,6.12,4,4,0,0,0,3.39-1.87C335.37,167,335.34,165.61,335.1,164.69Z" style="fill:#f0997a"></path><path d="M287,149.57a15,15,0,0,1,6.9,4.32c1.93,2.06,5.32,7.86,7.35,11.08s4.2,6.62,4.2,6.62-.53,8.39-11,12.43l-8.62-12.6Z" style="fill:#ebebeb"></path><g id="freepik--Chest--inject-261"><path id="freepik--chest--inject-261" d="M262.42,147.1c-7.18,1.58-9.34,2.27-12.74,3.05,0,0-7.05,6.52-2.9,29.86a99.39,99.39,0,0,1,1.11,17.21c-.11,5.19-.32,10.82-.45,14.38,0,0,8,7.83,28.07,5.93,15.75-1.49,18.87-7.24,18.87-7.24s-.53-21.7-.53-33.71c0-19.18-2.56-23.59-6.84-27-.56-.34-11.22-2.12-11.22-2.12Z" style="fill:#263238"></path></g><g id="freepik--Head--inject-261"><path d="M277.44,108.5c-7.7-1.72-13.12,1.3-16.31,5.32-3.24.05-5.07,2.62-5.54,5.81C254,130.38,262.67,136,264,141.27l25.21-19.06C289.68,118.37,287.58,110.75,277.44,108.5Z" style="fill:#37474f"></path><path d="M257.14,112.21l4.25,1.68a2.42,2.42,0,0,1-3.06,1.26A2.17,2.17,0,0,1,257.14,112.21Z" style="fill:#37474f"></path><path d="M260.75,109.52l.65,4.44a2.4,2.4,0,0,1-2.66-2A2.2,2.2,0,0,1,260.75,109.52Z" style="fill:#37474f"></path><path d="M261.34,113.56c3.18-4,8.4-6.78,16.1-5.06,10.13,2.25,12.24,9.87,11.78,13.71l-5.45,4-9.43-7.73C273,115.84,264.55,113.23,261.34,113.56Z" style="fill:#263238"></path><path d="M274.34,118.48c-1-.78-2.4-1.19-4.35.07a5.48,5.48,0,0,0-2,2.51,12.9,12.9,0,0,0-.83,4.13c-.17,1.53-1.12,5.09-3.53,3.89-.71-.36-1.08-1.12-1.7-1.58a3.81,3.81,0,0,0-5.78,1.15,5.77,5.77,0,0,0,2.15,7.44c3.32,1.8,4.64-.06,4.64-.06l-.86,12.19c2.08,3.9,7.51,6.79,12.95,6.49s4.26-3.09,2.38-5.25l.34-4.73a15.31,15.31,0,0,0,4.5-.34c3.36-.86,5-3.86,5.71-7,.85-3.56.86-9.33.68-13.1a24.79,24.79,0,0,0-.39-3.08C285.73,117.49,276.86,114.36,274.34,118.48Z" style="fill:#ffbda7"></path><polygon points="278.77 125.07 279.83 133.94 284.26 132.25 278.77 125.07" style="fill:#f0997a"></polygon><path d="M275.12,134.93l4.61,1.7a2.43,2.43,0,0,1-3.13,1.49A2.52,2.52,0,0,1,275.12,134.93Z" style="fill:#b16668"></path><path d="M276.6,138.12l.3.07a2.2,2.2,0,0,0-1.91-2.42A2.49,2.49,0,0,0,276.6,138.12Z" style="fill:#f28f8f"></path><path d="M283.69,125.79a3.75,3.75,0,0,1,1.08-.33,3.13,3.13,0,0,1,1.1,0,3.76,3.76,0,0,1,1.11.37s0,.1,0,.09a8.59,8.59,0,0,0-1-.14c-.1,0-.22,0-.34,0a1.41,1.41,0,0,1,.54.76c.24.76-.31,1-1.06,1.2s-1.42.33-1.65-.43a1.37,1.37,0,0,1,.12-1.11l-.26.1-.46.22s-.07-.08-.05-.11A2.35,2.35,0,0,1,283.69,125.79Z" style="fill:#263238"></path><path d="M272.15,126s0-.08,0-.09a3.39,3.39,0,0,1,1.08-.44,3.07,3.07,0,0,1,1.09-.06,3.77,3.77,0,0,1,1.1.27,2.2,2.2,0,0,1,.91.57s0,.14,0,.11l-.47-.19-.26-.09a1.41,1.41,0,0,1,.18,1.11c-.18.77-.86.68-1.62.51s-1.32-.36-1.14-1.13a1.5,1.5,0,0,1,.5-.79,1.83,1.83,0,0,0-.34,0A9.49,9.49,0,0,0,272.15,126Z" style="fill:#263238"></path><path d="M274.63,122.26l-2.8,1.61a1.66,1.66,0,0,1,.61-2.23A1.59,1.59,0,0,1,274.63,122.26Z" style="fill:#263238"></path><path d="M277.77,144.73a29,29,0,0,1-7.11-1.5c-2.71-1.12-3.89-2-5.18-5.17a7.57,7.57,0,0,0,1.92,4.66c3.13,3.07,10.25,3.57,10.25,3.57Z" style="fill:#f0997a"></path><path d="M274.35,118.48a2.72,2.72,0,0,1,.9-2.74,3.6,3.6,0,0,1,2.94-.27c1.45.55,1.79,2.16,2.18,3.45a9.12,9.12,0,0,0,1,2.49,4.19,4.19,0,0,0,3.53,2.16,3.81,3.81,0,0,1-1-3.26,11.45,11.45,0,0,0,5.41,3.53c1.31.25,2-.34,2.27-1.58.8-3.24-.51-7.17-2.7-9.66a10.65,10.65,0,0,0-.95-.95c-4.55-4-12.05-5.94-18.24-5.64-3.49.16-8.59,2.68-8.34,7.55C264.56,113.31,273.06,115.8,274.35,118.48Z" style="fill:#37474f"></path></g><g id="freepik--Tablet--inject-261"><path d="M314.25,180.11h0l-1.13-1.05v0a1.29,1.29,0,0,0-1.19-.19l-34.69,8a4.65,4.65,0,0,0-2.94,2.54L264.2,215.3a1.18,1.18,0,0,0,.11,1.34h0l1.16,1.08v0a1.32,1.32,0,0,0,1.21.2l34.68-8a4.67,4.67,0,0,0,2.95-2.54l10.13-25.84C314.67,180.86,314.58,180.37,314.25,180.11Z" style="fill:#455a64"></path><path d="M277,188.65a4.49,4.49,0,0,0-1.54,1.87l-10.13,25.83a1.27,1.27,0,0,0,.07,1.32l-1.09-1h0a1.17,1.17,0,0,1-.12-1.34l10.13-25.85a4.42,4.42,0,0,1,1.42-1.76Z" style="fill:#263238"></path><path d="M265.33,216.35l10.12-25.84A4.65,4.65,0,0,1,278.4,188l34.69-8c1.18-.28,1.78.42,1.34,1.55L304.3,207.34a4.67,4.67,0,0,1-2.95,2.54l-34.68,8C265.48,218.18,264.88,217.48,265.33,216.35Z" style="fill:#37474f"></path><path d="M275.25,196l1.9-4.84a.86.86,0,0,1,.55-.47l2.38-.55c.23-.05.34.08.25.29l-1.89,4.84a.86.86,0,0,1-.55.47l-2.39.55C275.28,196.35,275.17,196.22,275.25,196Z" style="fill:#455a64"></path><path d="M277.22,192.35a2.15,2.15,0,0,1,1.4-1.17c.57-.13.87.18.67.69a2.19,2.19,0,0,1-1.41,1.17C277.31,193.17,277,192.86,277.22,192.35Z" style="fill:#263238"></path><path d="M276.29,194.79a2.2,2.2,0,0,1,1.4-1.17c.57-.13.87.18.67.7a2.18,2.18,0,0,1-1.4,1.16C276.39,195.62,276.09,195.31,276.29,194.79Z" style="fill:#263238"></path><path d="M269.76,201.1l-.54,1.39a34.41,34.41,0,0,0,6,1c.69,0,3.26-1.21,5.35-1.75s3.45.71,2.37,1.55a14.35,14.35,0,0,1-1.83,1.27c.88.88,1.49,1.7-.28,3.19a2.35,2.35,0,0,1-.75,2.61,22.23,22.23,0,0,1-5.91,3.74c-1.16.44-7.16.05-7.66-.22a37.57,37.57,0,0,1-4.56-3.19,34.71,34.71,0,0,0-6.07-3.36c-1.83-.61-18.1-7.34-21-8.8s-7.51-4.61-3.62-7.67,9.89-4.9,14.57-1.86c3.41,2.2,12,7,15.85,9.24a4.82,4.82,0,0,0,3.47.72,25.58,25.58,0,0,1,5.41.08Z" style="fill:#ffbda7"></path><path d="M249.49,150.51c-7.44,2.13-9.7,3.46-11.22,7.49-2.48,6.55-8.16,29-8.47,34.85-.15,2.89,13.75,3.36,13.75,3.36l2.31-7.24s4.8-16.38,5.89-19.84C253,165.22,254.41,154.29,249.49,150.51Z" style="fill:#ffbda7"></path><path d="M245.86,189c-2.48-1.63-7.15-1.83-9.7-.76,1.84-2.37,7.43-2,10-.27Z" style="fill:#f0997a"></path><path d="M281.11,204.53c-.85.48-1.67,1-2.49,1.54-.42.26-.82.54-1.23.81a1.09,1.09,0,0,1-.56.25l-.71.07c-1.92.14-3.87.14-5.82.3,1,.1,1.95.15,2.92.18s2,0,2.94,0c.24,0,.49,0,.74-.1a1.36,1.36,0,0,0,.42-.12,2.08,2.08,0,0,0,.33-.22c.39-.29.79-.57,1.17-.86C279.6,205.75,280.37,205.16,281.11,204.53Z" style="fill:#f0997a"></path><path d="M280.83,207.72c-.81.55-1.61,1.1-2.44,1.61-.41.25-.82.51-1.24.74-.21.12-.43.25-.63.35a2.74,2.74,0,0,1-.64.15c-.94.12-1.92.14-2.89.19s-1.95.08-2.92.19a33.82,33.82,0,0,0,5.87.05,3,3,0,0,0,.77-.2c.23-.12.44-.24.65-.37.41-.27.83-.53,1.22-.82A19.4,19.4,0,0,0,280.83,207.72Z" style="fill:#f0997a"></path><path d="M278.5,211.6c-.66.27-1.31.56-2,.79a9.51,9.51,0,0,1-2,.49,13.06,13.06,0,0,1-2.08.05,11.83,11.83,0,0,0-2.14.13l2.12.24a8.67,8.67,0,0,0,2.16,0A9,9,0,0,0,278.5,211.6Z" style="fill:#f0997a"></path><path d="M249.68,150.15c-6.24,1.57-7.37,2.45-9.43,4.16s-2.89,4.6-4.36,10-4.19,16.22-4.19,16.22a12.93,12.93,0,0,0,7.19,3.71,18.32,18.32,0,0,0,8.73-.41s4.37-13.75,5.13-16.22S255.29,153.39,249.68,150.15Z" style="fill:#ebebeb"></path></g></g></g></g><g id="freepik--character-3--inject-261"><g id="freepik--character--inject-261"><g id="freepik--Chair--inject-261"><path d="M348.43,376.63l9-52.07,5.72-.29-11.87,52.35h0a.74.74,0,0,1-.38.52,2.24,2.24,0,0,1-2,.1.69.69,0,0,1-.45-.61Z" style="fill:#263238"></path><path d="M433.36,316h5.72l13.44,54.09h0a.67.67,0,0,1-.41.63,2.23,2.23,0,0,1-2,0,.78.78,0,0,1-.41-.49h0Z" style="fill:#37474f"></path><path d="M393.81,401.45l.25-58.32,5.71-.29-3.09,58.6h0a.78.78,0,0,1-.38.51,2.26,2.26,0,0,1-2,.1.69.69,0,0,1-.45-.6Z" style="fill:#37474f"></path><path d="M402.15,297.86h5.72L417,355.33h0a.69.69,0,0,1-.41.63,2.29,2.29,0,0,1-2,0,.8.8,0,0,1-.41-.5h0Z" style="fill:#263238"></path><g id="freepik--chair--inject-261"><path d="M449.82,252.84a32.15,32.15,0,0,1,2.29,10c.65,7.69-2,32.62-3.52,43.76h0c-2.26,18.63-5,18.66-9.07,21.78-6.94,5.36-26.9,15.87-33.49,18.46-11.95,4.7-21.71-2.55-29-6.14a168,168,0,0,1-19.28-11.43c-1.82-1.32-2.77-2.66-2.75-4.07,0-.56,0-2.85,0-3.43,0-1.8,1.58-3.73,4.92-5.9,6.18-4,28.48-17,37.12-21.79a.09.09,0,0,1,.07-.08c6.65-4,10.65-31.47,15.26-46.07.09-.31.19-.61.29-.9s.17-.46.24-.68c.29-.8.59-1.52.91-2.19" style="fill:#68C86E"></path><path d="M355,321.79c0-1.79,1.58-3.72,4.93-5.89,6.17-4,28.47-17,37.11-21.79a.09.09,0,0,1,.07-.08c6.65-4,10.65-31.47,15.26-46.07a24.48,24.48,0,0,1,1-2.68,1.67,1.67,0,0,0,.08-.2c.09-.19.17-.39.27-.59a2.71,2.71,0,0,1,.13-.3h0a14,14,0,0,1,3.08-4.44,7.32,7.32,0,0,1,1.5-1.06c.75-.42,2.32-1.29,2.71-1.52,4.52-2.7,10.45.54,17.83,4.58,4.59,2.52,8.51,5.51,10.89,11.09h0a32.15,32.15,0,0,1,2.29,10c.65,7.69-2,32.62-3.52,43.76h0c-2.26,18.63-5,18.66-9.07,21.78-6.94,5.36-26.9,15.87-33.49,18.46-11.95,4.7-21.71-2.55-29-6.14a168,168,0,0,1-19.28-11.43c-1.82-1.32-2.77-2.66-2.75-4.07C355,324.67,355,322.38,355,321.79Z" style="fill:#68C86E"></path><path d="M355,321.79c0-1.79,1.58-3.72,4.93-5.89,6.17-4,28.47-17,37.11-21.79a.09.09,0,0,1,.07-.08c6.65-4,10.65-31.47,15.26-46.07a24.48,24.48,0,0,1,1-2.68,1.67,1.67,0,0,0,.08-.2c.09-.19.17-.39.27-.59a2.71,2.71,0,0,1,.13-.3h0a14,14,0,0,1,3.08-4.44,7.32,7.32,0,0,1,1.5-1.06c.75-.42,2.32-1.29,2.71-1.52,4.52-2.7,10.45.54,17.83,4.58,4.59,2.52,8.51,5.51,10.89,11.09h0a32.15,32.15,0,0,1,2.29,10c.65,7.69-2,32.62-3.52,43.76h0c-2.26,18.63-5,18.66-9.07,21.78-6.94,5.36-26.9,15.87-33.49,18.46-11.95,4.7-21.71-2.55-29-6.14a168,168,0,0,1-19.28-11.43c-1.82-1.32-2.77-2.66-2.75-4.07C355,324.67,355,322.38,355,321.79Z" style="opacity:0.15"></path><path d="M377,337.27a170.38,170.38,0,0,1-19.29-11.43c-4.14-3-3.76-6.09,2.17-9.94,8.25-5.35,41.86-24.42,41.86-24.42s42.5,25.08,40.67,29.71-28.13,19-36.42,22.22C394.08,348.11,384.31,340.86,377,337.27Z" style="fill:#68C86E"></path><path d="M377,337.27a170.38,170.38,0,0,1-19.29-11.43c-4.14-3-3.76-6.09,2.17-9.94,8.25-5.35,41.86-24.42,41.86-24.42s42.5,25.08,40.67,29.71-28.13,19-36.42,22.22C394.08,348.11,384.31,340.86,377,337.27Z" style="fill:#fff;opacity:0.30000000000000004"></path><path d="M418.39,238.69c4.48-2.34,10.29.85,17.48,4.79,4.61,2.52,8.53,5.51,10.92,11.11l3-1.75c-2.38-5.58-6.3-8.57-10.89-11.09-7.38-4-13.31-7.28-17.83-4.58C420.71,237.4,419.14,238.27,418.39,238.69Z" style="fill:#68C86E"></path><path d="M418.39,238.69c4.48-2.34,10.29.85,17.48,4.79,4.61,2.52,8.53,5.51,10.92,11.11l3-1.75c-2.38-5.58-6.3-8.57-10.89-11.09-7.38-4-13.31-7.28-17.83-4.58C420.71,237.4,419.14,238.27,418.39,238.69Z" style="fill:#fff;opacity:0.30000000000000004"></path><path d="M397.11,294s4.33,1.43,19.79,9c6.35,3.11,10.52,6.26,16.46,10,8.75,5.51,8.08,9.6,8.08,9.6,4.35-3.61,8.68-45.39,7.61-58a31.64,31.64,0,0,0-2.49-10.52c-.11-.25-.23-.49-.35-.74l-.26-.5-.13-.23a19.36,19.36,0,0,0-1.1-1.76l-.29-.41c-.11-.13-.2-.27-.31-.4a3.68,3.68,0,0,0-.31-.38c-.08-.11-.17-.21-.26-.32a18.54,18.54,0,0,0-1.57-1.62l-.42-.39a25.84,25.84,0,0,0-2.77-2.1l-.44-.29c-.2-.13-.4-.26-.61-.38l-.51-.31c-.45-.26-.9-.52-1.36-.77-5.5-3-10.19-5.59-14.09-5.59a7.32,7.32,0,0,0-4.89,1.86c-2.89,2.54-4.43,7.9-4.52,8.21C407.76,262.56,403.76,290,397.11,294Z" style="fill:#68C86E"></path><path d="M397.11,294s4.33,1.43,19.79,9c6.35,3.11,10.52,6.26,16.46,10,8.75,5.51,8.08,9.6,8.08,9.6,4.35-3.61,8.68-45.39,7.61-58a31.64,31.64,0,0,0-2.49-10.52c-.11-.25-.23-.49-.35-.74l-.26-.5-.13-.23a19.36,19.36,0,0,0-1.1-1.76l-.29-.41c-.11-.13-.2-.27-.31-.4a3.68,3.68,0,0,0-.31-.38c-.08-.11-.17-.21-.26-.32a18.54,18.54,0,0,0-1.57-1.62l-.42-.39a25.84,25.84,0,0,0-2.77-2.1l-.44-.29c-.2-.13-.4-.26-.61-.38l-.51-.31c-.45-.26-.9-.52-1.36-.77-5.5-3-10.19-5.59-14.09-5.59a7.32,7.32,0,0,0-4.89,1.86c-2.89,2.54-4.43,7.9-4.52,8.21C407.76,262.56,403.76,290,397.11,294Z" style="fill:#fff;opacity:0.1"></path></g></g><g id="freepik--bottom--inject-261"><path d="M388.56,339.64l-8.1-10.58-12.62,9.29c8.41,5.7,17.66,12.81,19.93,15.56,0,0,7.17-3,7.64-7.07S390.81,340.53,388.56,339.64Z" style="fill:#ffa8a7"></path><path d="M397.83,342.66a6.37,6.37,0,0,1,2,1.5c.61.62,1.11,4.11,1.87,5.63a44,44,0,0,0,2.33,3.75c1.27,2.07,3.22,3.81,2.51,9.87s-3,9.33-5.19,11.17a6.38,6.38,0,0,1-2.76,1.24s-3.37-.6-3.23-2.55S397.83,342.66,397.83,342.66Z" style="fill:#263238"></path><path d="M385.19,351.52c.2.58,1.2,1.33,1.62,1.75a16,16,0,0,1,3.11,5.35c3.54,8.72.8,14,6.31,16.49,1.58.63,4.47-.16,7.86-6.71,1.73-3.34,1.92-9.59.52-12.14s-2.94-4.1-3.9-6.08-1.39-5.94-2.88-7.52a8.71,8.71,0,0,0-3.29-1.91c-1-.36-3-.7-4-1s-1.57-.82-2-.07l1.26,1.07c2,1.91,1.61,2.31,1.8,3.49a18,18,0,0,0,1.28,3.62c-1.4-1.21-2.09-2.37-3.28-1.92s-1.36.41-2.82,2.4S385,351,385.19,351.52Z" style="fill:#68C86E"></path><path d="M385.19,351.52c.2.58,1.2,1.33,1.62,1.75a16,16,0,0,1,3.11,5.35c3.54,8.72.8,14,6.31,16.49,1.58.63,4.47-.16,7.86-6.71,1.73-3.34,1.92-9.59.52-12.14s-2.94-4.1-3.9-6.08-1.39-5.94-2.88-7.52a8.71,8.71,0,0,0-3.29-1.91c-1-.36-3-.7-4-1s-1.57-.82-2-.07l1.26,1.07c2,1.91,1.61,2.31,1.8,3.49a18,18,0,0,0,1.28,3.62c-1.4-1.21-2.09-2.37-3.28-1.92s-1.36.41-2.82,2.4S385,351,385.19,351.52Z" style="opacity:0.4"></path><path d="M404.09,368.4c1.73-3.34,1.92-9.59.52-12.14a25.24,25.24,0,0,0-1.54-2.44,5.23,5.23,0,0,1,.22.51c.12.34.23.68.33,1a8.23,8.23,0,0,1,.32,4.2c-.3,1.23-1,4.28-2.47,4.63a2.32,2.32,0,0,1-2.26-1.42c-.22-.38-.65-1.44-.65-1.44a13.72,13.72,0,0,0-3.67,2.36c-1.94,1.88-1.8,2.19-1.8,2.19a5.81,5.81,0,0,1,.44,1.93,4.79,4.79,0,0,1-.47,2.08,2.62,2.62,0,0,1-.48.56,6,6,0,0,0,3.65,4.66C397.81,375.74,400.7,375,404.09,368.4Z" style="opacity:0.30000000000000004"></path><path d="M389.92,358.62a30.86,30.86,0,0,1,1.91,7.14c1.27,2.17,2,2,1.86.74s-2.66-5.92-4.62-9.82C389.38,357.33,389.66,358,389.92,358.62Z" style="fill:#37474f"></path><path d="M392.73,343.05a5.14,5.14,0,0,0-1.51-3.15c-.24-.06-.46-.13-.64-.19-1.06-.36-1.57-.82-2-.07l1.26,1.07c2,1.91,1.61,2.31,1.8,3.49a18,18,0,0,0,1.28,3.62c1.66,3.77,2.75,4.93,3.88,8.56s.85,6.28,1.41,6.39,1.55-.5,1.19-3.52-2.62-7.78-4-10S392.83,344.68,392.73,343.05Z" style="fill:#37474f"></path><path d="M398.87,361.54a.39.39,0,0,1-.17.14,9.09,9.09,0,0,0-5.3,4.59.37.37,0,1,1-.65-.37,9.77,9.77,0,0,1,5.66-4.92.38.38,0,0,1,.49.21A.36.36,0,0,1,398.87,361.54Z" style="fill:#ebebeb"></path><path d="M397.82,358.53a.39.39,0,0,1-.17.14,10.12,10.12,0,0,0-5.55,5,.37.37,0,0,1-.53.14.39.39,0,0,1-.14-.53,10.9,10.9,0,0,1,5.91-5.29.39.39,0,0,1,.48.57Z" style="fill:#ebebeb"></path><path d="M397.25,355.1a.55.55,0,0,1-.18.16,11.5,11.5,0,0,0-6.21,5.57.43.43,0,0,1-.58.16.45.45,0,0,1-.16-.59,12.38,12.38,0,0,1,6.6-5.93.45.45,0,0,1,.57.22A.42.42,0,0,1,397.25,355.1Z" style="fill:#ebebeb"></path><path d="M396.21,352.28a.45.45,0,0,1-.18.15,11.25,11.25,0,0,0-6.07,5.44.42.42,0,0,1-.57.16.41.41,0,0,1-.15-.57,12,12,0,0,1,6.46-5.8.42.42,0,0,1,.55.22A.41.41,0,0,1,396.21,352.28Z" style="fill:#ebebeb"></path><path d="M394.61,349.64a.45.45,0,0,1-.18.15,11.21,11.21,0,0,0-6.07,5.44.42.42,0,1,1-.72-.42,12.05,12.05,0,0,1,6.45-5.79.42.42,0,0,1,.52.62Z" style="fill:#ebebeb"></path><path d="M395.31,291.88s-32.56,7.2-44.38,10.4c-12.06,3.27-10.78,12.63-6.29,17.39,8.59,9.11,33,25.9,33,25.9s6.92-4.26,7.45-10.66l-6.7-9.48,24.26-3,3.46-4.19Z" style="fill:#455a64"></path><path d="M372.54,335.79c1.72-4,3.24-5.23,7.49-8.08l5.09,7.2c-.53,6.4-7.45,10.66-7.45,10.66s-2.82-1.94-6.87-4.85A44.31,44.31,0,0,1,372.54,335.79Z" style="fill:#37474f"></path><path d="M374.17,315.91c2.11,1.86,4,3.54,5.59,5.18s5.37,1.66,8.71,0c4.16-2.06,8.56-5.57,11.13-7.59-3.78-4.22-2.27-10.4-2.27-10.4.37,4,2.18,7.36,4.12,8.95l2.06,1.44.73,6.36-1.14,2.51-24.68,3.07c-6.78-8.81-9.11-12.86-14.79-13.53C363.63,311.9,367.92,310.41,374.17,315.91Z" style="fill:#37474f"></path><path d="M378.32,385.88l.35-1.16,7.9-20.47-14.9-5.58c-1.94,10.53-4.33,24.42-6.59,28.07,0,0,4,6.26,8,5.53S378.13,388.29,378.32,385.88Z" style="fill:#ffa8a7"></path><path d="M377.81,393.36a6.26,6.26,0,0,1-.85,2.35c-.42.77-3.61,2.26-4.84,3.43s-1.45,1.69-2.9,3.32c-1.61,1.82-2.71,4.2-8.71,5.29s-9.81-.19-12.2-1.7a6.4,6.4,0,0,1-2-2.28s-.4-3.4,1.5-3.84S377.81,393.36,377.81,393.36Z" style="fill:#263238"></path><path d="M365.65,383.87a6.72,6.72,0,0,0-1.2,2.06,15.94,15.94,0,0,1-4.21,4.53c-7.31,5.94-13.16,4.86-13.93,10.86-.14,1.69,1.46,4.22,8.71,5.55,3.71.68,9.73-1,11.77-3.05s3.06-4,4.67-5.51,5.27-3.06,6.35-4.95a8.66,8.66,0,0,0,.87-3.69c.06-1,.09-4.51.09-4.51-1.24,2.47-3.17,2.2-4.25,2.71a18.78,18.78,0,0,0-3.08,2.29c.75-1.69,1.66-2.69.88-3.7s-.79-1.18-3.13-2S366.08,383.55,365.65,383.87Z" style="fill:#68C86E"></path><path d="M365.65,383.87a6.72,6.72,0,0,0-1.2,2.06,15.94,15.94,0,0,1-4.21,4.53c-7.31,5.94-13.16,4.86-13.93,10.86-.14,1.69,1.46,4.22,8.71,5.55,3.71.68,9.73-1,11.77-3.05s3.06-4,4.67-5.51,5.27-3.06,6.35-4.95a8.66,8.66,0,0,0,.87-3.69c.06-1,.09-4.51.09-4.51-1.24,2.47-3.17,2.2-4.25,2.71a18.78,18.78,0,0,0-3.08,2.29c.75-1.69,1.66-2.69.88-3.7s-.79-1.18-3.13-2S366.08,383.55,365.65,383.87Z" style="opacity:0.4"></path><path d="M355,406.87c3.71.68,9.73-1,11.77-3.05a26.62,26.62,0,0,0,1.88-2.18c-.15.12-.29.26-.42.36l-.89.62a8.32,8.32,0,0,1-3.93,1.53c-1.26.06-4.37.33-5.14-1a2.32,2.32,0,0,1,.69-2.57c.3-.32,1.19-1.05,1.19-1.05a13.67,13.67,0,0,0-3.33-2.81c-2.36-1.31-2.61-1.08-2.61-1.08a6,6,0,0,1-1.72,1,5,5,0,0,1-2.14.16,3.66,3.66,0,0,1-.67-.29,6,6,0,0,0-3.39,4.85C346.17,403,347.77,405.54,355,406.87Z" style="opacity:0.30000000000000004"></path><path d="M360.24,390.46a31.22,31.22,0,0,1-6.27,3.92c-1.7,1.84-1.3,2.47-.17,2s4.89-4.27,8-7.28C361.31,389.57,360.77,390,360.24,390.46Z" style="fill:#37474f"></path><path d="M376,388.6a6.8,6.8,0,0,0,2.76-1.39c.52-.48.17-1.87,0-2.49l-.39,1.24a12.42,12.42,0,0,1-3.76,1.91,18.78,18.78,0,0,0-3.08,2.29c-3.12,2.69-3.91,4.07-7.06,6.21s-5.75,2.65-5.7,3.22.94,1.33,3.72.1,6.68-4.77,8.38-6.72S374.43,389.18,376,388.6Z" style="fill:#37474f"></path><path d="M360.06,399.88a.5.5,0,0,1-.19-.13,9,9,0,0,0-5.93-3.72.39.39,0,0,1-.29-.45.38.38,0,0,1,.45-.29,9.79,9.79,0,0,1,6.36,4,.37.37,0,0,1-.06.53A.39.39,0,0,1,360.06,399.88Z" style="fill:#ebebeb"></path><path d="M362.63,398a.36.36,0,0,1-.18-.12,10.15,10.15,0,0,0-6.37-3.86.37.37,0,0,1-.29-.46.38.38,0,0,1,.46-.29,10.93,10.93,0,0,1,6.79,4.11.39.39,0,0,1,0,.55A.39.39,0,0,1,362.63,398Z" style="fill:#ebebeb"></path><path d="M365.74,396.44a.41.41,0,0,1-.2-.13,11.51,11.51,0,0,0-7.14-4.3.43.43,0,0,1-.32-.51.43.43,0,0,1,.51-.32,12.32,12.32,0,0,1,7.6,4.58.43.43,0,0,1,0,.6A.41.41,0,0,1,365.74,396.44Z" style="fill:#ebebeb"></path><path d="M368.14,394.63a.5.5,0,0,1-.19-.13,11.19,11.19,0,0,0-7-4.21.44.44,0,0,1-.31-.51.42.42,0,0,1,.5-.31,12.05,12.05,0,0,1,7.43,4.48.42.42,0,0,1,0,.59A.43.43,0,0,1,368.14,394.63Z" style="fill:#ebebeb"></path><path d="M370.2,392.33a.5.5,0,0,1-.19-.13,11.19,11.19,0,0,0-7-4.21.43.43,0,0,1-.31-.51.42.42,0,0,1,.5-.31,12.05,12.05,0,0,1,7.43,4.48.42.42,0,0,1,0,.59A.43.43,0,0,1,370.2,392.33Z" style="fill:#ebebeb"></path><path d="M367.2,377.38c3.91,4.06,13.33,3.77,13.33,3.77s2.71-5.17,7.59-16.49c2.73-6.32,4.25-9.19,5.41-18,8.28-4.06,23-9.89,37-20.34,10-7.48,11.59-17.64,10.32-29.67-1.56-14.79-45-2.71-45-2.71,2.87,8,2.22,15.92,7.65,19.56,0,0-17.49,12.54-23.39,17-2.71,2.06-4,2.73-5.3,9C371,357.74,367.2,377.38,367.2,377.38Z" style="fill:#455a64"></path><path d="M378.46,381.11l-.78-.06c3-5.64,7.54-17.76,9.23-23,.55-1.7,1.69-6.49,2-7.8,1.6-6.28,1.83-8.56,3.55-9.15.44-.14,1.39-.7,2.88-1.44,7.57-3.75,25.88-13.06,32.2-19,.19-.17.36-.36.54-.54-3.19-1.84-4.18-6.71-3-10.17,1.23-3.7,1.15-10.39-.8-13.14l.57-.4c2.27,3.21,2,10.3.89,13.76-1.09,3.25-.07,7.88,2.87,9.44,5.9-6.3,7.42-15,4.38-25.2l.66-.2c3.3,11.09,1.36,20.41-5.61,27-6.4,6-24.78,15.35-32.37,19.11-1.43.71-2.46,1.22-2.85,1.44-1.64.88-2.24,5.2-3.19,8.82-.34,1.31-1.48,6.06-2.07,7.77C385.73,363.63,381.3,375.61,378.46,381.11Z" style="fill:#37474f"></path></g><g id="freepik--Desk--inject-261"><polygon points="375.29 356.52 377.67 355.15 383.83 432.76 381.45 434.13 375.29 356.52" style="fill:#455a64"></polygon><polygon points="375.29 356.52 371.74 354.47 379.08 432.76 381.45 434.13 375.29 356.52" style="fill:#37474f"></polygon><polygon points="310.49 319.17 312.86 317.8 305.52 387.61 303.14 388.98 310.49 319.17" style="fill:#455a64"></polygon><polygon points="310.49 319.17 306.93 317.11 300.77 387.61 303.15 388.98 310.49 319.17" style="fill:#37474f"></polygon><polygon points="416.74 332.62 419.11 331.25 425.27 408.86 422.9 410.23 416.74 332.62" style="fill:#455a64"></polygon><polygon points="416.74 332.62 413.18 330.57 420.52 408.86 422.9 410.23 416.74 332.62" style="fill:#37474f"></polygon><polygon points="351.93 295.27 354.31 293.89 346.96 363.71 344.59 365.08 351.93 295.27" style="fill:#455a64"></polygon><polygon points="351.93 295.27 348.38 293.21 342.21 363.71 344.59 365.08 351.93 295.27" style="fill:#37474f"></polygon><g id="freepik--desk--inject-261"><path d="M438.87,331.39v-2.81a1.59,1.59,0,0,0-.72-1.25l-89.87-51.92a1.61,1.61,0,0,0-1.45,0l-59.32,34.3a1.62,1.62,0,0,0-.72,1.25v2.81a1.64,1.64,0,0,0,.72,1.26L377.39,367a1.59,1.59,0,0,0,1.44,0l59.32-34.31A1.59,1.59,0,0,0,438.87,331.39Z" style="fill:#68C86E"></path><path d="M438.87,331.39v-2.81a1.59,1.59,0,0,0-.72-1.25l-89.87-51.92a1.61,1.61,0,0,0-1.45,0l-59.32,34.3a1.62,1.62,0,0,0-.72,1.25v2.81a1.64,1.64,0,0,0,.72,1.26L377.39,367a1.59,1.59,0,0,0,1.44,0l59.32-34.31A1.59,1.59,0,0,0,438.87,331.39Z" style="fill:#fff;opacity:0.2"></path><path d="M378.11,362.64v4.48a1.53,1.53,0,0,0,.72-.17l59.32-34.3a1.61,1.61,0,0,0,.72-1.26v-2.81a1.63,1.63,0,0,0-.59-1.16c.26.23.22.54-.13.75l-59.32,34.3A1.42,1.42,0,0,1,378.11,362.64Z" style="fill:#68C86E"></path><path d="M438.15,328.16l-59.32,34.31a1.59,1.59,0,0,1-1.44,0l-89.88-51.92a.45.45,0,0,1,0-.84l59.32-34.3a1.61,1.61,0,0,1,1.45,0l89.87,51.92A.44.44,0,0,1,438.15,328.16Z" style="fill:#68C86E"></path><path d="M438.15,328.16l-59.32,34.31a1.59,1.59,0,0,1-1.44,0l-89.88-51.92a.45.45,0,0,1,0-.84l59.32-34.3a1.61,1.61,0,0,1,1.45,0l89.87,51.92A.44.44,0,0,1,438.15,328.16Z" style="fill:#fff;opacity:0.5"></path></g></g><g id="freepik--Laptop--inject-261"><g id="freepik--laptop--inject-261"><path d="M314.46,302.9l31.59-18.24a1.83,1.83,0,0,1,1.81,0l54.8,31.64a.4.4,0,0,1,0,.7l-31.88,18.41Z" style="opacity:0.2"></path><path d="M318.94,300.23v.68a2.81,2.81,0,0,0,1.4,2.43l49,28.26a2.76,2.76,0,0,0,1.39.37,2.83,2.83,0,0,0,1.41-.37l26.68-15.36a2.81,2.81,0,0,0,1.4-2.42v-.95h0a.36.36,0,0,1-.18.31l-29.3,16.92Z" style="fill:#37474f"></path><path d="M318.93,300.23l29-16.76a1.71,1.71,0,0,1,1.67,0L400,312.55a.37.37,0,0,1,0,.64l-29.3,16.92Z" style="fill:#455a64"></path><polygon points="370.95 327.64 386.61 318.62 340.83 292.19 325.09 301.17 370.95 327.64" style="fill:#37474f"></polygon><polygon points="325.09 301.17 325.69 301.51 340.83 292.87 386 318.96 386.6 318.62 340.83 292.19 325.09 301.17" style="fill:#263238"></polygon><polygon points="378.64 302.53 378.36 302.69 370.68 307.12 357.04 299.25 356.75 299.08 364.72 294.49 378.64 302.53" style="fill:#263238"></polygon><polygon points="378.36 302.69 370.68 307.12 357.04 299.25 364.72 294.82 378.36 302.69" style="fill:#37474f"></polygon><path d="M370.68,330.11V332a2.76,2.76,0,0,1-1.39-.37l-49-28.26a2.82,2.82,0,0,1-1.4-2.43v-.68Z" style="fill:#263238"></path></g></g><g id="freepik--Arm--inject-261"><path d="M367,276c4.82-1.87,16.93-7.21,16.93-7.21s10.93-18.32,13.32-22.16c2.86-4.6,6.92-8,13.56-7.51l-1.17,19.19s-11.78,16.9-13.88,19.68c-1.6,2.12-1.5,2.72-5.74,3.6L370,285.76l-.8.24a2.67,2.67,0,0,0-1.4.95,7.66,7.66,0,0,0-.88,1.47c-.84,1.79-.77,2.4-1.63,4.34s-1.28,1.76-2.63,3.23-1.8,2.31-2.41,2.17-.93-1.7-.48-3,1.74-2.51,2-3.06.15-1.35-1.36-1-4.78,3.25-6.24,4.49-2.66,3.15-4,4-1.25-.56-1.34-1.74-1.3-3-1.3-4.86,2.09-6.39,4-7.91,5.56-4.14,6.53-4.71A55.76,55.76,0,0,1,367,276Z" style="fill:#ffa8a7"></path><path d="M411.34,238.9c-2.86-.26-6.42-.14-9.4,2.2s-4.47,4.33-8.87,11.78-6.61,11.27-6.61,11.27a14.09,14.09,0,0,0,5.28,6.35,27.06,27.06,0,0,0,7.6,3l11.15-15.16Z" style="fill:#ebebeb"></path></g><g id="freepik--top--inject-261"><g id="freepik--chest--inject-261"><path d="M399.1,256.69c1.17-13,5.62-17.33,12.24-17.79a130.49,130.49,0,0,1,14.46,1.41,56.84,56.84,0,0,1,15.88,6.16c3.28,2.05,4.33,6.44,4.39,15.63a204.9,204.9,0,0,1-1.72,26.5,136.53,136.53,0,0,1-4.53,22.84c-9.14,3.05-45.36-8-45.08-19.63.94-2.66,2.57-5.72,3.31-11.11C399,271.26,398.74,260.77,399.1,256.69Z" style="fill:#263238"></path><g id="freepik--head--inject-261"><path d="M430,235.57c.89-3.58,4.78-7.08,6.64-10.12s2.91-5.22,2.95-8.09c0-1.71-.87-4.08-2.1-4.66,1.94-6.19-2.54-9.07-4.61-10-.91-.4-2.93-1.06-3.83-1.52-1.32-.67-1.54-1.79-2.57-2.81-1.78-1.75-5-2-6.36.31-1.14-1.73-2.86-1.81-4.87-1.46a3.39,3.39,0,0,0-2.88,3.62,3.54,3.54,0,0,0-5.45,1.54c-.27,1.13-.1,2.11-.93,3.08s-2.53,1-2.94,0c-.4,1.61.15,2.9,1.92,2.94a3.73,3.73,0,0,0-.7,3.08,3.4,3.4,0,0,0,2.88,2.56,5.13,5.13,0,0,0,2.53,4.57c2.58,1.48,5.5,2.12,8.34,2.93l3.36,1c.2.06,1.22.2,1.33.38Z" style="fill:#263238"></path><path d="M434.7,231.22a3.53,3.53,0,0,1-4.26-.45l-.73,12c-2.37,5-11.17,5.15-14.23,3.47s-2.53-3.54-.25-6.25l-.07-2a34.4,34.4,0,0,1-4.29-.52c-2.81-.6-4.77-3.07-5.35-6.21a32.1,32.1,0,0,1,.57-12.21,10.31,10.31,0,0,0,.38-3,14.12,14.12,0,0,1,1.37-6.33c3.32-2.28,10.61-2.59,17,2-1.08,4,.23,7.25,3,9-.22,1.07-.57,3.79,1.22,3.88,1.28.06,1.49-1.54,2.91-2.86s4.53-1.47,5.56.71A7,7,0,0,1,434.7,231.22Z" style="fill:#ffa8a7"></path><path d="M424.29,218.36l8.35,3a3.4,3.4,0,0,0-1.34,1.28L424,220.34Z" style="fill:#263238"></path><path d="M404.32,215.52c-.11.83.33,1.11.39,1.74a21.58,21.58,0,0,0,0,3.4,3.49,3.49,0,0,0,3,3,4.12,4.12,0,0,0,2.42-.16,4,4,0,0,0,1.81-1.59c.79-1.13.86-2.9,2-2.71s.66,1.93,1.06,3.3a4.25,4.25,0,0,0,3.66,3.27,3.76,3.76,0,0,0,3.08-.57c1.33-1,1.6-2.89,2.11-4.22.24-.65.79-.69,1-1.51s-.44-1.18-1.09-1.31a18,18,0,0,0-5.84-.94c-1.94.19-2.69.68-3.72.49s-1.47-.92-3.11-1.8a16.71,16.71,0,0,0-5.95-1.27C404.81,214.6,404.4,215,404.32,215.52Zm12,3.28a1.63,1.63,0,0,1,.61-.35l.1,0a7.28,7.28,0,0,1,2.79-.27,4.73,4.73,0,0,1,3.2,1.23c.42.69-.27,2.69-.69,3.63h0a2.91,2.91,0,0,1-.18.35h0l-.11.18c-1.1,2.06-4.59,1.57-5.63-.22h0A4.91,4.91,0,0,1,416.28,218.8ZM406,216.1a1.51,1.51,0,0,1,.49-.2h0a2.13,2.13,0,0,1,.44-.07h.1c1.59-.17,4.42,1,5,2.16.29.75-.19,2.29-.69,3.24a3,3,0,0,1-.5.69c-.7,1-3,1.24-4.24.24a3.82,3.82,0,0,1-1.16-3.12C405.38,218.12,405.49,216.4,406,216.1Z" style="fill:#37474f"></path><path d="M414.75,220.67l-2,6.67-4.1-2.56c.2-.24.41-.49.61-.75l.3-.37.61-.76c.54-.66,1.09-1.31,1.6-1.88a14.47,14.47,0,0,1,1.18-1.17h0c.23-.21.46-.4.64-.54s.14-.11.21-.15h.15C414.56,219.28,414.69,219.9,414.75,220.67Z" style="fill:#f28f8f"></path><path d="M415.16,238c4.55-.19,8-.42,10.6-3.51a27.92,27.92,0,0,0,3.12-5.13,22.21,22.21,0,0,1-2.44,6.54c-1.29,2-4.11,3.64-11.22,3.71Z" style="fill:#f28f8f"></path><path d="M417.13,220.91a1.27,1.27,0,1,0,1.43-1.16A1.31,1.31,0,0,0,417.13,220.91Z" style="fill:#263238"></path><path d="M419.15,215.59l2.85,1.25a1.63,1.63,0,0,0-.83-2.1A1.53,1.53,0,0,0,419.15,215.59Z" style="fill:#263238"></path><path d="M418,228.79l-4.31.93a2.33,2.33,0,0,0,2.7,1.73A2.16,2.16,0,0,0,418,228.79Z" style="fill:#b16668"></path><path d="M415.14,231.36a2.6,2.6,0,0,1,2.88-1.94,2.11,2.11,0,0,1-1.66,2A2.19,2.19,0,0,1,415.14,231.36Z" style="fill:#f28f8f"></path><path d="M407.71,214.64l3.12-.12a1.49,1.49,0,0,0-1.56-1.52A1.64,1.64,0,0,0,407.71,214.64Z" style="fill:#263238"></path><path d="M407.45,219.16a1.28,1.28,0,0,0,1.22,1.36,1.31,1.31,0,0,0,1.32-1.28,1.28,1.28,0,0,0-1.22-1.36A1.31,1.31,0,0,0,407.45,219.16Z" style="fill:#263238"></path></g></g></g><g id="freepik--arm--inject-261"><path d="M389.4,294.11a21,21,0,0,0-8.14-.92c-3.09.18-5.53-.66-6-.51-1.64.59-.6,3.35,3.36,3.8C381.69,296.82,389.4,294.11,389.4,294.11Z" style="fill:#f28f8f"></path><path d="M430.62,303.78c-7,1.05-27.92,1.92-28.9,2.13-.42.09-2.3.39-2.79.47-1,.18-2.05.39-3.09.54a9,9,0,0,1-1.8.14,23.86,23.86,0,0,1-4.19-.81,7.73,7.73,0,0,0-3.38-.2c-1.39.25-2.75.57-4.12.88a5.48,5.48,0,0,1-3.35-.17,9.14,9.14,0,0,1-1.06-.61,6.5,6.5,0,0,0-1.69-.34,2.17,2.17,0,0,1-1.17-.63c-.17-.2-.22-.53-.42-.7a2.2,2.2,0,0,0-1.11-.27,8.29,8.29,0,0,1-1.72-.32c-.75-.25-1.81-.79-1.6-1.74.09-.43.44-.59.8-.84.61-.42,1.27-.84,1.85-1.31,1.35-1.11,2.87-2,4.22-3.08a8.16,8.16,0,0,1,4.13-1.6c1.59-.26,3.15-.64,4.75-.82,1.3-.14,2.56-.63,3.89-.31,3.22.77,6.49,2.26,9.86,1.62,4.89-.93,26.65-6.83,26.65-6.83l5.24-19.74s3.66-17.68,9.22-22.89c4,1.52,7.65,4.57,8.84,8.68,1.41,4.84-.06,9.07-2.82,20.82-2.1,8.92-2.54,9.73-4.95,18.1C439.94,300.81,439.23,302.51,430.62,303.78Z" style="fill:#ffa8a7"></path><path d="M440.53,245.81c4.21,1.93,8.82,4.55,9.93,11.33s-5.28,27.41-5.28,27.41a25.59,25.59,0,0,1-9.67-1.23c-5.73-1.72-7-4.33-7-4.33s1.95-8.95,3.06-13.12S434.94,250.93,440.53,245.81Z" style="fill:#ebebeb"></path></g><path d="M369.89,330.52a3.29,3.29,0,0,1-2.85-.22L318.3,302.16a3.3,3.3,0,0,1-1.61-2.32L311.35,268a3.48,3.48,0,0,1,0-.55,3.3,3.3,0,0,1,1-2.35l50.65,29.24a2.47,2.47,0,0,1,1.19,1.72Z" style="fill:#37474f"></path><path d="M370.68,330.11l-.33.19a3.88,3.88,0,0,1-.46.22l-5.76-34.43a2.47,2.47,0,0,0-1.19-1.72l-50.65-29.24a3.5,3.5,0,0,1,.68-.52l50.75,29.3a2.5,2.5,0,0,1,1.19,1.72Z" style="fill:#455a64"></path><path d="M363.66,295l.78-.45a2.49,2.49,0,0,1,.47,1.06l5.77,34.48-.33.19a3.88,3.88,0,0,1-.46.22l-5.76-34.43A2.53,2.53,0,0,0,363.66,295Z" style="fill:#263238"></path><path d="M342.45,301.15c-.36-2.13-2.56-5-4.92-6.32s-4-.74-3.62,1.39,2.56,5,4.92,6.32S342.8,303.28,342.45,301.15Z" style="fill:#68C86E"></path></g></g><g id="freepik--character-1--inject-261"><g id="freepik--character--inject-261"><g id="freepik--bottom--inject-261"><path d="M117.18,413c.72-9.35-.48-19.63.35-34.23h0c.08-3.75.22-7.75.49-11.32.9-12,2.87-16.07,3-18.39,0,0,1-23,1.81-49.18.39-12.33,4.2-16.07,7.24-22.61H168c4,16.15,6.37,51.33,6.25,68-.07,8.49-3.32,53.77-3.39,54.82a9,9,0,0,0,2.91,7.45c3.24,3.26,8.3,5.77,12.36,8.61-.59,1.46-8.68,1.45-11.1.34a62.08,62.08,0,0,1-9-5.39c-3.34-2.32-6.91-1.08-8.25-4.71a34.62,34.62,0,0,1,0-5.68c-.06-2.06-4.75-30.38-5.17-37.43a156.51,156.51,0,0,1,.42-16.34l-4.17-25.67s-3.2,19.49-5.8,29.85c-2.12,8.43-5.61,22.82-8,33.2h0c-2.28,12-5.57,23.58-6.15,29.57-.17,1.43-1.9,15.45-2.61,18.67s-9.86,3.29-10.34-2.23C115.67,426.58,117,414.71,117.18,413Z" style="fill:#c8856a"></path><path d="M191.31,420.49a3.22,3.22,0,0,1-.6,3.34c-1.35,1.16-5.35,3.08-10.67,2.47s-8.21-2.18-10.35-3.88-5.15-4.11-7.55-4.6a14.83,14.83,0,0,1-5.4-2.07c-.72-.66-.65-3.64-.65-3.64Z" style="fill:#263238"></path><path d="M157.81,400.64s-.4,0-.53.7-.3,3.21-.64,4.56a23.57,23.57,0,0,0-.44,7.24c.31,1.52,4,2.54,6.29,3.37a30,30,0,0,1,7.58,4.54A22.31,22.31,0,0,0,181.32,425c5.28,0,8.69-1.4,9.72-3.26,1.29-2.29.81-4.36-5.29-7-1.16-.51-4-2.51-5.38-3.34a30.3,30.3,0,0,1-4.16-2.94,20.8,20.8,0,0,1-1.87-1.76,8.23,8.23,0,0,1-1.56-1.89c-.07-.15-.12-.34-.19-.5a9.38,9.38,0,0,1-.41-1.37c-.1-.49-.17-1.21-.65-1.49a4.13,4.13,0,0,0-2.18-.23c-.78.07-3.36.65-4.12.83s-1.92.29-2.45,1.11a4.27,4.27,0,0,0-.47,2.14c0,.34,0,.69,0,1,0,.15.07.41-.15.36s-.43-.57-.51-.75c-.17-.38-.28-.79-.47-1.17a6.59,6.59,0,0,0-.77-1.24,6.16,6.16,0,0,0-1-.94,10.14,10.14,0,0,1-1.05-.64A2.39,2.39,0,0,1,157.81,400.64Z" style="fill:#37474f"></path><path d="M186.73,415.14c-7.64.59-10.56,5.95-10.85,8.79a18.07,18.07,0,0,0,5.44,1.05c5.28,0,8.9-1.4,9.94-3.26C192.47,419.56,192.18,417.08,186.73,415.14Z" style="fill:#fafafa"></path><path d="M174.71,416.09a.41.41,0,0,1-.24-.08.36.36,0,0,1-.06-.51c1.05-1.28,5.89-3.47,8.67-3.2a.36.36,0,0,1,.34.39.37.37,0,0,1-.41.33c-2.6-.24-7.18,1.92-8,2.93A.35.35,0,0,1,174.71,416.09Z" style="fill:#f0f0f0"></path><path d="M171.39,414.26a.46.46,0,0,1-.24-.08.35.35,0,0,1-.05-.51c1.05-1.28,5.89-3.47,8.67-3.2a.36.36,0,1,1-.07.72c-2.6-.24-7.19,1.92-8,2.93A.37.37,0,0,1,171.39,414.26Z" style="fill:#f0f0f0"></path><path d="M168.32,412.16a.35.35,0,0,1-.24-.08.36.36,0,0,1-.06-.51c1-1.27,5.9-3.46,8.67-3.2a.37.37,0,0,1,.34.4.37.37,0,0,1-.41.33c-2.59-.25-7.18,1.91-8,2.93A.34.34,0,0,1,168.32,412.16Z" style="fill:#f0f0f0"></path><path d="M165.3,410.07a.4.4,0,0,1-.23-.08.37.37,0,0,1-.07-.51c1.45-1.81,6.53-3.51,9.31-3.24a.36.36,0,0,1,.34.39.38.38,0,0,1-.41.33c-2.5-.24-7.36,1.36-8.65,3A.37.37,0,0,1,165.3,410.07Z" style="fill:#f0f0f0"></path><path d="M128.06,433.42c-.36,3.65-1,6.05-2.3,8.14s-3.76,2.5-6.12,2.14c-3.23-.48-6.58-2.9-7.39-6-.87-3.33-.59-5.35.09-8.72Z" style="fill:#263238"></path><path d="M117.42,406.49c-1,0-1.11,5.25-1.88,10.14-.82,5.25-2.38,7.37-3.1,11.66-.82,4.92-.15,7.16,1.33,10.21s8.75,6.31,11.75,2.16c2.45-3.39,2.71-7.25,2.72-12.19A116.84,116.84,0,0,1,129.1,416c.35-3.69,1.6-7.48.79-7.93-.09.54-.27,1.33-.36,1.86a10.32,10.32,0,0,1-.63,1.95c-.11.28-.34.55-.4.1a2.86,2.86,0,0,1,0-.92c.2-1.35-.44-1.49-.78-1.61-.74-.26-5.36-.86-6.07-.94s-3.23-.31-3.58.12a3.19,3.19,0,0,0-.38,1.41c-.12.74-.3,1.28-.31,1,0-.53,0-1.81,0-2.14C117.42,408.22,117.39,406.81,117.42,406.49Z" style="fill:#37474f"></path><path d="M112.11,430.77a11.29,11.29,0,0,0,1.46,7.58c1.76,2.88,9.2,6.34,12.2,2.19a14.81,14.81,0,0,0,2.29-7.12C126.52,430.05,114.9,428.08,112.11,430.77Z" style="fill:#fafafa"></path><path d="M126.22,428l-.12,0s-6-2.25-10.38-1.37a.36.36,0,0,1-.41-.31.38.38,0,0,1,.29-.44c4.58-.92,10.67,1.35,10.84,1.44a.4.4,0,0,1,.14.52A.36.36,0,0,1,126.22,428Z" style="fill:#f0f0f0"></path><path d="M116.1,422.88a.35.35,0,0,1-.29-.27.38.38,0,0,1,.24-.47c4.34-1.37,10.66,1.24,10.83,1.35a.4.4,0,0,1,.13.52.35.35,0,0,1-.48.14s-6.25-2.56-10.28-1.28Z" style="fill:#f0f0f0"></path><path d="M116.4,419.41a.37.37,0,0,1-.29-.26.39.39,0,0,1,.24-.47c4.78-1.6,10.84,1.21,11,1.33a.4.4,0,0,1,.09.53.34.34,0,0,1-.49.1s-6-2.73-10.4-1.24A.3.3,0,0,1,116.4,419.41Z" style="fill:#f0f0f0"></path><path d="M116.78,416a.35.35,0,0,1-.28-.26.39.39,0,0,1,.23-.48c4.48-1.57,10.89,1.32,11.06,1.44a.39.39,0,0,1,.11.53.34.34,0,0,1-.49.11s-6.31-2.82-10.47-1.36A.41.41,0,0,1,116.78,416Z" style="fill:#ebebeb"></path><path d="M129.16,277.32c-4.29,7.34-7.48,13.33-7.91,35.14s-1,32.23-1.08,34.86-1.73,7.33-3.16,20.28-.12,28.12-.12,28.12a16.83,16.83,0,0,0,8.33,2.79c4.88.41,7.29-1.3,7.29-1.3s6.68-25.22,8.53-33,7.85-37.77,7.85-37.77l3.18,20.81s-1.48,7.14,0,18.5,3.34,22.81,3.34,22.81a28,28,0,0,0,8.25,1.33,35,35,0,0,0,8.35-1.32s3.53-34.13,3.53-47-.3-44.56-3.22-64.07Z" style="fill:#455a64"></path><path d="M148.89,326.41l4.35-24.75s9.18-.62,14.28-5.62c-1,4.28-8.26,7.89-11.57,8.63l-.84,4.36c.16,2.32.34,4.76.52,7.27,1,13.85,2.05,28.17,1.3,31.4-2,8.5-1.4,13.9-.34,23.69.11,1,.23,2,.34,3.14.61,5.69,1.28,11.26,1.72,14.84h0l-.71-.15h0c-.44-3.58-1.09-9-1.68-14.61-.12-1.1-.23-2.15-.34-3.15-1.08-9.85-1.67-15.28.34-23.89.74-3.14-.35-18.06-1.31-31.22-.11-1.59-.23-3.16-.34-4.68L151.65,327l.42,20.21Z" style="fill:#37474f"></path><path d="M118.16,396.5c-1.21-19.89,1.44-31.41,3.22-39.12.18-.74.34-1.45.49-2.13,1.35-6,2-18.22,1.94-28.2,0-3,0-6.13,0-9.44.12-13,1.19-27.53,8.19-36.91l.57.37c-4.71,6.31-6.7,15-7.52,24,7-.87,8.48-7.31,10.55-16.17.28-1.22.58-2.47.89-3.76l.68.15c-.32,1.28-.61,2.54-.9,3.74-2.07,8.85-3.71,15.86-11.28,16.71-.33,4-.46,8-.49,11.84,0,3.31,0,6.42,0,9.43,0,10-.59,22.24-2,28.33-.15.68-.32,1.39-.49,2.14-1.79,7.73-4.45,19.29-3.19,39.33Z" style="fill:#37474f"></path></g><g id="freepik--top--inject-261"><path d="M121.36,221.15A7.31,7.31,0,0,0,125.2,216a39.6,39.6,0,0,0,.65-6.62,16.46,16.46,0,0,1,3.08-9.1c2-2.54,5.5-4.11,8.62-3.2l2.08.25a38.93,38.93,0,0,1,4,8.34A45.24,45.24,0,0,1,146,218.31a29.17,29.17,0,0,1-2,13.14c-1.81,4.09-5.21,7.63-9.52,8.83a8.8,8.8,0,0,1-5.49-.11,9.24,9.24,0,0,1-4.38-4.07,13.58,13.58,0,0,1,.11-14.06A4.52,4.52,0,0,1,121.36,221.15Z" style="fill:#263238"></path><path d="M134.25,197a7.15,7.15,0,0,0-1.56,2.83,2.8,2.8,0,0,0,0,2.57,2.24,2.24,0,0,0,2.49.48,4.36,4.36,0,0,0,2.79-3,4.14,4.14,0,0,0-.73-3.62C136.43,195.41,134.91,196.28,134.25,197Z" style="fill:#68C86E"></path><g id="freepik--arm--inject-261"><path d="M171,240.8c3.13,3.82,12.54,16.75,16.16,20.93l13.43-12c1.12-1.66.87-4.93,2.76-8.19,2.09-3.6.88-6.9,2.6-6.57a2.51,2.51,0,0,1,1.66,2.34c.13,2-.61,4.53.16,4.32,1.14-.5,1.92-1.88,3.33-4,.59-.87,1.88-4.26,2.58-5.78a1.3,1.3,0,0,1,2.29-.32c.26.43.48,1.47.73,1.89a4.59,4.59,0,0,0,1,.83,4.2,4.2,0,0,1,1,.79c.72.95.2,2.08.52,3.13a9.12,9.12,0,0,1-.81,6.41c-.41.89-.8,1.82-1.24,2.68a18.51,18.51,0,0,1-3.83,4.81c-1.33,1.28-3,2.06-4.26,3.41s-4.86,6.18-7.6,9.61c-4.51,5.67-8.62,10.76-9.95,12-5.38,5.14-7.28,4-11.85-.6-5.5-5.48-17.61-19.77-17.61-19.77L161.47,236A14.47,14.47,0,0,1,171,240.8Z" style="fill:#c8856a"></path><path d="M187.2,261.73c-2.16,1.82-4.38,7.36-3.62,10.34-2.21-3.83,0-9.28,2.3-11.93Z" style="fill:#f0997a"></path><path d="M178.6,264.79a24.41,24.41,0,0,0,4.77-8.16c-2.48-3.3-10-14.37-12.65-17-3-2.95-6.84-3.86-10-4.23l.57,21.48s6.46,7.51,10.13,11.84A13,13,0,0,0,178.6,264.79Z" style="fill:#e0e0e0"></path></g><polygon points="214.07 396.8 210.32 394.88 205.07 398.29 205.62 408.67 211.31 413.86 215.06 415.77 214.07 396.8" style="fill:#68C86E"></polygon><polygon points="214.07 396.8 210.32 394.88 205.07 398.29 205.62 408.67 211.31 413.86 215.06 415.77 214.07 396.8" style="opacity:0.1"></polygon><polygon points="208.83 400.2 209.37 410.58 215.06 415.77 214.07 396.8 208.83 400.2" style="fill:#68C86E"></polygon><polygon points="209.37 410.58 205.62 408.67 211.31 413.86 215.06 415.77 209.37 410.58" style="opacity:0.1"></polygon><path d="M195.12,371.56c.24,4.42,2.77,7.86,5.35,12.13s2.78,8.68,3.14,15.64h0a3,3,0,0,0,1.88,2.35,9.35,9.35,0,0,0,8.46-.44,3,3,0,0,0,1.62-2.54h0c-.36-7-.59-11.45,1.49-15.88s4.28-8.21,4.05-12.62Z" style="fill:#263238"></path><path d="M195.12,371.56l-.05-1.06L188.59,247l-.51-9.67,3.06-.17,2.48-.14,5-.27,2.49-.14,5-.28,5-.27,3-.17.17,3.12,6.84,130.3a.11.11,0,0,1,0,.08l0,.57a.11.11,0,0,1,0,.08,6.19,6.19,0,0,1-2.83,4.64,7.55,7.55,0,0,1-.71.51,15.37,15.37,0,0,1-4.15,1.85,21.18,21.18,0,0,1-4.94.83,18.85,18.85,0,0,1-9.33-1.71C196.78,374.93,195.43,373.3,195.12,371.56Z" style="fill:#37474f"></path><path d="M213.42,377a21.18,21.18,0,0,1-4.94.83l-7.4-141.26,5-.28,5-.27,3-.17.17,3.12,6.84,130.3a.11.11,0,0,1,0,.08l0,.57a.11.11,0,0,1,0,.08,6.19,6.19,0,0,1-2.83,4.64,7.55,7.55,0,0,1-.71.51A15.37,15.37,0,0,1,213.42,377Z" style="fill:#455a64"></path><path d="M211,236.05l7.26,138.62a7.55,7.55,0,0,1-.71.51,15.37,15.37,0,0,1-4.15,1.85l-7.37-140.7Z" style="fill:#fff;opacity:0.2"></path><path d="M210.55,241.42a20.39,20.39,0,0,1-18.39,1c-5.23-2.67-5.48-7.42-.56-10.62a20.34,20.34,0,0,1,18.39-1C215.22,233.47,215.47,238.22,210.55,241.42Z" style="fill:#e0e0e0"></path><path d="M191.43,242.86c5.66,2.88,14.56,2.41,19.89-1.05,2.66-1.72,3.92-3.87,3.81-5.95l-2.45-46.61-28.11,1.62L187,237.33C187.12,239.41,188.6,241.42,191.43,242.86Z" style="fill:#68C86E"></path><path d="M206.44,243.92,204,197.39a16.86,16.86,0,0,0,4.87-2.11l2.45,46.53A17.2,17.2,0,0,1,206.44,243.92Z" style="fill:#fff;opacity:0.30000000000000004"></path><path d="M191.44,242.86c-2.84-1.44-4.32-3.45-4.43-5.54l-2.44-46.44h0c.13,2,1.61,4,4.4,5.45a19.14,19.14,0,0,0,7.57,1.86L199,244.71A18.76,18.76,0,0,1,191.44,242.86Z" style="opacity:0.1"></path><path d="M208.87,195.28c-5.32,3.46-14.22,3.93-19.88,1s-5.93-8-.6-11.48,14.22-3.92,19.88-1S214.2,191.82,208.87,195.28Z" style="fill:#68C86E"></path><path d="M208.87,195.28c-5.32,3.46-14.22,3.93-19.88,1s-5.93-8-.6-11.48,14.22-3.92,19.88-1S214.2,191.82,208.87,195.28Z" style="fill:#fff;opacity:0.5"></path><path d="M204.84,186a14.21,14.21,0,0,0-12.82.67c-1.73,1.13-2.55,2.55-2.45,3.9s1.05,2.6,2.85,3.51a14.19,14.19,0,0,0,12.81-.67c1.73-1.13,2.55-2.53,2.46-3.89S206.64,186.94,204.84,186Zm-1.59,6.39a9.9,9.9,0,0,1-9,.48,2.73,2.73,0,0,1-.27-5.18,9.91,9.91,0,0,1,9-.47,2.73,2.73,0,0,1,.26,5.17Z" style="fill:#68C86E;opacity:0.6000000000000001"></path><polygon points="194.56 207.54 194.41 204.67 192.01 206.24 192.15 209.11 194.56 207.54" style="fill:#68C86E"></polygon><path d="M190.71,247l2.41-1.57a2.22,2.22,0,0,0,.84-2.08s0,0,0,0l-2-37.12-7.69-3.92,2,37.12a7,7,0,0,0,3.47,5.35l.28.14-.29.18Z" style="fill:#68C86E"></path><path d="M188.46,246.93l-1.14-.58a7,7,0,0,1-3.46-5.34l-2-37.12,7.69,3.92,1.95,37.11s0,0,0,0C191.63,247,190.26,247.85,188.46,246.93Z" style="fill:#68C86E"></path><path d="M188.46,246.93l-1.14-.58a7,7,0,0,1-3.46-5.34l-2-37.12,7.69,3.92,1.95,37.11s0,0,0,0C191.63,247,190.26,247.85,188.46,246.93Z" style="opacity:0.15"></path><polygon points="186.73 200.76 194.41 204.67 189.59 207.8 181.91 203.89 186.73 200.76" style="fill:#68C86E"></polygon><polygon points="186.73 200.76 194.41 204.67 189.59 207.8 181.91 203.89 186.73 200.76" style="opacity:0.2"></polygon><path d="M123,290.83c1.62-7.43,4.24-15.29,4.41-19.24.4-9.52-1.27-10.5-2.5-16.76-2.28-11.57,2.93-17.09,5-18.86,0,0,2.18-.5,4.78-1.12a36.91,36.91,0,0,1,4.49-.81,53.87,53.87,0,0,1,12-.33c1,.1,2.88.49,5.26.91,2.16.37,4.29.78,4.3.78a32.75,32.75,0,0,1,8.54,9.25c2.28,4.08,4.24,7,3.35,14.52-1.31,11.05,1.59,24,1.59,31.81C165,296.64,134.52,300.71,123,290.83Z" style="fill:#263238"></path><g id="freepik--head--inject-261"><path d="M139.54,226.85c-.43-3.7-13.11-19.84-5.48-23.86,2-20.3,42.14-12.51,31.64,8.21a3.51,3.51,0,0,0-.53-2.62c.3,2.74-2.52,6-5.38,5.43C153,218.14,146.33,222.66,139.54,226.85Z" style="fill:#263238"></path><path d="M139.3,231.27c0-1.48.13-10.35.13-10.35a3.45,3.45,0,0,1-5.72,0c-1.57-2.09-2-5.15-.53-7.07,1.6-2.13,5.76-2.08,6.15,1.52,2.07-.08,3.07-1,2.25-4.37.22-2.38,2.92-3.07,2.85-8.26,6.79-4.49,13.68-4.17,17.8-.6a32.29,32.29,0,0,1,2.07,12.29c-.3,7.85-1.37,10.59-3.56,12.4A11.76,11.76,0,0,1,153,229l-.06,2.44h0c.05,1.24-.09,2.35,1.11,2.76.5.8,3.34,5.6-1.05,9.35-9.43-1.78-15.19-8-15.72-9.2C139.27,233.7,139.28,232.74,139.3,231.27Z" style="fill:#c8856a"></path><path d="M151.06,219.42l4.64,1.49a2.39,2.39,0,0,1-3,1.66A2.56,2.56,0,0,1,151.06,219.42Z" style="fill:#af6152"></path><path d="M151.36,220.49a2.69,2.69,0,0,1,2.67,2.1,2.3,2.3,0,0,1-1.35,0,2.51,2.51,0,0,1-1.68-2Z" style="fill:#f0997a"></path><path d="M162.1,208.73l-2.91-1.62a1.6,1.6,0,0,1,2.22-.68A1.74,1.74,0,0,1,162.1,208.73Z" style="fill:#263238"></path><path d="M148.05,209l3.09-1.35a1.62,1.62,0,0,0-2.17-.91A1.78,1.78,0,0,0,148.05,209Z" style="fill:#263238"></path><path d="M158.62,211a1.43,1.43,0,0,0,1.27,1.52,1.34,1.34,0,0,0,1.49-1.22,1.43,1.43,0,0,0-1.27-1.52A1.34,1.34,0,0,0,158.62,211Z" style="fill:#263238"></path><path d="M149,211.62a1.43,1.43,0,0,0,1.28,1.51,1.34,1.34,0,0,0,1.49-1.22,1.42,1.42,0,0,0-1.28-1.51A1.34,1.34,0,0,0,149,211.62Z" style="fill:#263238"></path><path d="M153,229c-5.27-.55-9.52-2-12.19-7.21a8.15,8.15,0,0,0,2.53,5.77c3.68,3.31,9.61,3.31,9.61,3.31Z" style="fill:#af6152"></path></g><g id="freepik--arm--inject-261"><path d="M121.49,303.3c-.86.95-2.84-.52-3.56-1-1.44-1-1.71-2-1.69-3.82a3.24,3.24,0,0,1,.4-1.85c.15-.22.35-.4.51-.62.51-.7.41-1.67.77-2.46,1.66-3.68,4.39.54,5,2.44A7.28,7.28,0,0,1,121.49,303.3Z" style="fill:#f0997a"></path><path d="M128.92,236.84c-7.21,1.51-7.92,1.29-11.33,8.14-4,8-8.67,17.18-10.09,20.21s-2,4.69.61,9.6c1.36,2.56,7,11.82,10.15,17.8.71,1.35.26,3.11,1,4.44.56,1,2.77,2.49,2.6,3.76s-2.82,2-4,1.44a17.39,17.39,0,0,0,2.85,2,6,6,0,0,0,3.54.92c1-.2,1.51-1.14,2.39-1.54s2.16-.2,2.69-1c.35-.54.19-1.28.53-1.82s1.12-.73,1.49-1.28a2.31,2.31,0,0,0-.06-2,74.16,74.16,0,0,0-3.39-8.28c-1.5-3.07-4.7-11.91-6.81-17.82l8.76-18.47S134.2,242.34,128.92,236.84Z" style="fill:#c8856a"></path><path d="M123.15,268.34c.31-.64.69-1.35,1.14-2.16,1.79-3.23,5.17-10.18,6.37-12.56S135,242,129.89,236A39.33,39.33,0,0,0,123,237.8c-1.51.68-2.72,1.23-5,5.55-2.06,3.85-7.74,15.32-9.57,19C112.36,266.1,117.73,268.83,123.15,268.34Z" style="fill:#e0e0e0"></path></g><polygon points="160.58 215.87 156.07 218.1 154.75 209.23 160.58 215.87" style="fill:#af6152"></polygon></g></g></g></svg>
