<?xml version="1.0" encoding="iso-8859-1"?>
<!-- Uploaded to: SVG Repo, www.svgrepo.com, Generator: SVG Repo Mixer Tools -->
<svg fill="#fff" height="800px" width="800px" version="1.1" id="Capa_1" xmlns="http://www.w3.org/2000/svg" xmlns:xlink="http://www.w3.org/1999/xlink" 
	 viewBox="0 0 490 490" xml:space="preserve">
<g>
	<circle cx="245" cy="39.483" r="39.483"/>
	<path d="M164.966,125.385c0,36.816,0,45.353,0,45.353s77.898,0,78.166,0l-38.15-82.701
		C204.983,88.037,164.966,88.57,164.966,125.385z"/>
	<path d="M325.034,125.385c0-36.815-40.017-37.348-40.017-37.348l-38.15,82.701h78.166
		C325.034,170.738,325.034,162.201,325.034,125.385z"/>
	<polygon points="245,88.037 217.522,88.037 245,148.861 272.478,88.037 	"/>
	<circle cx="409.967" cy="358.746" r="39.483"/>
	<path d="M329.934,444.648c0,36.816,0,45.352,0,45.352s77.897,0,78.165,0l-38.149-82.701
		C369.951,407.299,329.934,407.833,329.934,444.648z"/>
	<path d="M449.983,407.299L411.835,490H490c0,0,0-8.537,0-45.352C490,407.833,449.983,407.299,449.983,407.299z"/>
	<polygon points="437.445,407.299 409.966,407.299 382.489,407.299 409.966,468.124 	"/>
	<circle cx="80.034" cy="358.746" r="39.483"/>
	<path d="M40.017,407.299c0,0-40.017,0.534-40.017,37.349C0,481.463,0,490,0,490s77.898,0,78.166,0L40.017,407.299z"/>
	<path d="M160.066,444.648c0-36.815-40.016-37.349-40.016-37.349L81.901,490h78.165C160.066,490,160.066,481.463,160.066,444.648z"
		/>
	<polygon points="80.034,407.299 52.555,407.299 80.034,468.124 107.512,407.299 	"/>
	<polygon points="64.719,288.635 95.344,288.635 95.344,260.387 394.656,260.387 394.656,288.635 425.281,288.635 425.281,229.762 
		262.182,229.762 262.182,201.365 231.557,201.365 231.557,229.762 64.719,229.762 	"/>
</g>
</svg>